<svg xmlns="http://www.w3.org/2000/svg" xmlns:xlink="http://www.w3.org/1999/xlink" width="1919" height="1075" viewBox="0 0 1919 1075"><defs><style>.cls-1,.cls-9{fill:none;}.cls-2{fill:#61c1ff;}.cls-3{clip-path:url(#clip-path);}.cls-4{opacity:0.73;}.cls-5{fill:#ffba74;}.cls-6{fill:#8a4600;}.cls-7{fill:#ff9e5f;}.cls-8{fill:#e6e6e6;}.cls-9{stroke:#e6e6e6;stroke-width:6px;}.cls-12,.cls-13,.cls-15,.cls-9{stroke-miterlimit:10;}.cls-10{fill:#999;}.cls-11,.cls-12{fill:#a67c52;}.cls-12,.cls-13{stroke:#754c24;}.cls-12,.cls-13,.cls-15{stroke-width:3px;}.cls-13{fill:#8c6239;}.cls-14,.cls-15{fill:#fff;}.cls-15{stroke:#fff;opacity:0.5;}.cls-16{fill:#ffd674;}.cls-17{fill:#ffc674;}.cls-18{fill:#c1272d;}.cls-19{isolation:isolate;}.cls-20{fill:#c3002b;}</style><clipPath id="clip-path"><rect class="cls-1" y="17" width="1920" height="1058"/></clipPath></defs><title>game_over</title><g id="UI_ELEMENTER" data-name="UI ELEMENTER"><rect class="cls-2" width="1919" height="1075"/><g class="cls-3"><g class="cls-4"><path class="cls-5" d="M1950,879.42c0,26.55-11.15,51.06-30,70.85v174.49H0V921.16c-29.09-12.71-47-30.08-47-49.2,0-39,74.54-70.67,166.5-70.67,58.21,0,109.43,12.68,139.2,31.89a138.48,138.48,0,0,1,132.8-98.57c76.32,0,138.23,61.45,138.5,137.35H723a33,33,0,0,1,41.54-31.73A69.56,69.56,0,0,1,895,872h188.37c16.59-18.26,41.41-29.86,69.15-29.86a94,94,0,0,1,61.92,22.77,117.51,117.51,0,0,0-17.2,7.09h24.43a83.48,83.48,0,0,0-7.23-7.09A144.41,144.41,0,0,1,1259,858c23.22,0,44.63,5.19,61.78,13.93h111.28a59.5,59.5,0,0,1,118.88,0h94.36c4.94-62.22,71.2-111.47,152.2-111.47C1881.72,760.49,1950,813.73,1950,879.42Z"/><path class="cls-5" d="M1221.65,872h-24.43a117.51,117.51,0,0,1,17.2-7.09A83.48,83.48,0,0,1,1221.65,872Z"/><path class="cls-5" d="M1221.65,872h-24.43a117.51,117.51,0,0,1,17.2-7.09A83.48,83.48,0,0,1,1221.65,872Z"/><path class="cls-5" d="M350.56,903.17a1.5,1.5,0,0,0,0-3,1.5,1.5,0,0,0,0,3Z"/><path class="cls-5" d="M539.44,951.09a1.5,1.5,0,0,0,0-3,1.5,1.5,0,0,0,0,3Z"/><path class="cls-5" d="M371.37,887.32a59.66,59.66,0,0,0,13.23,28.39c1.23,1.48,3.35-.65,2.12-2.13a56.84,56.84,0,0,1-12.46-27.06c-.32-1.9-3.21-1.09-2.89.8Z"/><path class="cls-5" d="M498.7,932.66a1.5,1.5,0,0,0,0-3,1.5,1.5,0,0,0,0,3Z"/><path class="cls-6" d="M196.85,934.5a1.5,1.5,0,0,0,0-3,1.5,1.5,0,0,0,0,3Z"/><path class="cls-6" d="M387.59,991.64a1.5,1.5,0,0,0,0-3,1.5,1.5,0,0,0,0,3Z"/><path class="cls-6" d="M395,886.58a1.5,1.5,0,0,0,0-3,1.5,1.5,0,0,0,0,3Z"/><path class="cls-6" d="M346.85,835a1.5,1.5,0,0,0,0-3,1.5,1.5,0,0,0,0,3Z"/><path class="cls-6" d="M645,1017.45a1.5,1.5,0,0,0,0-3,1.5,1.5,0,0,0,0,3Z"/><path class="cls-6" d="M845,910.54a1.5,1.5,0,0,0,0-3,1.5,1.5,0,0,0,0,3Z"/><path class="cls-6" d="M663.52,905a1.5,1.5,0,0,0,0-3,1.5,1.5,0,0,0,0,3Z"/><path class="cls-6" d="M437.59,1013.76a1.5,1.5,0,0,0,0-3,1.5,1.5,0,0,0,0,3Z"/><path class="cls-6" d="M258,1063.52a1.5,1.5,0,0,0,0-3,1.5,1.5,0,0,0,0,3Z"/><path class="cls-6" d="M111.67,1034a1.5,1.5,0,0,0,0-3,1.5,1.5,0,0,0,0,3Z"/><path class="cls-6" d="M102.41,894a1.5,1.5,0,0,0,0-3,1.5,1.5,0,0,0,0,3Z"/><path class="cls-6" d="M908,976.9a1.5,1.5,0,0,0,0-3,1.5,1.5,0,0,0,0,3Z"/><path class="cls-6" d="M854.26,853.41a1.5,1.5,0,0,0,0-3,1.5,1.5,0,0,0,0,3Z"/><path class="cls-6" d="M808,827.6a1.5,1.5,0,0,0,0-3,1.5,1.5,0,0,0,0,3Z"/><path class="cls-6" d="M746.85,855.25a1.5,1.5,0,0,0,0-3,1.5,1.5,0,0,0,0,3Z"/><path class="cls-6" d="M761.67,980.58a1.5,1.5,0,0,0,0-3,1.5,1.5,0,0,0,0,3Z"/><path class="cls-6" d="M1091.3,1046.94a1.5,1.5,0,0,0,0-3,1.5,1.5,0,0,0,0,3Z"/><path class="cls-6" d="M1282,951.09a1.5,1.5,0,0,0,0-3,1.5,1.5,0,0,0,0,3Z"/><path class="cls-6" d="M1341.3,1046.94a1.5,1.5,0,0,0,0-3,1.5,1.5,0,0,0,0,3Z"/><path class="cls-6" d="M1180.19,971.37a1.5,1.5,0,0,0,0-3,1.5,1.5,0,0,0,0,3Z"/><path class="cls-6" d="M1022.78,951.09a1.5,1.5,0,0,0,0-3,1.5,1.5,0,0,0,0,3Z"/><path class="cls-6" d="M1133.89,870a1.5,1.5,0,0,0,0-3,1.5,1.5,0,0,0,0,3Z"/><path class="cls-6" d="M1352.41,932.66a1.5,1.5,0,0,0,0-3,1.5,1.5,0,0,0,0,3Z"/><path class="cls-6" d="M1437.59,1008.23a1.5,1.5,0,0,0,0-3,1.5,1.5,0,0,0,0,3Z"/><path class="cls-6" d="M1530.19,897.64a1.5,1.5,0,0,0,0-3,1.5,1.5,0,0,0,0,3Z"/><path class="cls-6" d="M1502.41,838.66a1.5,1.5,0,0,0,0-3,1.5,1.5,0,0,0,0,3Z"/><path class="cls-6" d="M1426.48,875.52a1.5,1.5,0,0,0,0-3,1.5,1.5,0,0,0,0,3Z"/><path class="cls-6" d="M1570.93,975.05a1.5,1.5,0,0,0,0-3,1.5,1.5,0,0,0,0,3Z"/><path class="cls-6" d="M1422.78,908.7a1.5,1.5,0,0,0,0-3,1.5,1.5,0,0,0,0,3Z"/><path class="cls-6" d="M1369.07,901.33a1.5,1.5,0,0,0,0-3,1.5,1.5,0,0,0,0,3Z"/><path class="cls-6" d="M1261.67,866.31a1.5,1.5,0,0,0,0-3,1.5,1.5,0,0,0,0,3Z"/><path class="cls-6" d="M1196.85,1021.13a1.5,1.5,0,0,0,0-3,1.5,1.5,0,0,0,0,3Z"/><path class="cls-6" d="M1789.44,1041.41a1.5,1.5,0,0,0,0-3,1.5,1.5,0,0,0,0,3Z"/><path class="cls-6" d="M1811.67,925.29a1.5,1.5,0,0,0,0-3,1.5,1.5,0,0,0,0,3Z"/><path class="cls-6" d="M1832,840.5a1.5,1.5,0,0,0,0-3,1.5,1.5,0,0,0,0,3Z"/><path class="cls-6" d="M1817.22,796.27a1.5,1.5,0,0,0,0-3,1.5,1.5,0,0,0,0,3Z"/><path class="cls-6" d="M1715.37,822.07a1.5,1.5,0,0,0,0-3,1.5,1.5,0,0,0,0,3Z"/><path class="cls-6" d="M1678.33,964a1.5,1.5,0,0,0,0-3,1.5,1.5,0,0,0,0,3Z"/><path class="cls-6" d="M1709.81,993.48a1.5,1.5,0,0,0,0-3,1.5,1.5,0,0,0,0,3Z"/><path class="cls-6" d="M1609.81,1028.5a1.5,1.5,0,0,0,0-3,1.5,1.5,0,0,0,0,3Z"/><path class="cls-6" d="M1704.26,1037.72a1.5,1.5,0,0,0,0-3,1.5,1.5,0,0,0,0,3Z"/><path class="cls-6" d="M1548.7,1008.23a1.5,1.5,0,0,0,0-3,1.5,1.5,0,0,0,0,3Z"/><path class="cls-6" d="M591.3,986.11a1.5,1.5,0,0,0,0-3,1.5,1.5,0,0,0,0,3Z"/><path class="cls-6" d="M554.26,941.88a1.5,1.5,0,0,0,0-3,1.5,1.5,0,0,0,0,3Z"/><path class="cls-6" d="M459.81,840.5a1.5,1.5,0,0,0,0-3,1.5,1.5,0,0,0,0,3Z"/><path class="cls-6" d="M415.37,783.37a1.5,1.5,0,0,0,0-3,1.5,1.5,0,0,0,0,3Z"/><path class="cls-6" d="M9.81,835a1.5,1.5,0,0,0,0-3,1.5,1.5,0,0,0,0,3Z"/><path class="cls-6" d="M22.78,894a1.5,1.5,0,0,0,0-3,1.5,1.5,0,0,0,0,3Z"/><path class="cls-6" d="M22.78,958.47a1.5,1.5,0,0,0,0-3,1.5,1.5,0,0,0,0,3Z"/><path class="cls-6" d="M32,1056.15a1.5,1.5,0,0,0,0-3,1.5,1.5,0,0,0,0,3Z"/><path class="cls-6" d="M52.41,964a1.5,1.5,0,0,0,0-3,1.5,1.5,0,0,0,0,3Z"/><path class="cls-6" d="M222.78,971.37a1.5,1.5,0,0,0,0-3,1.5,1.5,0,0,0,0,3Z"/><path class="cls-6" d="M154.26,895.8a1.5,1.5,0,0,0,0-3,1.5,1.5,0,0,0,0,3Z"/><path class="cls-6" d="M150.56,984.27a1.5,1.5,0,0,0,0-3,1.5,1.5,0,0,0,0,3Z"/><path class="cls-6" d="M143.15,827.6a1.5,1.5,0,0,0,0-3,1.5,1.5,0,0,0,0,3Z"/><path class="cls-6" d="M54.26,823.92a1.5,1.5,0,0,0,0-3,1.5,1.5,0,0,0,0,3Z"/></g><path class="cls-7" d="M517.83,996.41a1.5,1.5,0,0,0,0-3,1.5,1.5,0,0,0,0,3Z"/><path class="cls-7" d="M590.48,1042.2a1.5,1.5,0,0,0,0-3,1.5,1.5,0,0,0,0,3Z"/><path class="cls-7" d="M790.27,988a1.5,1.5,0,0,0,0-3,1.5,1.5,0,0,0,0,3Z"/><path class="cls-6" d="M451,898.14a1.5,1.5,0,0,0,0-3,1.5,1.5,0,0,0,0,3Z"/><path class="cls-6" d="M133.31,986.17a1.5,1.5,0,0,0,0-3,1.5,1.5,0,0,0,0,3Z"/><path class="cls-6" d="M39.2,995a1.5,1.5,0,0,0,0-3,1.5,1.5,0,0,0,0,3Z"/><path class="cls-6" d="M645.07,1047.65a1.5,1.5,0,0,0,0-3,1.5,1.5,0,0,0,0,3Z"/><path class="cls-6" d="M518.6,1015.44a1.5,1.5,0,0,0,0-3,1.5,1.5,0,0,0,0,3Z"/><path class="cls-6" d="M274.49,1038.86a1.5,1.5,0,0,0,0-3,1.5,1.5,0,0,0,0,3Z"/><path class="cls-6" d="M315.66,983.24a1.5,1.5,0,0,0,0-3,1.5,1.5,0,0,0,0,3Z"/><path class="cls-6" d="M859.77,997.88a1.5,1.5,0,0,0,0-3,1.5,1.5,0,0,0,0,3Z"/><path class="cls-6" d="M765.66,1044.72a1.5,1.5,0,0,0,0-3,1.5,1.5,0,0,0,0,3Z"/><path class="cls-6" d="M730.36,1003.74a1.5,1.5,0,0,0,0-3,1.5,1.5,0,0,0,0,3Z"/><path class="cls-6" d="M653.89,956.9a1.5,1.5,0,0,0,0-3,1.5,1.5,0,0,0,0,3Z"/><path class="cls-6" d="M456.84,986.17a1.5,1.5,0,0,0,0-3,1.5,1.5,0,0,0,0,3Z"/><path class="cls-6" d="M353.9,1065.21a1.5,1.5,0,0,0,0-3,1.5,1.5,0,0,0,0,3Z"/><path class="cls-6" d="M951,1065.21a1.5,1.5,0,0,0,0-3,1.5,1.5,0,0,0,0,3Z"/><path class="cls-6" d="M1006.83,971.54a1.5,1.5,0,0,0,0-3,1.5,1.5,0,0,0,0,3Z"/><path class="cls-6" d="M1083.3,1033a1.5,1.5,0,0,0,0-3,1.5,1.5,0,0,0,0,3Z"/><path class="cls-6" d="M1030.36,1053.5a1.5,1.5,0,0,0,0-3,1.5,1.5,0,0,0,0,3Z"/><path class="cls-6" d="M939.18,1027.15a1.5,1.5,0,0,0,0-3,1.5,1.5,0,0,0,0,3Z"/><path class="cls-6" d="M795.07,1076.92a1.5,1.5,0,0,0,0-3,1.5,1.5,0,0,0,0,3Z"/><path class="cls-6" d="M1580.35,1015.44a1.5,1.5,0,0,0,0-3,1.5,1.5,0,0,0,0,3Z"/><path class="cls-6" d="M1298,1000.81a1.5,1.5,0,0,0,0-3,1.5,1.5,0,0,0,0,3Z"/><path class="cls-6" d="M1368.59,1041.79a1.5,1.5,0,0,0,0-3,1.5,1.5,0,0,0,0,3Z"/><path class="cls-6" d="M1327.41,1071.06a1.5,1.5,0,0,0,0-3,1.5,1.5,0,0,0,0,3Z"/><path class="cls-6" d="M1106.83,971.54a1.5,1.5,0,0,0,0-3,1.5,1.5,0,0,0,0,3Z"/><path class="cls-6" d="M1042.12,936.41a1.5,1.5,0,0,0,0-3,1.5,1.5,0,0,0,0,3Z"/><path class="cls-6" d="M1645.05,948.12a1.5,1.5,0,0,0,0-3,1.5,1.5,0,0,0,0,3Z"/><path class="cls-6" d="M1477.41,921.77a1.5,1.5,0,0,0,0-3,1.5,1.5,0,0,0,0,3Z"/><path class="cls-6" d="M1395.06,1024.23a1.5,1.5,0,0,0,0-3,1.5,1.5,0,0,0,0,3Z"/><path class="cls-6" d="M1527.41,992a1.5,1.5,0,0,0,0-3,1.5,1.5,0,0,0,0,3Z"/><path class="cls-6" d="M1509.76,936.41a1.5,1.5,0,0,0,0-3,1.5,1.5,0,0,0,0,3Z"/><path class="cls-6" d="M1509.76,1035.94a1.5,1.5,0,0,0,0-3,1.5,1.5,0,0,0,0,3Z"/><path class="cls-6" d="M1253.88,1041.79a1.5,1.5,0,0,0,0-3,1.5,1.5,0,0,0,0,3Z"/><path class="cls-6" d="M1809.76,1044.72a1.5,1.5,0,0,0,0-3,1.5,1.5,0,0,0,0,3Z"/><path class="cls-6" d="M1780.35,995a1.5,1.5,0,0,0,0-3,1.5,1.5,0,0,0,0,3Z"/><path class="cls-6" d="M1724.46,1000.81a1.5,1.5,0,0,0,0-3,1.5,1.5,0,0,0,0,3Z"/><path class="cls-6" d="M1598,1041.79a1.5,1.5,0,0,0,0-3,1.5,1.5,0,0,0,0,3Z"/><path class="cls-6" d="M1874.46,1000.81a1.5,1.5,0,0,0,0-3,1.5,1.5,0,0,0,0,3Z"/><path class="cls-6" d="M1795.05,942.26a1.5,1.5,0,0,0,0-3,1.5,1.5,0,0,0,0,3Z"/><path class="cls-6" d="M1595.05,1047.65a1.5,1.5,0,0,0,0-3,1.5,1.5,0,0,0,0,3Z"/><path class="cls-5" d="M-261,978.89c0,14.49,12.9,27.87,34.7,38.67v95.26H1994.63V1001.67c33.65-6.94,54.37-16.42,54.37-26.86,0-21.3-86.22-38.58-192.6-38.58-67.33,0-126.58,6.92-161,17.41-19.67-31.12-81-53.81-153.62-53.81-88.28,0-159.89,33.54-160.21,75H1158.31c0-9.9-17.08-17.93-38.17-17.93a78.71,78.71,0,0,0-9.88.61c-13.65-11.7-40.11-19.63-70.51-19.63-43.82,0-79.45,16.47-80.37,36.95H741.48c-19.19-10-47.9-16.3-80-16.3-27.71,0-52.91,4.72-71.63,12.43,7.06,1.08,13.72,2.38,19.9,3.87H581.51c2.6-1.36,5.4-2.65,8.36-3.87a343.46,343.46,0,0,0-51.57-3.74c-26.86,0-51.62,2.84-71.46,7.61H338.12c-1.5-17.22-31.72-31-68.76-31s-67.25,13.75-68.75,31H91.46C85.74,940.85,9.1,914-84.6,914-182,914-261,943-261,978.89Z"/><path class="cls-5" d="M581.51,974.81h28.26c-6.18-1.49-12.84-2.79-19.9-3.87C586.91,972.16,584.11,973.45,581.51,974.81Z"/><path class="cls-5" d="M581.51,974.81h28.26c-6.18-1.49-12.84-2.79-19.9-3.87C586.91,972.16,584.11,973.45,581.51,974.81Z"/><path class="cls-5" d="M1589.13,992.53a1.5,1.5,0,0,0,0-3,1.5,1.5,0,0,0,0,3Z"/><path class="cls-5" d="M1370.64,1018.69a1.5,1.5,0,0,0,0-3,1.5,1.5,0,0,0,0,3Z"/><path class="cls-5" d="M1561.94,982.58c-2.35,6.55-8.32,11-14.17,14.24-1.68.94-.17,3.54,1.52,2.59,6.59-3.7,12.91-8.7,15.54-16,.65-1.82-2.25-2.61-2.89-.8Z"/><path class="cls-5" d="M1417.77,1008.63a1.5,1.5,0,0,0,0-3,1.5,1.5,0,0,0,0,3Z"/><path class="cls-6" d="M1766.93,1009.64a1.5,1.5,0,0,0,0-3,1.5,1.5,0,0,0,0,3Z"/><path class="cls-6" d="M1546.29,1040.83a1.5,1.5,0,0,0,0-3,1.5,1.5,0,0,0,0,3Z"/><path class="cls-6" d="M1537.72,983.47a1.5,1.5,0,0,0,0-3,1.5,1.5,0,0,0,0,3Z"/><path class="cls-6" d="M1593.42,955.3a1.5,1.5,0,0,0,0-3,1.5,1.5,0,0,0,0,3Z"/><path class="cls-6" d="M1248.54,1054.92a1.5,1.5,0,0,0,0-3,1.5,1.5,0,0,0,0,3Z"/><path class="cls-6" d="M1017.19,996.56a1.5,1.5,0,0,0,0-3,1.5,1.5,0,0,0,0,3Z"/><path class="cls-6" d="M1227.12,993.54a1.5,1.5,0,0,0,0-3,1.5,1.5,0,0,0,0,3Z"/><path class="cls-6" d="M1488.45,1052.9a1.5,1.5,0,0,0,0-3,1.5,1.5,0,0,0,0,3Z"/><path class="cls-6" d="M1865.46,1064a1.5,1.5,0,0,0,0-3,1.5,1.5,0,0,0,0,3Z"/><path class="cls-6" d="M1876.18,987.5a1.5,1.5,0,0,0,0-3,1.5,1.5,0,0,0,0,3Z"/><path class="cls-6" d="M944.36,1032.78a1.5,1.5,0,0,0,0-3,1.5,1.5,0,0,0,0,3Z"/><path class="cls-6" d="M1006.48,965.36a1.5,1.5,0,0,0,0-3,1.5,1.5,0,0,0,0,3Z"/><path class="cls-6" d="M1060,951.28a1.5,1.5,0,0,0,0-3,1.5,1.5,0,0,0,0,3Z"/><path class="cls-6" d="M1130.72,966.37a1.5,1.5,0,0,0,0-3,1.5,1.5,0,0,0,0,3Z"/><path class="cls-6" d="M1113.59,1034.79a1.5,1.5,0,0,0,0-3,1.5,1.5,0,0,0,0,3Z"/><path class="cls-6" d="M732.29,1071a1.5,1.5,0,0,0,0-3,1.5,1.5,0,0,0,0,3Z"/><path class="cls-6" d="M511.66,1018.69a1.5,1.5,0,0,0,0-3,1.5,1.5,0,0,0,0,3Z"/><path class="cls-6" d="M443.11,1071a1.5,1.5,0,0,0,0-3,1.5,1.5,0,0,0,0,3Z"/><path class="cls-6" d="M629.47,1029.76a1.5,1.5,0,0,0,0-3,1.5,1.5,0,0,0,0,3Z"/><path class="cls-6" d="M811.55,1018.69a1.5,1.5,0,0,0,0-3,1.5,1.5,0,0,0,0,3Z"/><path class="cls-6" d="M683,974.42a1.5,1.5,0,0,0,0-3,1.5,1.5,0,0,0,0,3Z"/><path class="cls-6" d="M430.26,1008.63a1.5,1.5,0,0,0,0-3,1.5,1.5,0,0,0,0,3Z"/><path class="cls-6" d="M331.72,1049.88a1.5,1.5,0,0,0,0-3,1.5,1.5,0,0,0,0,3Z"/><path class="cls-6" d="M224.61,989.51a1.5,1.5,0,0,0,0-3,1.5,1.5,0,0,0,0,3Z"/><path class="cls-6" d="M256.75,957.31a1.5,1.5,0,0,0,0-3,1.5,1.5,0,0,0,0,3Z"/><path class="cls-6" d="M344.57,977.44a1.5,1.5,0,0,0,0-3,1.5,1.5,0,0,0,0,3Z"/><path class="cls-6" d="M177.49,1031.77a1.5,1.5,0,0,0,0-3,1.5,1.5,0,0,0,0,3Z"/><path class="cls-6" d="M348.86,995.55a1.5,1.5,0,0,0,0-3,1.5,1.5,0,0,0,0,3Z"/><path class="cls-6" d="M411,991.52a1.5,1.5,0,0,0,0-3,1.5,1.5,0,0,0,0,3Z"/><path class="cls-6" d="M535.22,972.41a1.5,1.5,0,0,0,0-3,1.5,1.5,0,0,0,0,3Z"/><path class="cls-6" d="M610.19,1056.93a1.5,1.5,0,0,0,0-3,1.5,1.5,0,0,0,0,3Z"/><path class="cls-6" d="M10.4,948.26a1.5,1.5,0,0,0,0-3,1.5,1.5,0,0,0,0,3Z"/><path class="cls-6" d="M53.25,1025.74a1.5,1.5,0,0,0,0-3,1.5,1.5,0,0,0,0,3Z"/><path class="cls-6" d="M16.83,1041.83a1.5,1.5,0,0,0,0-3,1.5,1.5,0,0,0,0,3Z"/><path class="cls-6" d="M132.5,1061a1.5,1.5,0,0,0,0-3,1.5,1.5,0,0,0,0,3Z"/><path class="cls-6" d="M23.26,1066a1.5,1.5,0,0,0,0-3,1.5,1.5,0,0,0,0,3Z"/><path class="cls-6" d="M203.19,1049.88a1.5,1.5,0,0,0,0-3,1.5,1.5,0,0,0,0,3Z"/><path class="cls-6" d="M1310.66,1037.81a1.5,1.5,0,0,0,0-3,1.5,1.5,0,0,0,0,3Z"/><path class="cls-6" d="M1353.5,1013.66a1.5,1.5,0,0,0,0-3,1.5,1.5,0,0,0,0,3Z"/><path class="cls-6" d="M1462.75,958.32a1.5,1.5,0,0,0,0-3,1.5,1.5,0,0,0,0,3Z"/><path class="cls-6" d="M1514.16,927.13a1.5,1.5,0,0,0,0-3,1.5,1.5,0,0,0,0,3Z"/><path class="cls-6" d="M1736.94,1029.76a1.5,1.5,0,0,0,0-3,1.5,1.5,0,0,0,0,3Z"/><path class="cls-6" d="M1816.2,988.51a1.5,1.5,0,0,0,0-3,1.5,1.5,0,0,0,0,3Z"/><path class="cls-6" d="M1820.48,1036.8a1.5,1.5,0,0,0,0-3,1.5,1.5,0,0,0,0,3Z"/><path class="cls-6" d="M1829.05,951.28a1.5,1.5,0,0,0,0-3,1.5,1.5,0,0,0,0,3Z"/></g><path class="cls-8" d="M184.42,178.3h18.16A51.42,51.42,0,0,1,254,229.72v0a35.85,35.85,0,0,1-35.85,35.85H168.85A35.85,35.85,0,0,1,133,229.72v0A51.42,51.42,0,0,1,184.42,178.3Z"/><rect class="cls-8" x="148.18" y="265.57" width="90.64" height="12.65" rx="6.32"/><path class="cls-9" d="M164,273.16a29.66,29.66,0,0,0-.42,11c1,6.49,3.63,8.56,2.52,12.44-1.31,4.61-5.79,4.32-6.73,8.64-1,4.61,3.79,6.29,3.58,11.6-.27,6.56-7.83,8.86-7.16,13.49.28,1.93,2,4.51,9.05,6.95"/><path class="cls-9" d="M222.38,273.16a15.36,15.36,0,0,1,.84,11c-2,6.49-7.28,8.56-5.06,12.44,2.64,4.61,11.6,4.32,13.5,8.64,2,4.61-7.61,6.29-7.17,11.6.54,6.56,15.68,8.86,14.33,13.49-.56,1.93-4,4.51-18.13,6.95"/><path class="cls-9" d="M190.34,268.94a25.35,25.35,0,0,1,.84,14.21c-2,8.41-7.28,11.09-5.06,16.12,2.64,6,11.6,5.6,13.49,11.2,2,6-7.6,8.15-7.16,15C193,334,208.12,337,206.78,343c-.56,2.5-4.06,5.86-18.13,9"/><path class="cls-9" d="M203.89,268.94a35.4,35.4,0,0,1,.25,9.38c-.6,5.55-2.2,7.32-1.53,10.64.8,3.94,3.51,3.69,4.08,7.39.62,3.94-2.3,5.38-2.16,9.91.16,5.62,4.74,7.59,4.33,11.54-.17,1.65-1.22,3.87-5.48,5.95"/><path class="cls-9" d="M175.51,268.94a31.34,31.34,0,0,1,.29,9.38c-.68,5.55-2.48,7.32-1.72,10.64.9,3.94,3.95,3.69,4.6,7.39.68,3.94-2.6,5.38-2.45,9.91.19,5.62,5.35,7.59,4.89,11.54-.19,1.65-1.38,3.87-6.18,5.95"/><circle class="cls-10" cx="158.09" cy="210.55" r="3.16"/><circle class="cls-10" cx="158.09" cy="196.64" r="3.16"/><circle class="cls-10" cx="166.52" cy="204.65" r="3.16"/><path class="cls-8" d="M100.65,519.3h8.71A24.65,24.65,0,0,1,134,543.95v0a17.19,17.19,0,0,1-17.19,17.19H93.19A17.19,17.19,0,0,1,76,543.95v0A24.65,24.65,0,0,1,100.65,519.3Z"/><rect class="cls-8" x="83.28" y="561.13" width="43.45" height="6.06" rx="3.03"/><path class="cls-9" d="M90.87,564.77a14.08,14.08,0,0,0-.2,5.25c.47,3.11,1.74,4.11,1.21,6-.63,2.21-2.78,2.07-3.23,4.14s1.82,3,1.71,5.56c-.13,3.14-3.75,4.25-3.43,6.46.14.93,1,2.17,4.34,3.34"/><path class="cls-9" d="M118.84,564.77a7.34,7.34,0,0,1,.41,5.25c-1,3.11-3.49,4.11-2.43,6,1.27,2.21,5.56,2.07,6.47,4.14s-3.65,3-3.44,5.56c.26,3.14,7.52,4.25,6.87,6.46-.26.93-1.94,2.17-8.69,3.34"/><path class="cls-9" d="M103.48,562.75a12.11,12.11,0,0,1,.41,6.81c-1,4-3.49,5.31-2.43,7.73,1.27,2.86,5.56,2.68,6.47,5.37,1,2.86-3.64,3.9-3.44,7.2.26,4.07,7.52,5.51,6.88,8.38-.27,1.2-2,2.81-8.69,4.32"/><path class="cls-9" d="M110,562.75a17.33,17.33,0,0,1,.12,4.49c-.29,2.66-1,3.51-.73,5.1.38,1.89,1.68,1.77,1.95,3.55s-1.1,2.57-1,4.75c.07,2.69,2.27,3.63,2.07,5.53-.08.79-.58,1.85-2.62,2.85"/><path class="cls-9" d="M96.38,562.75a15.22,15.22,0,0,1,.14,4.49c-.33,2.66-1.19,3.51-.83,5.1.43,1.89,1.9,1.77,2.2,3.55s-1.24,2.57-1.17,4.75c.09,2.69,2.56,3.63,2.34,5.53-.09.79-.66,1.85-3,2.85"/><circle class="cls-10" cx="88.02" cy="534.76" r="1.52"/><circle class="cls-10" cx="88.02" cy="528.09" r="1.52"/><circle class="cls-10" cx="92.07" cy="531.93" r="1.52"/><path class="cls-8" d="M62.65,632H94.35A24.65,24.65,0,0,1,119,656.65v27.78a17.19,17.19,0,0,1-17.19,17.19H55.19A17.19,17.19,0,0,1,38,684.43V656.65A24.65,24.65,0,0,1,62.65,632Z"/><rect class="cls-8" x="48.16" y="701.62" width="60.68" height="10.09" rx="3.03"/><path class="cls-9" d="M58.76,707.67a28.22,28.22,0,0,0-.28,8.74c.67,5.18,2.44,6.83,1.69,9.93-.88,3.67-3.87,3.45-4.51,6.89-.67,3.68,2.55,5,2.4,9.25-.18,5.23-5.24,7.07-4.79,10.76.19,1.54,1.35,3.6,6.06,5.55"/><path class="cls-9" d="M97.83,707.67a14.45,14.45,0,0,1,.57,8.74c-1.33,5.18-4.88,6.83-3.39,9.93,1.77,3.67,7.77,3.45,9,6.89,1.35,3.68-5.09,5-4.8,9.25.37,5.23,10.5,7.07,9.6,10.76-.38,1.54-2.72,3.6-12.14,5.55"/><path class="cls-9" d="M76.38,704.31A23.82,23.82,0,0,1,77,715.64c-1.33,6.71-4.88,8.84-3.39,12.86,1.77,4.76,7.77,4.47,9,8.93,1.35,4.77-5.09,6.51-4.8,12,.37,6.79,10.5,9.17,9.6,14-.37,2-2.72,4.67-12.14,7.19"/><path class="cls-9" d="M85.45,704.31a33.75,33.75,0,0,1,.18,7.48c-.41,4.42-1.48,5.83-1,8.48.53,3.15,2.35,3,2.73,5.9.41,3.14-1.54,4.29-1.45,7.91.11,4.48,3.18,6,2.9,9.2-.11,1.32-.82,3.08-3.67,4.75"/><path class="cls-9" d="M66.46,704.31a29.84,29.84,0,0,1,.19,7.48c-.45,4.42-1.66,5.83-1.15,8.48.6,3.15,2.64,3,3.08,5.9.46,3.14-1.74,4.29-1.64,7.91.12,4.48,3.58,6,3.27,9.2-.13,1.32-.92,3.08-4.13,4.75"/><ellipse class="cls-10" cx="54.79" cy="657.73" rx="2.12" ry="2.52"/><ellipse class="cls-10" cx="54.79" cy="646.63" rx="2.12" ry="2.52"/><ellipse class="cls-10" cx="60.44" cy="653.02" rx="2.12" ry="2.52"/><rect class="cls-11" x="103.01" y="920.25" width="45.89" height="10.77" rx="5.39" transform="translate(-501.88 233.9) rotate(-34.48)"/><line class="cls-12" x1="84.11" y1="905.24" x2="108.14" y2="922.62"/><path class="cls-11" d="M125.28,863c16.95,24.69,17.52,53.76,1.26,64.92s-43.19.21-60.15-24.49-1.75-32.18,14.51-43.35S108.32,838.29,125.28,863Z"/><line class="cls-12" x1="80.12" y1="886.96" x2="115.8" y2="918.05"/><line class="cls-13" x1="83.82" y1="868.16" x2="119" y2="915.17"/><line class="cls-13" x1="121.81" y1="878.86" x2="129.4" y2="907.54"/><line class="cls-12" x1="106.19" y1="868.58" x2="122.38" y2="913.04"/><path class="cls-11" d="M1554.28,978c17,24.69,17.52,53.76,1.26,64.92s-43.19.21-60.15-24.49-1.75-32.18,14.51-43.35S1537.32,953.29,1554.28,978Z"/><line class="cls-12" x1="1509.12" y1="1001.96" x2="1544.8" y2="1033.05"/><line class="cls-13" x1="1512.82" y1="983.16" x2="1548" y2="1030.17"/><line class="cls-13" x1="1550.81" y1="993.86" x2="1558.4" y2="1022.54"/><line class="cls-12" x1="1535.19" y1="983.58" x2="1551.38" y2="1028.04"/><rect class="cls-11" x="1534.01" y="1038.25" width="45.89" height="10.77" rx="5.39" transform="translate(-317.31 1064.71) rotate(-34.48)"/><path class="cls-14" d="M1919,51C1667.61,93.11,131.77-7.29,0,51V0H1919Z"/><circle class="cls-15" cx="38.5" cy="47.5" r="31"/><circle class="cls-15" cx="109.5" cy="30.5" r="31"/><circle class="cls-15" cx="201.5" cy="30.5" r="31"/><circle class="cls-15" cx="185.5" cy="47.5" r="31"/><circle class="cls-15" cx="110.5" cy="85.5" r="31"/><circle class="cls-15" cx="268.5" cy="47.5" r="31"/><circle class="cls-15" cx="131.5" cy="30.5" r="31"/><circle class="cls-15" cx="305.5" cy="47.5" r="31"/><circle class="cls-15" cx="1438.5" cy="47.5" r="31"/><circle class="cls-15" cx="1543.5" cy="47.5" r="31"/><circle class="cls-15" cx="1584.5" cy="78.5" r="31"/><circle class="cls-15" cx="1407.5" cy="78.5" r="31"/><circle class="cls-15" cx="1353.5" cy="47.5" r="31"/><circle class="cls-15" cx="1487.5" cy="61.5" r="31"/><circle class="cls-15" cx="1584.5" cy="47.5" r="31"/><circle class="cls-15" cx="1659.5" cy="47.5" r="31"/><circle class="cls-15" cx="1615.5" cy="47.5" r="31"/><circle class="cls-15" cx="1848.5" cy="30.5" r="31"/><circle class="cls-15" cx="1873.5" cy="54.5" r="31"/><circle class="cls-15" cx="1763.5" cy="47.5" r="31"/><circle class="cls-15" cx="1701.5" cy="61.5" r="31"/><circle class="cls-15" cx="1807.5" cy="78.5" r="31"/><circle class="cls-15" cx="510.5" cy="78.5" r="31"/><circle class="cls-15" cx="467.5" cy="47.5" r="31"/><circle class="cls-15" cx="431.5" cy="42.5" r="31"/><circle class="cls-15" cx="731.5" cy="30.5" r="31"/><circle class="cls-15" cx="786.5" cy="47.5" r="31"/><circle class="cls-15" cx="826.5" cy="30.5" r="31"/><circle class="cls-15" cx="855.5" cy="70.5" r="31"/><circle class="cls-15" cx="886.5" cy="39.5" r="31"/><circle class="cls-15" cx="934.5" cy="30.5" r="31"/><circle class="cls-15" cx="965.5" cy="61.5" r="31"/><circle class="cls-15" cx="1019.5" cy="30.5" r="31"/><circle class="cls-15" cx="1050.5" cy="39.5" r="31"/><circle class="cls-15" cx="1135.5" cy="70.5" r="31"/><circle class="cls-15" cx="1104.5" cy="61.5" r="31"/><circle class="cls-15" cx="1152.5" cy="47.5" r="31"/><circle class="cls-15" cx="1198.5" cy="61.5" r="31"/><circle class="cls-15" cx="377.5" cy="30.5" r="31"/><circle class="cls-15" cx="1260.5" cy="47.5" r="31"/><circle class="cls-15" cx="1281.5" cy="70.5" r="31"/><circle class="cls-15" cx="1322.5" cy="39.5" r="31"/><circle class="cls-15" cx="1670.5" cy="108.5" r="12"/><circle class="cls-15" cx="476.5" cy="86.5" r="9"/><circle class="cls-15" cx="1513" cy="92" r="15.5"/><ellipse class="cls-15" cx="1480.5" cy="109" rx="8" ry="12.5"/><circle class="cls-15" cx="610" cy="89" r="15.5"/><circle class="cls-15" cx="351" cy="58" r="15.5"/><circle class="cls-15" cx="907" cy="74" r="15.5"/><circle class="cls-15" cx="1889" cy="86" r="15.5"/><ellipse class="cls-15" cx="724" cy="101.5" rx="15.5" ry="22"/><circle class="cls-15" cx="1134" cy="136" r="18.5"/><circle class="cls-15" cx="58" cy="102" r="15.5"/><ellipse class="cls-15" cx="824.5" cy="93" rx="4" ry="7.5"/><circle class="cls-15" cx="561" cy="93" r="18.5"/><circle class="cls-15" cx="1764" cy="109" r="6.5"/><circle class="cls-15" cx="557.5" cy="39.5" r="31"/><circle class="cls-15" cx="592.5" cy="47.5" r="31"/><circle class="cls-15" cx="656.5" cy="39.5" r="31"/><circle class="cls-15" cx="656.5" cy="30.5" r="31"/><circle class="cls-15" cx="693.5" cy="70.5" r="31"/><circle class="cls-15" cx="507.5" cy="30.5" r="31"/><rect class="cls-16" x="633" y="190.01" width="819" height="422.99" rx="48.28"/><rect class="cls-17" x="657.81" y="237.27" width="768.67" height="321.38" rx="34.59"/><path class="cls-18" d="M791.54,343.71a26.27,26.27,0,0,1-6.45,5.72,41.88,41.88,0,0,1-8.22,4.05,51.66,51.66,0,0,1-9,2.42,50.85,50.85,0,0,1-8.78.81,37.54,37.54,0,0,1-14.83-2.89,35.38,35.38,0,0,1-11.69-8,36.78,36.78,0,0,1-7.69-12,39.29,39.29,0,0,1-2.78-14.83,51.05,51.05,0,0,1,5.36-22.8,45.62,45.62,0,0,1,6.31-9.44,40.5,40.5,0,0,1,8.44-7.41,39.75,39.75,0,0,1,10.33-4.84,40.93,40.93,0,0,1,12-1.72c1.6,0,3.3.07,5.11.2s3.62.35,5.42.66a38.74,38.74,0,0,1,5.25,1.31,24.41,24.41,0,0,1,4.66,2.05l-1.55,21.22A27.91,27.91,0,0,0,777,296.7a51.26,51.26,0,0,0-6.47-.42,24.7,24.7,0,0,0-8.3,1.36,19.9,19.9,0,0,0-6.72,3.92,18.34,18.34,0,0,0-4.53,6.22,21.09,21.09,0,0,0-.89,13.85,14.54,14.54,0,0,0,2.36,4.78,12.12,12.12,0,0,0,3.95,3.36,11.3,11.3,0,0,0,5.47,1.28,18.24,18.24,0,0,0,4.36-.56,9.56,9.56,0,0,0,3.86-1.89l.22-4.33L757,324.05l.67-16.66q8.26-.28,16.55-.47t16.66-.53Z"/><path class="cls-18" d="M865.79,350.26l-27.55,3.56-3.33-12.55H822.25l-2.78,12.55L791.15,351l22.1-74,30.88-1.55Zm-32.88-26-4.22-19.33-4.11,19.33Z"/><path class="cls-18" d="M952.82,274.06l-5.11,81.53-25.33,1.12.23-43-11.44,34.65h-9.78l-8.77-31-.12,36-25.65.78L868,277.4l28.54-1.11,11.33,36.76,15.11-39Z"/><path class="cls-18" d="M1009.47,275c-.22,3.48-.43,6.93-.61,10.33s-.43,6.85-.72,10.33l-23.55,1.22-.56,7h16.55l-1.22,17.22-16.66.55-.56,8.11h23.55q-.33,6.12-.69,12.14t-.64,12.08L956.48,355,958.26,275Z"/><path class="cls-18" d="M1102.22,315.83a40.17,40.17,0,0,1-1.17,9.75,38.34,38.34,0,0,1-3.36,8.8,36.19,36.19,0,0,1-5.33,7.52,33.82,33.82,0,0,1-7,5.86,34.58,34.58,0,0,1-8.53,3.81,34.23,34.23,0,0,1-9.77,1.36,35,35,0,0,1-9.53-1.28,35.94,35.94,0,0,1-8.47-3.58,34.06,34.06,0,0,1-7.13-5.55,34.65,34.65,0,0,1-5.45-7.23,37.23,37.23,0,0,1-3.5-8.52,35.87,35.87,0,0,1-1.25-9.5,38.82,38.82,0,0,1,4.53-18.21,37.92,37.92,0,0,1,5.3-7.56,35.55,35.55,0,0,1,7-5.94,33.57,33.57,0,0,1,8.36-3.89,32.24,32.24,0,0,1,9.5-1.39,41.55,41.55,0,0,1,14.69,2.5,31.16,31.16,0,0,1,18.61,18.36A39.94,39.94,0,0,1,1102.22,315.83Zm-24.66,1.44a15.33,15.33,0,0,0-.7-4.63,12.56,12.56,0,0,0-2-4,10.44,10.44,0,0,0-3.31-2.84,9.24,9.24,0,0,0-4.52-1.08,11.07,11.07,0,0,0-4.67.95,10.57,10.57,0,0,0-3.53,2.58,11.37,11.37,0,0,0-2.25,3.83,14,14,0,0,0-.77,4.64,17,17,0,0,0,.66,4.66,13.8,13.8,0,0,0,2,4.22,10.63,10.63,0,0,0,3.31,3.06,8.79,8.79,0,0,0,4.58,1.16,10.35,10.35,0,0,0,8.22-3.8,12.83,12.83,0,0,0,2.22-4A14.42,14.42,0,0,0,1077.56,317.27Z"/><path class="cls-18" d="M1170.75,277.17l-20.33,77.31L1122.88,356l-25-78.09,26.32-2.44,10.66,45.54,10.33-45.54Z"/><path class="cls-18" d="M1225.12,275c-.22,3.48-.42,6.93-.61,10.33s-.42,6.85-.72,10.33l-23.55,1.22-.55,7h16.55L1215,321.05l-16.67.55-.55,8.11h23.55q-.33,6.12-.7,12.14t-.64,12.08L1172.14,355l1.78-80.09Z"/><path class="cls-18" d="M1292.1,301.5a37.87,37.87,0,0,1-.75,7.86,23.42,23.42,0,0,1-2.36,6.47,23,23,0,0,1-4.16,5.44,37.13,37.13,0,0,1-6.17,4.78l13.22,23.55-25,4.88-8.55-23.66-6.89.23-1,23.1h-23.88q.27-12.66.53-25.21t.58-25.22q.1-6.39.22-12.66c.07-4.18.22-8.41.45-12.66a71,71,0,0,1,15.24-3.86q3.81-.54,7.72-.73t8-.19a42.77,42.77,0,0,1,12.24,1.75,31.91,31.91,0,0,1,10.47,5.25,26.19,26.19,0,0,1,7.3,8.72A25.63,25.63,0,0,1,1292.1,301.5Zm-24.88,1.78a13.53,13.53,0,0,0-.64-4.28,9.44,9.44,0,0,0-1.88-3.36,8.77,8.77,0,0,0-3.12-2.22,10.82,10.82,0,0,0-4.35-.81,17,17,0,0,0-2.17.14,15.66,15.66,0,0,0-2.06.42l-.88,20.66h1.33a20.1,20.1,0,0,0,4.86-.61,14.52,14.52,0,0,0,4.44-1.89,10.29,10.29,0,0,0,3.22-3.28A8.74,8.74,0,0,0,1267.22,303.28Z"/><path class="cls-18" d="M1323.15,272.51l-4.55,58.43h-20.55l-2.11-58.43ZM1319.48,348a11,11,0,0,1-.94,4.56,12.3,12.3,0,0,1-2.53,3.69,11.8,11.8,0,0,1-3.69,2.5,11.71,11.71,0,0,1-9,0,12,12,0,0,1-3.7-2.5,12.21,12.21,0,0,1-2.5-3.69,11.36,11.36,0,0,1-.91-4.56,11.55,11.55,0,0,1,.91-4.55,11.79,11.79,0,0,1,2.5-3.75,12.22,12.22,0,0,1,3.7-2.53,11.36,11.36,0,0,1,9,0,12.06,12.06,0,0,1,3.69,2.53,11.86,11.86,0,0,1,2.53,3.75A11.24,11.24,0,0,1,1319.48,348Z"/><path class="cls-16" d="M1177.12,690.84H861.73a28.17,28.17,0,0,1-28.09-28.09v-57.6a28.17,28.17,0,0,1,28.09-28.09h315.38a28.17,28.17,0,0,1,28.09,28.09v57.6A28.17,28.17,0,0,1,1177.12,690.84Z"/><path class="cls-17" d="M1173.5,676.22H865a20.19,20.19,0,0,1-20.12-20.12V609.91A20.19,20.19,0,0,1,865,589.79H1173.5a20.19,20.19,0,0,1,20.12,20.12V656.1A20.17,20.17,0,0,1,1173.5,676.22Z"/><g class="cls-19"><path class="cls-20" d="M900.44,615.67l-.3,12.74-8.95.36-2.28,28.47-12.68.66.06-28.47-8.95.48.36-14.17Z"/><path class="cls-20" d="M937.29,629.67a20.53,20.53,0,0,1-.4,4.25,12.81,12.81,0,0,1-1.28,3.5,12.51,12.51,0,0,1-2.25,2.94A20.24,20.24,0,0,1,930,643l7.15,12.73-13.51,2.64L919,645.53l-3.72.12-.54,12.49H901.85q.15-6.84.29-13.63t.31-13.64q.06-3.45.12-6.85t.24-6.84a42.82,42.82,0,0,1,4.15-1.3,39,39,0,0,1,4.1-.79q2.06-.29,4.17-.39c1.41-.07,2.86-.11,4.34-.11a23.31,23.31,0,0,1,6.63.95,17.31,17.31,0,0,1,5.66,2.84,14.34,14.34,0,0,1,3.95,4.71A14,14,0,0,1,937.29,629.67Zm-13.45,1a7.36,7.36,0,0,0-.35-2.31,5.15,5.15,0,0,0-1-1.82,4.69,4.69,0,0,0-1.68-1.2,5.92,5.92,0,0,0-2.36-.43,9,9,0,0,0-1.17.07,8.09,8.09,0,0,0-1.11.23l-.48,11.17h.72A11,11,0,0,0,919,636a7.83,7.83,0,0,0,2.4-1,5.58,5.58,0,0,0,1.74-1.78A4.77,4.77,0,0,0,923.84,630.63Z"/><path class="cls-20" d="M975.77,618,961.65,641l.42,17H946.63l.36-16.88-11-22.28,15.32-1.92,4.8,13,5.23-13Z"/><path class="cls-20" d="M1025.86,656,1011,658l-1.8-6.79h-6.84l-1.51,6.79-15.31-1.5,12-40,16.7-.84ZM1008.08,642l-2.28-10.45L1003.58,642Z"/><path class="cls-20" d="M1062.05,651.9a14.07,14.07,0,0,1-3.48,3.09,22.72,22.72,0,0,1-4.45,2.19,28.13,28.13,0,0,1-4.86,1.31,27.66,27.66,0,0,1-4.75.43,21.39,21.39,0,0,1-8-1.47A18.54,18.54,0,0,1,1026,647.09a20.59,20.59,0,0,1-1.5-7.93,27,27,0,0,1,.75-6.37,25.85,25.85,0,0,1,2.15-5.79,23.88,23.88,0,0,1,3.41-5,21.53,21.53,0,0,1,10.16-6.38,23.16,23.16,0,0,1,6.48-.89c.86,0,1.78,0,2.76.11a28.93,28.93,0,0,1,2.93.36,19.66,19.66,0,0,1,2.84.71,13.15,13.15,0,0,1,2.52,1.11l-.84,11.47a15.33,15.33,0,0,0-3.47-.86,28,28,0,0,0-3.5-.22,15.13,15.13,0,0,0-4.49.64,10.67,10.67,0,0,0-3.63,1.91,8.88,8.88,0,0,0-2.45,3.15,10.16,10.16,0,0,0-.9,4.39,10.85,10.85,0,0,0,.42,3,7.78,7.78,0,0,0,1.27,2.58,6.51,6.51,0,0,0,2.14,1.82,6.09,6.09,0,0,0,3,.69,9.85,9.85,0,0,0,2.36-.3,5.18,5.18,0,0,0,2.09-1l.12-2.35-7.21-.12.36-9c3-.1,6-.18,9-.25s6-.17,9-.29Z"/><path class="cls-20" d="M1102.21,656l-14.9,1.92-1.8-6.79h-6.85l-1.5,6.79-15.32-1.5,12-40,16.69-.84ZM1084.43,642l-2.28-10.45L1079.92,642Z"/><path class="cls-20" d="M1118.52,616.34l-2.11,40.9-12.67.66-1.2-40.72Z"/><path class="cls-20" d="M1158.22,643.43c0,2.26,0,4.5-.07,6.71s-.13,4.44-.23,6.68l-17.3-.3q.9-5.31,1.56-10.62a86.47,86.47,0,0,0,.66-10.7q0-.39,0-1.26c0-.59-.06-1.24-.12-2s-.14-1.48-.25-2.25a14.87,14.87,0,0,0-.45-2.12,6,6,0,0,0-.69-1.58,1.16,1.16,0,0,0-1-.61,2.58,2.58,0,0,0-1.73.6,4.72,4.72,0,0,0-1.17,1.54,9.78,9.78,0,0,0-.73,2.12,21.24,21.24,0,0,0-.41,2.34c-.09.78-.15,1.52-.18,2.21s0,1.26,0,1.7c-.11,3.54-.18,7.06-.25,10.55s-.14,7-.24,10.59l-15.31.66q.6-10.61,1.15-21.08t.89-21.09l14.18-.72-.12,4.81a19.3,19.3,0,0,1,1.81-1.92,11.9,11.9,0,0,1,2.09-1.55,11,11,0,0,1,2.36-1,9,9,0,0,1,2.63-.38,10.9,10.9,0,0,1,4.47.85,10.15,10.15,0,0,1,3.3,2.28,12.82,12.82,0,0,1,2.32,3.41,23.08,23.08,0,0,1,1.5,4.19,36.67,36.67,0,0,1,.87,4.64c.2,1.61.33,3.19.4,4.76s.11,3.07.11,4.53Z"/><path class="cls-20" d="M1175.76,614l-2.46,31.6h-11.12L1161,614Zm-2,40.85a6,6,0,0,1-.51,2.46,6.65,6.65,0,0,1-1.37,2,6.42,6.42,0,0,1-2,1.35,6,6,0,0,1-2.43.5,6.11,6.11,0,0,1-2.46-.5,6.33,6.33,0,0,1-3.35-3.35,6.11,6.11,0,0,1-.5-2.46,6.44,6.44,0,0,1,1.85-4.49,6.65,6.65,0,0,1,2-1.37,6,6,0,0,1,2.46-.51,5.88,5.88,0,0,1,2.43.51,6.65,6.65,0,0,1,2,1.37,6.43,6.43,0,0,1,1.37,2A6.09,6.09,0,0,1,1173.78,654.84Z"/></g><path class="cls-18" d="M737.71,374.64l-9,26.71.27,19.69H719l.23-19.55-7-25.8,9.82-2.23,3.07,15,3.35-15Z"/><path class="cls-18" d="M759.54,395.09a44.8,44.8,0,0,1-.4,6.11,38.24,38.24,0,0,1-1.16,5.51,28,28,0,0,1-1.85,4.71,17.24,17.24,0,0,1-2.45,3.67,10.74,10.74,0,0,1-2.95,2.39,7.2,7.2,0,0,1-6.69,0,10.59,10.59,0,0,1-2.94-2.25,16.63,16.63,0,0,1-2.47-3.47,25.45,25.45,0,0,1-1.89-4.52,36.06,36.06,0,0,1-1.21-5.34,39.58,39.58,0,0,1-.43-5.95,42.8,42.8,0,0,1,.4-5.93,37.33,37.33,0,0,1,1.17-5.48,28.37,28.37,0,0,1,1.83-4.73,18.24,18.24,0,0,1,2.42-3.72,10.74,10.74,0,0,1,2.9-2.44,6.64,6.64,0,0,1,3.29-.87,8.87,8.87,0,0,1,5.09,1.57,12.91,12.91,0,0,1,3.93,4.47,25.73,25.73,0,0,1,2.52,7A43.32,43.32,0,0,1,759.54,395.09ZM751,396a17.32,17.32,0,0,0-.24-2.91,11.33,11.33,0,0,0-.71-2.5,5.36,5.36,0,0,0-1.14-1.77,2.15,2.15,0,0,0-1.57-.68,2.45,2.45,0,0,0-1.62.59,4.86,4.86,0,0,0-1.22,1.62,9.39,9.39,0,0,0-.78,2.4,15,15,0,0,0-.27,2.9,19.15,19.15,0,0,0,.23,2.92,13,13,0,0,0,.7,2.65,5.8,5.8,0,0,0,1.14,1.91,2.12,2.12,0,0,0,1.59.73,2.45,2.45,0,0,0,1.63-.64,5.28,5.28,0,0,0,1.22-1.74,11.16,11.16,0,0,0,.77-2.52A16,16,0,0,0,751,396Z"/><path class="cls-18" d="M783.84,372.76Q783,385,782.36,397.13t-1.18,24.4l-7.89,1,.35-5.36a6.48,6.48,0,0,1-.9,1.4,4.8,4.8,0,0,1-1.09.95,4.13,4.13,0,0,1-2.37.65,4.16,4.16,0,0,1-2.46-.93,9.26,9.26,0,0,1-2.12-2.36,19,19,0,0,1-1.73-3.44,32.28,32.28,0,0,1-1.3-4.14,40.41,40.41,0,0,1-.81-4.44,37,37,0,0,1-.28-4.38c0-2.09,0-4.25.07-6.49s.13-4.48.24-6.73.27-4.47.45-6.68.42-4.31.71-6.33q2.34.21,4.71.39a46.54,46.54,0,0,0,4.72.1q-.45,3-.88,6.07t-.78,6.12c-.23,2.06-.41,4.11-.55,6.18s-.22,4.15-.22,6.26c0,.48,0,1.18,0,2.08s.1,1.8.2,2.68a12.36,12.36,0,0,0,.5,2.32q.35,1,1,1c.49,0,.92-.38,1.31-1.13a14.19,14.19,0,0,0,1-3.05c.29-1.27.55-2.75.76-4.41s.39-3.42.54-5.24.26-3.66.35-5.51.16-3.6.2-5.24.08-3.1.1-4.4,0-2.3,0-3c0-.47,0-.92,0-1.36s0-.89-.06-1.36c.84.05,1.66.09,2.49.11s1.64,0,2.48,0h1.93C782.53,372.88,783.18,372.83,783.84,372.76Z"/><path class="cls-18" d="M814.5,394.12a49.86,49.86,0,0,1-.69,8.73,33.14,33.14,0,0,1-1.93,6.83,20.39,20.39,0,0,1-3,5.07,16.67,16.67,0,0,1-3.75,3.42,15.29,15.29,0,0,1-4.34,2,18.27,18.27,0,0,1-4.73.62c-.6,0-1.19,0-1.77-.08s-1.17-.15-1.77-.26l.54-45.29a15.66,15.66,0,0,1,4.36-1.72,20,20,0,0,1,4.45-.51,9.71,9.71,0,0,1,5.07,1.39,12.2,12.2,0,0,1,4,4.09,22.09,22.09,0,0,1,2.61,6.65A39.85,39.85,0,0,1,814.5,394.12Zm-13.09,13.36a4.76,4.76,0,0,0,2.11-1.27,9,9,0,0,0,1.65-2.37,14,14,0,0,0,1.07-3.2,18.52,18.52,0,0,0,.37-3.81,28.58,28.58,0,0,0-.23-3.7,11.76,11.76,0,0,0-.75-3,5.3,5.3,0,0,0-1.37-2,3.34,3.34,0,0,0-2.08-.82Z"/><path class="cls-18" d="M825.74,372.76l-1.34,47.38-8.13.76-.77-47.16Z"/><path class="cls-18" d="M849.11,394.12a49.86,49.86,0,0,1-.69,8.73,33.14,33.14,0,0,1-1.93,6.83,20.39,20.39,0,0,1-3,5.07,16.67,16.67,0,0,1-3.75,3.42,15.29,15.29,0,0,1-4.34,2,18.27,18.27,0,0,1-4.73.62c-.6,0-1.19,0-1.77-.08s-1.17-.15-1.77-.26l.54-45.29a15.66,15.66,0,0,1,4.36-1.72,20,20,0,0,1,4.45-.51,9.71,9.71,0,0,1,5.07,1.39,12.11,12.11,0,0,1,4,4.09,22.09,22.09,0,0,1,2.61,6.65A39.85,39.85,0,0,1,849.11,394.12ZM836,407.48a4.76,4.76,0,0,0,2.11-1.27,8.76,8.76,0,0,0,1.65-2.37,13.51,13.51,0,0,0,1.07-3.2,18.52,18.52,0,0,0,.37-3.81,26.91,26.91,0,0,0-.23-3.7,11.76,11.76,0,0,0-.75-3,5.3,5.3,0,0,0-1.37-2,3.31,3.31,0,0,0-2.08-.82Z"/><path class="cls-18" d="M874.2,404.14q0,3.93-.05,7.77t-.15,7.74l-11.08-.35q.57-6.15,1-12.29t.42-12.4c0-.3,0-.79,0-1.46s0-1.44-.08-2.28-.09-1.72-.16-2.61-.17-1.71-.29-2.45a10.72,10.72,0,0,0-.44-1.83c-.17-.47-.38-.71-.63-.71a1.3,1.3,0,0,0-1.1.69,6.59,6.59,0,0,0-.75,1.8,17,17,0,0,0-.47,2.45c-.12.9-.21,1.81-.26,2.71s-.1,1.76-.12,2.56,0,1.45,0,2q-.09,6.17-.15,12.23t-.16,12.26l-9.81.76q.38-12.27.74-24.41t.56-24.42l9.09-.83-.08,5.56a21.07,21.07,0,0,1,1.17-2.22,9.58,9.58,0,0,1,1.34-1.8,6.13,6.13,0,0,1,1.51-1.18,3.44,3.44,0,0,1,1.68-.43,4.49,4.49,0,0,1,2.87,1,8.25,8.25,0,0,1,2.12,2.64,18.64,18.64,0,0,1,1.48,3.95,42,42,0,0,1,1,4.85c.25,1.72.43,3.51.56,5.38s.21,3.7.26,5.51.07,3.56.07,5.25Z"/><path class="cls-18" d="M883,377.84a20.63,20.63,0,0,1-.39,3.62,25.74,25.74,0,0,1-1.07,3.91,24.32,24.32,0,0,1-1.66,3.66,12.13,12.13,0,0,1-2.19,2.86s0-.29,0-.81,0-1.16,0-1.92,0-1.55-.06-2.41,0-1.63-.06-2.3a5.22,5.22,0,0,1-1.89-2.68,11.91,11.91,0,0,1-.69-4.14,12.09,12.09,0,0,1,.32-2.81,9.57,9.57,0,0,1,.86-2.32,5.57,5.57,0,0,1,1.28-1.58,2.4,2.4,0,0,1,3.15,0,5.43,5.43,0,0,1,1.29,1.58,9.58,9.58,0,0,1,.88,2.32,11.11,11.11,0,0,1,.3,2.81Z"/><path class="cls-18" d="M905,372.7l-.2,14.74-5.73.42-.7,32.28-8.12.76-.73-32.28-5.74.56.23-16.42Z"/><path class="cls-18" d="M936.24,389.67a28.89,28.89,0,0,1-.56,6,19.13,19.13,0,0,1-1.53,4.57,12.72,12.72,0,0,1-2.28,3.31,13,13,0,0,1-2.8,2.19A12,12,0,0,1,926,407a14.48,14.48,0,0,1-3.14.44v14.81h-9q0-4,0-7.72c0-2.5,0-5,0-7.46s0-5,0-7.46,0-5.09,0-7.75q0-4.24,0-8.49c0-2.83,0-5.68.09-8.56a23.32,23.32,0,0,1,4.93-2,19.56,19.56,0,0,1,5.08-.66,10.51,10.51,0,0,1,3,.43,9.81,9.81,0,0,1,2.84,1.38,12.81,12.81,0,0,1,2.52,2.34,13.73,13.73,0,0,1,2,3.36,21.41,21.41,0,0,1,1.34,4.45A28.86,28.86,0,0,1,936.24,389.67Zm-8.55,1.18a6.86,6.86,0,0,0-.76-3.53,2.23,2.23,0,0,0-2-1.27,3.15,3.15,0,0,0-.84.12,5.32,5.32,0,0,0-.82.3l-.23,10.15a2,2,0,0,0,.52.07h.52a2.5,2.5,0,0,0,1.34-.41,4,4,0,0,0,1.15-1.2,6.79,6.79,0,0,0,.79-1.85A8.7,8.7,0,0,0,927.69,390.85Z"/><path class="cls-18" d="M947.39,372.76,946,420.14l-8.13.76-.77-47.16Z"/><path class="cls-18" d="M967.31,374.23l-.69,14.67a4.65,4.65,0,0,0-1.1-.38,5.77,5.77,0,0,0-1.1-.1,5.7,5.7,0,0,0-2.61.62,6.28,6.28,0,0,0-2.19,1.92,10,10,0,0,0-1.52,3.25,16.77,16.77,0,0,0-.57,4.64,16,16,0,0,0,.32,3.39,7.81,7.81,0,0,0,.9,2.4,4,4,0,0,0,1.43,1.44,3.57,3.57,0,0,0,1.86.49,4.29,4.29,0,0,0,1.46-.26,7.83,7.83,0,0,0,1.5-.71,10.16,10.16,0,0,0,1.44-1.05,11.76,11.76,0,0,0,1.29-1.25l-.3,16.35a10.64,10.64,0,0,1-1.62,1.23,13.2,13.2,0,0,1-1.78.94,10.08,10.08,0,0,1-1.83.61,7.78,7.78,0,0,1-1.74.21,7.64,7.64,0,0,1-5-1.84,15.42,15.42,0,0,1-3.85-5,30.08,30.08,0,0,1-2.49-7.39,43.52,43.52,0,0,1-.89-9,59.48,59.48,0,0,1,.9-10.65,33.52,33.52,0,0,1,2.63-8.57,16.15,16.15,0,0,1,4.32-5.7,9.13,9.13,0,0,1,5.9-2.07,9.76,9.76,0,0,1,2.69.38A7.07,7.07,0,0,1,967.31,374.23Z"/><path class="cls-18" d="M992.82,376.8l-8.51,18.29L992.12,419l-8.93,2.86-5.85-14.33L977,421.18l-8,.56.62-49.81,9,.9-.69,14.33,5.58-14.53Z"/><path class="cls-18" d="M991.74,402.54l-.08-10.44,12.44-1,.07,11.9Z"/><path class="cls-18" d="M1029.41,372.76q-.87,12.25-1.48,24.37t-1.18,24.4l-7.89,1,.35-5.36a6.48,6.48,0,0,1-.9,1.4,4.8,4.8,0,0,1-1.09.95,3.79,3.79,0,0,1-1.19.52,3.72,3.72,0,0,1-1.17.13,4.16,4.16,0,0,1-2.47-.93,9.23,9.23,0,0,1-2.11-2.36,19,19,0,0,1-1.74-3.44,33.94,33.94,0,0,1-1.3-4.14,38.16,38.16,0,0,1-.8-4.44,34.94,34.94,0,0,1-.28-4.38q0-3.13.06-6.49c0-2.23.13-4.48.24-6.73s.27-4.47.46-6.68.42-4.31.7-6.33c1.56.14,3.14.27,4.72.39a46.34,46.34,0,0,0,4.71.1c-.29,2-.59,4-.87,6.07s-.55,4.07-.78,6.12-.42,4.11-.56,6.18-.21,4.15-.21,6.26c0,.48,0,1.18,0,2.08s.1,1.8.21,2.68a11.61,11.61,0,0,0,.5,2.32c.22.66.54,1,1,1s.92-.38,1.31-1.13a14.19,14.19,0,0,0,1-3.05c.29-1.27.55-2.75.76-4.41s.39-3.42.54-5.24.27-3.66.35-5.51.16-3.6.21-5.24.07-3.1.09-4.4,0-2.3,0-3c0-.47,0-.92,0-1.36s0-.89-.05-1.36c.83.05,1.66.09,2.48.11s1.65,0,2.48,0h1.94C1028.1,372.88,1028.76,372.83,1029.41,372.76Z"/><path class="cls-18" d="M1053,389.67a28.22,28.22,0,0,1-.56,6,19.13,19.13,0,0,1-1.53,4.57,12.72,12.72,0,0,1-2.28,3.31,13,13,0,0,1-2.8,2.19,11.73,11.73,0,0,1-3.09,1.25,14.39,14.39,0,0,1-3.14.44v14.81h-9c0-2.64,0-5.21,0-7.72s0-5,0-7.46,0-5,0-7.46,0-5.09,0-7.75c0-2.83,0-5.66,0-8.49s0-5.68.1-8.56a23,23,0,0,1,4.92-2,19.63,19.63,0,0,1,5.09-.66,10.5,10.5,0,0,1,3,.43,9.81,9.81,0,0,1,2.84,1.38,12.81,12.81,0,0,1,2.52,2.34,13.73,13.73,0,0,1,2,3.36,21.41,21.41,0,0,1,1.34,4.45A28.86,28.86,0,0,1,1053,389.67Zm-8.55,1.18a6.86,6.86,0,0,0-.76-3.53,2.23,2.23,0,0,0-2-1.27,3.15,3.15,0,0,0-.84.12,4.85,4.85,0,0,0-.81.3l-.24,10.15a2,2,0,0,0,.52.07h.52a2.47,2.47,0,0,0,1.34-.41,4,4,0,0,0,1.15-1.2,7.12,7.12,0,0,0,.8-1.85A9.13,9.13,0,0,0,1044.44,390.85Z"/><path class="cls-18" d="M1083.27,393.63q0,3-.23,6.06a46.18,46.18,0,0,0-6.54,1.23l-6.51,1.69a10.32,10.32,0,0,0,1.57,4,3.09,3.09,0,0,0,2.55,1.49,3.42,3.42,0,0,0,1.68-.52,11.58,11.58,0,0,0,1.82-1.3,21.21,21.21,0,0,0,1.73-1.69c.56-.6,1-1.15,1.43-1.63l-.92,15.79a10.35,10.35,0,0,1-1.63,1.77,8.66,8.66,0,0,1-3.73,1.84,8.81,8.81,0,0,1-1.88.21,6.69,6.69,0,0,1-3.49-.94,10.17,10.17,0,0,1-2.86-2.62,18.46,18.46,0,0,1-2.24-4,32.57,32.57,0,0,1-1.6-5,49.05,49.05,0,0,1-1-5.74,56.48,56.48,0,0,1-.33-6.12,63.57,63.57,0,0,1,.33-6.47,54.4,54.4,0,0,1,1-6.23,37.24,37.24,0,0,1,1.68-5.55,21.36,21.36,0,0,1,2.36-4.47,10.8,10.8,0,0,1,3-3,6.87,6.87,0,0,1,3.76-1.08,5.94,5.94,0,0,1,3.13.86,8.62,8.62,0,0,1,2.52,2.36,16.06,16.06,0,0,1,1.93,3.6,29.61,29.61,0,0,1,1.34,4.57A43.66,43.66,0,0,1,1083,388C1083.19,389.86,1083.27,391.73,1083.27,393.63Zm-7.7-1.8a19.61,19.61,0,0,0-.11-2,10.64,10.64,0,0,0-.38-1.87,4.28,4.28,0,0,0-.68-1.37,1.31,1.31,0,0,0-1.06-.54,1.71,1.71,0,0,0-1.36.75,6.92,6.92,0,0,0-1,1.88,16.43,16.43,0,0,0-.69,2.45c-.18.88-.32,1.69-.41,2.43l5.7-1Z"/><path class="cls-18" d="M1108.41,404.14c0,2.62,0,5.21-.05,7.77s-.08,5.14-.14,7.74l-11.09-.35q.58-6.15,1-12.29t.43-12.4c0-.3,0-.79,0-1.46s0-1.44-.08-2.28-.09-1.72-.16-2.61-.17-1.71-.29-2.45a9.77,9.77,0,0,0-.45-1.83c-.17-.47-.38-.71-.62-.71a1.31,1.31,0,0,0-1.11.69,6.59,6.59,0,0,0-.75,1.8,18.42,18.42,0,0,0-.47,2.45c-.12.9-.2,1.81-.26,2.71s-.1,1.76-.12,2.56,0,1.45,0,2q-.11,6.17-.16,12.23t-.15,12.26l-9.82.76q.39-12.27.74-24.41t.57-24.42l9.09-.83-.08,5.56a23.08,23.08,0,0,1,1.16-2.22,10.53,10.53,0,0,1,1.34-1.8,6.53,6.53,0,0,1,1.51-1.18,3.48,3.48,0,0,1,1.69-.43,4.46,4.46,0,0,1,2.86,1,8.11,8.11,0,0,1,2.12,2.64,18.11,18.11,0,0,1,1.48,3.95,44.24,44.24,0,0,1,1,4.85c.24,1.72.43,3.51.55,5.38s.22,3.7.26,5.51.07,3.56.07,5.25Z"/><path class="cls-18" d="M1134,395.09a44.8,44.8,0,0,1-.4,6.11,38.24,38.24,0,0,1-1.16,5.51,28,28,0,0,1-1.85,4.71,17.24,17.24,0,0,1-2.45,3.67,10.74,10.74,0,0,1-3,2.39,7.2,7.2,0,0,1-6.69,0,10.59,10.59,0,0,1-2.94-2.25,16.63,16.63,0,0,1-2.47-3.47,25.45,25.45,0,0,1-1.89-4.52A36.06,36.06,0,0,1,1110,402a39.58,39.58,0,0,1-.43-5.95,42.8,42.8,0,0,1,.4-5.93,37.33,37.33,0,0,1,1.17-5.48,29.27,29.27,0,0,1,1.83-4.73,18.24,18.24,0,0,1,2.42-3.72,10.74,10.74,0,0,1,2.9-2.44,6.64,6.64,0,0,1,3.29-.87,8.87,8.87,0,0,1,5.09,1.57,12.91,12.91,0,0,1,3.93,4.47,25.73,25.73,0,0,1,2.52,7A43.32,43.32,0,0,1,1134,395.09Zm-8.54.91a17.32,17.32,0,0,0-.24-2.91,11.33,11.33,0,0,0-.71-2.5,5.36,5.36,0,0,0-1.14-1.77,2.15,2.15,0,0,0-1.57-.68,2.45,2.45,0,0,0-1.62.59,4.86,4.86,0,0,0-1.22,1.62,9.39,9.39,0,0,0-.78,2.4,15,15,0,0,0-.27,2.9,19.15,19.15,0,0,0,.23,2.92,13,13,0,0,0,.7,2.65,6,6,0,0,0,1.14,1.91,2.12,2.12,0,0,0,1.59.73,2.45,2.45,0,0,0,1.63-.64,5.28,5.28,0,0,0,1.22-1.74,11.16,11.16,0,0,0,.77-2.52A16,16,0,0,0,1125.47,396Z"/><path class="cls-18" d="M1158.31,372.76q-.87,12.25-1.48,24.37t-1.18,24.4l-7.89,1,.35-5.36a6.48,6.48,0,0,1-.9,1.4,4.8,4.8,0,0,1-1.09.95,3.79,3.79,0,0,1-1.19.52,3.72,3.72,0,0,1-1.17.13,4.16,4.16,0,0,1-2.47-.93,9.45,9.45,0,0,1-2.12-2.36,19,19,0,0,1-1.73-3.44,32.28,32.28,0,0,1-1.3-4.14,40.41,40.41,0,0,1-.81-4.44,37,37,0,0,1-.28-4.38c0-2.09,0-4.25.07-6.49s.13-4.48.24-6.73.27-4.47.45-6.68.42-4.31.71-6.33q2.34.21,4.71.39a46.54,46.54,0,0,0,4.72.1q-.45,3-.88,6.07c-.29,2-.54,4.07-.78,6.12s-.41,4.11-.55,6.18-.22,4.15-.22,6.26c0,.48,0,1.18,0,2.08s.1,1.8.2,2.68a11.58,11.58,0,0,0,.51,2.32c.22.66.54,1,1,1s.92-.38,1.31-1.13a14.19,14.19,0,0,0,1-3.05c.29-1.27.55-2.75.76-4.41s.39-3.42.54-5.24.26-3.66.35-5.51.16-3.6.21-5.24.07-3.1.09-4.4,0-2.3,0-3c0-.47,0-.92,0-1.36s0-.89-.06-1.36c.84.05,1.66.09,2.49.11s1.65,0,2.48,0h1.93C1157,372.88,1157.65,372.83,1158.31,372.76Z"/><path class="cls-18" d="M1182.45,414a14.29,14.29,0,0,1-5.08,6.12,12.79,12.79,0,0,1-3.12,1.51,10,10,0,0,1-3,.5,8.5,8.5,0,0,1-5.14-1.7,14.52,14.52,0,0,1-4.06-4.75,27.34,27.34,0,0,1-2.66-7.25,41.26,41.26,0,0,1-1-9.18,55.31,55.31,0,0,1,.48-7.37,48.35,48.35,0,0,1,1.37-6.72,34.59,34.59,0,0,1,2.19-5.74,20.76,20.76,0,0,1,2.92-4.48,12.48,12.48,0,0,1,3.59-2.91,8.88,8.88,0,0,1,4.15-1,14.1,14.1,0,0,1,1.77.12,10.39,10.39,0,0,1,1.88.42,8.38,8.38,0,0,1,1.82.81,7.66,7.66,0,0,1,1.62,1.29l-.54,13.29a6.62,6.62,0,0,0-2.23-1,10.28,10.28,0,0,0-2.24-.26,5.81,5.81,0,0,0-2.88.75,7,7,0,0,0-2.33,2.21,11.71,11.71,0,0,0-1.56,3.65,19.83,19.83,0,0,0-.58,5.08,22.16,22.16,0,0,0,.27,3.5,12.87,12.87,0,0,0,.82,3,6.26,6.26,0,0,0,1.36,2.1,2.66,2.66,0,0,0,1.9.8,3.56,3.56,0,0,0,1.51-.35,3.18,3.18,0,0,0,1.34-1.18l.07-2.71-4.62-.14.24-10.44q2.86-.17,5.73-.29t5.78-.33Z"/><path class="cls-18" d="M1206.76,420.34l-9.62.84-.08-14.68h-4.43l-.27,15.24h-8.62l.73-48.91,9.16.77-.58,25h4.28l0-26.15,8.77.41Z"/><path class="cls-18" d="M1236.68,372.7l-.2,14.74-5.73.42-.7,32.28-8.12.76-.73-32.28-5.74.56.23-16.42Z"/><path class="cls-18" d="M1260.33,388.21a40.86,40.86,0,0,1-.26,4.92,23.4,23.4,0,0,1-.81,4.05,17.15,17.15,0,0,1-1.45,3.41,17.67,17.67,0,0,1-2.14,3l4.59,14.75-8.67,3.06-3-14.82-2.39.14-.34,14.47h-8.28q.09-7.94.18-15.79t.2-15.79c0-2.67,0-5.31.08-7.93s.08-5.26.15-7.93a19.5,19.5,0,0,1,2.66-1.5,15.83,15.83,0,0,1,2.63-.92,17.31,17.31,0,0,1,2.67-.45q1.36-.12,2.79-.12a8.89,8.89,0,0,1,4.24,1.09,10.71,10.71,0,0,1,3.63,3.29,17.72,17.72,0,0,1,2.53,5.46A27.18,27.18,0,0,1,1260.33,388.21Zm-8.62,1.11a14.83,14.83,0,0,0-.22-2.68,8.11,8.11,0,0,0-.66-2.1,3.85,3.85,0,0,0-1.07-1.39,2.38,2.38,0,0,0-1.52-.51,3.2,3.2,0,0,0-.75.09,3.79,3.79,0,0,0-.71.26l-.31,12.94h.47a4.17,4.17,0,0,0,1.68-.38,4.42,4.42,0,0,0,1.54-1.19,6.32,6.32,0,0,0,1.12-2.05A9.4,9.4,0,0,0,1251.71,389.32Z"/><path class="cls-18" d="M1285.94,418.75l-9.55,2.22-1.16-7.86h-4.39l-1,7.86-9.82-1.74,7.67-46.33,10.7-1Zm-11.4-16.28-1.46-12.11-1.43,12.11Z"/><path class="cls-18" d="M1306.07,403.93a32.38,32.38,0,0,1-.91,8.22,17.63,17.63,0,0,1-2.51,5.71,9.78,9.78,0,0,1-8.28,4.36,5.62,5.62,0,0,1-2.07-.45,17.21,17.21,0,0,1-2.28-1.13c-.77-.45-1.51-.94-2.23-1.46s-1.34-1-1.89-1.48l.84-13.63a11.43,11.43,0,0,0,3.63,2.69,9.23,9.23,0,0,0,3.92.92,7.78,7.78,0,0,0,.89-.05,2.6,2.6,0,0,0,1-.31,2.29,2.29,0,0,0,.8-.78,2.93,2.93,0,0,0,.32-1.5,2.45,2.45,0,0,0-.23-1.13,2.16,2.16,0,0,0-.59-.76,2.8,2.8,0,0,0-.83-.46,5.23,5.23,0,0,0-.91-.22,4.86,4.86,0,0,0-.82-.07h-.62a5.21,5.21,0,0,1-3-.94,7.83,7.83,0,0,1-2.33-2.66,15,15,0,0,1-1.51-4.18,25.25,25.25,0,0,1-.54-5.44,27.13,27.13,0,0,1,.91-7.35,19.24,19.24,0,0,1,2.45-5.54,11.65,11.65,0,0,1,3.51-3.49,7.75,7.75,0,0,1,4.1-1.22,16.16,16.16,0,0,1,1.94.12,11.73,11.73,0,0,1,2,.44,11.92,11.92,0,0,1,1.93.8,8.73,8.73,0,0,1,1.79,1.22l-.73,14.12a15.79,15.79,0,0,0-2.74-1.34,7.94,7.94,0,0,0-2.8-.54l-.65,0a5.06,5.06,0,0,0-.83.1,5.75,5.75,0,0,0-.87.26,2.71,2.71,0,0,0-.79.47,2.17,2.17,0,0,0-.56.78,2.6,2.6,0,0,0-.19,1.15,2,2,0,0,0,.32,1.18,1.6,1.6,0,0,0,.77.61,2.66,2.66,0,0,0,1,.19,10.56,10.56,0,0,0,1.13-.05l1-.1a3.61,3.61,0,0,1,.79,0,5.25,5.25,0,0,1,2.77,1.18,8.41,8.41,0,0,1,2.09,2.68,15,15,0,0,1,1.31,4A26.81,26.81,0,0,1,1306.07,403.93Z"/><path class="cls-18" d="M1330.15,420.34l-9.62.84-.08-14.68H1316l-.27,15.24h-8.62l.73-48.91,9.16.77-.57,25h4.27l0-26.15,8.78.41Z"/><path class="cls-18" d="M762.23,454.33,762,471.38l-5.94.48-.71,37.31-8.4.88-.76-37.3-5.93.64.24-19Z"/><path class="cls-18" d="M787.59,480.22a57.61,57.61,0,0,1-.42,7.06,47.07,47.07,0,0,1-1.21,6.37,34.11,34.11,0,0,1-1.91,5.45,20.57,20.57,0,0,1-2.52,4.24,11.33,11.33,0,0,1-3.06,2.75,6.7,6.7,0,0,1-6.91.06,11.35,11.35,0,0,1-3-2.59,19,19,0,0,1-2.55-4,30,30,0,0,1-2-5.23,45.11,45.11,0,0,1-1.26-6.17,50.61,50.61,0,0,1-.45-6.87,55,55,0,0,1,.42-6.85,47.52,47.52,0,0,1,1.21-6.34,34.59,34.59,0,0,1,1.9-5.46,21.42,21.42,0,0,1,2.49-4.31,11.58,11.58,0,0,1,3-2.81,6.32,6.32,0,0,1,3.4-1A8.52,8.52,0,0,1,780,456.3a14.46,14.46,0,0,1,4.06,5.17,31.76,31.76,0,0,1,2.61,8.12A55.71,55.71,0,0,1,787.59,480.22Zm-8.84,1a21.78,21.78,0,0,0-.25-3.36,14.53,14.53,0,0,0-.72-2.89,6.37,6.37,0,0,0-1.19-2,2.11,2.11,0,0,0-1.62-.79,2.38,2.38,0,0,0-1.67.69,5.73,5.73,0,0,0-1.27,1.87,11.64,11.64,0,0,0-.8,2.77,19,19,0,0,0-.28,3.36,23.87,23.87,0,0,0,.24,3.37,16,16,0,0,0,.72,3.06,6.86,6.86,0,0,0,1.18,2.21,2.1,2.1,0,0,0,1.64.84,2.3,2.3,0,0,0,1.68-.74,5.94,5.94,0,0,0,1.27-2,13.62,13.62,0,0,0,.79-2.91A20.07,20.07,0,0,0,778.75,481.27Z"/><path class="cls-18" d="M820.1,496.71a24.12,24.12,0,0,1-.6,5.75,15.31,15.31,0,0,1-1.63,4.1,10.25,10.25,0,0,1-2.33,2.75,11.76,11.76,0,0,1-2.76,1.67,11.38,11.38,0,0,1-2.88.8,18.66,18.66,0,0,1-2.69.2,18.91,18.91,0,0,1-2.56-.18,14.84,14.84,0,0,1-2.64-.62,14.19,14.19,0,0,1-2.58-1.19,11.34,11.34,0,0,1-2.41-1.87l0-51.78a18,18,0,0,1,2.37-1.66,15.82,15.82,0,0,1,2.55-1.25,15.28,15.28,0,0,1,2.6-.76,12.26,12.26,0,0,1,2.51-.27,11.27,11.27,0,0,1,2.85.37,9.45,9.45,0,0,1,2.78,1.2,11.52,11.52,0,0,1,2.49,2.19,13.45,13.45,0,0,1,2,3.32,21.61,21.61,0,0,1,1.35,4.58,32.83,32.83,0,0,1,.49,6,26.7,26.7,0,0,1-.32,4.22,17.55,17.55,0,0,1-.92,3.54,10.16,10.16,0,0,1-1.45,2.68,5.42,5.42,0,0,1-1.93,1.62,7.75,7.75,0,0,1,2.36,2,12.53,12.53,0,0,1,1.81,3.22,21.27,21.27,0,0,1,1.15,4.26A29.09,29.09,0,0,1,820.1,496.71Zm-12.93-9.81a2.72,2.72,0,0,0-1.12.24L806,496.3l.59.23a1.9,1.9,0,0,0,.57.1,2.67,2.67,0,0,0,.91-.18,2.23,2.23,0,0,0,.94-.73,4.38,4.38,0,0,0,.72-1.47,8.16,8.16,0,0,0,.29-2.45,8.58,8.58,0,0,0-.29-2.49,4.62,4.62,0,0,0-.7-1.51,2.1,2.1,0,0,0-.92-.72A2.67,2.67,0,0,0,807.17,486.9ZM810,473.79a7.18,7.18,0,0,0-.24-2,4.81,4.81,0,0,0-.58-1.34,2.43,2.43,0,0,0-.76-.77,1.46,1.46,0,0,0-.73-.24,1.42,1.42,0,0,0-.77.24,6.26,6.26,0,0,0-.74.56l-.12,8.93a5.51,5.51,0,0,0,1.14-.16,3.05,3.05,0,0,0,1.3-.71,4.22,4.22,0,0,0,1.07-1.6A8,8,0,0,0,810,473.79Z"/><path class="cls-18" d="M843,478.54q0,3.49-.24,7A44.59,44.59,0,0,0,836,487l-6.72,2a12.58,12.58,0,0,0,1.62,4.62,3.14,3.14,0,0,0,2.63,1.73,3.34,3.34,0,0,0,1.75-.6,13.09,13.09,0,0,0,1.88-1.51,22.38,22.38,0,0,0,1.79-1.95q.86-1.05,1.47-1.89l-1,18.25a10,10,0,0,1-1.68,2.05,9.09,9.09,0,0,1-1.88,1.37,8.09,8.09,0,0,1-2,.76A8.26,8.26,0,0,1,832,512a6.4,6.4,0,0,1-3.6-1.08,11,11,0,0,1-3-3,21.25,21.25,0,0,1-2.32-4.6,38,38,0,0,1-1.65-5.79,61.57,61.57,0,0,1-1-6.63q-.35-3.49-.34-7.08t.34-7.48a69.1,69.1,0,0,1,1-7.19,44.55,44.55,0,0,1,1.73-6.41,25.87,25.87,0,0,1,2.43-5.17,12,12,0,0,1,3.16-3.46,6.57,6.57,0,0,1,3.89-1.24,5.61,5.61,0,0,1,3.23,1,9.5,9.5,0,0,1,2.61,2.73,19.25,19.25,0,0,1,2,4.17A36.5,36.5,0,0,1,841.9,466a57.8,57.8,0,0,1,.82,6.07Q843,475.24,843,478.54Zm-8-2.09a23.12,23.12,0,0,0-.12-2.32,12.9,12.9,0,0,0-.39-2.15,5.33,5.33,0,0,0-.71-1.59,1.3,1.3,0,0,0-1.09-.62,1.71,1.71,0,0,0-1.4.87,8.12,8.12,0,0,0-1.05,2.17,21.23,21.23,0,0,0-.72,2.83c-.18,1-.32,2-.41,2.82l5.89-1.13Z"/><path class="cls-18" d="M863.26,456.1l-.71,17a4,4,0,0,0-1.14-.44,4.78,4.78,0,0,0-1.13-.13,5.47,5.47,0,0,0-2.7.73,6.79,6.79,0,0,0-2.27,2.21,12.48,12.48,0,0,0-1.57,3.76,21.69,21.69,0,0,0-.58,5.37,20.56,20.56,0,0,0,.32,3.92,9.55,9.55,0,0,0,.94,2.77,4.48,4.48,0,0,0,1.47,1.67,3.5,3.5,0,0,0,1.92.56,4.14,4.14,0,0,0,1.51-.3,8.37,8.37,0,0,0,1.56-.82,11.79,11.79,0,0,0,1.49-1.21,15.13,15.13,0,0,0,1.33-1.45l-.32,18.9a10.73,10.73,0,0,1-1.67,1.42,13.89,13.89,0,0,1-1.84,1.09,9.65,9.65,0,0,1-1.89.7,7.32,7.32,0,0,1-1.8.24,7.42,7.42,0,0,1-5.14-2.13,17.35,17.35,0,0,1-4-5.81,37.55,37.55,0,0,1-2.58-8.54,56,56,0,0,1-.92-10.37,76.48,76.48,0,0,1,.93-12.3,42.09,42.09,0,0,1,2.73-9.91,18.61,18.61,0,0,1,4.45-6.6,8.88,8.88,0,0,1,6.1-2.39,9.44,9.44,0,0,1,2.79.44A7.2,7.2,0,0,1,863.26,456.1Z"/><path class="cls-18" d="M889.43,480.22a57.61,57.61,0,0,1-.42,7.06,47.1,47.1,0,0,1-1.2,6.37,34.11,34.11,0,0,1-1.91,5.45,20.15,20.15,0,0,1-2.53,4.24,11.15,11.15,0,0,1-3,2.75,6.72,6.72,0,0,1-6.92.06,11.31,11.31,0,0,1-3-2.59,19,19,0,0,1-2.56-4,31.65,31.65,0,0,1-1.95-5.23,45.14,45.14,0,0,1-1.25-6.17,50.61,50.61,0,0,1-.45-6.87,55,55,0,0,1,.42-6.85,49.19,49.19,0,0,1,1.2-6.34,36.73,36.73,0,0,1,1.9-5.46,21.44,21.44,0,0,1,2.5-4.31,11.55,11.55,0,0,1,3-2.81,6.36,6.36,0,0,1,3.41-1,8.52,8.52,0,0,1,5.26,1.81,14.46,14.46,0,0,1,4.06,5.17,31.76,31.76,0,0,1,2.61,8.12A56.58,56.58,0,0,1,889.43,480.22Zm-8.83,1a23.1,23.1,0,0,0-.25-3.36,14.51,14.51,0,0,0-.73-2.89,6.36,6.36,0,0,0-1.18-2,2.11,2.11,0,0,0-1.62-.79,2.4,2.4,0,0,0-1.68.69,5.57,5.57,0,0,0-1.26,1.87,12.11,12.11,0,0,0-.81,2.77,20.06,20.06,0,0,0-.27,3.36,23.87,23.87,0,0,0,.24,3.37,15.29,15.29,0,0,0,.71,3.06,6.87,6.87,0,0,0,1.19,2.21,2.08,2.08,0,0,0,1.64.84,2.31,2.31,0,0,0,1.68-.74,5.77,5.77,0,0,0,1.26-2,13.61,13.61,0,0,0,.8-2.91A21.14,21.14,0,0,0,880.6,481.27Z"/><path class="cls-18" d="M925.25,483.76q0,5.75-.18,11.46c-.12,3.81-.26,7.62-.42,11.46l-10.22,1q.45-7,.82-14t.37-14.05c0-.29,0-.81,0-1.55s0-1.57-.07-2.51-.08-1.91-.14-2.91-.14-1.93-.24-2.78a14.32,14.32,0,0,0-.37-2.07c-.14-.53-.31-.8-.51-.8-.47,0-.83.35-1.1,1.06a11.43,11.43,0,0,0-.58,2.56,27.33,27.33,0,0,0-.23,3c0,1,0,1.87,0,2.51,0,1.13,0,2.26,0,3.38s0,2.28,0,3.46q0,6.23-.15,12.42t-.37,12.42l-9.43.73q.45-7,.8-14t.35-14c0-.3,0-.84,0-1.61s0-1.65-.07-2.62-.08-2-.15-3-.15-2-.25-2.88a17.64,17.64,0,0,0-.36-2.15q-.22-.84-.54-.84-.5,0-.84.78a9.41,9.41,0,0,0-.55,2c-.13.83-.24,1.75-.31,2.76s-.13,2-.16,2.95-.06,1.86-.06,2.68,0,1.42,0,1.82l-.44,29.35h-10q.32-6.8.65-13.63t.57-13.64q.25-6.82.41-13.65t.16-13.67l9.47-.81,0,4.67c.3-.75.63-1.51,1-2.27a14.56,14.56,0,0,1,1.18-2.05,6.42,6.42,0,0,1,1.34-1.47,2.27,2.27,0,0,1,1.46-.56,4.83,4.83,0,0,1,1.75.3,3.56,3.56,0,0,1,1.4,1,6.71,6.71,0,0,1,1.11,2,19.26,19.26,0,0,1,.83,3.2c.43-.94.86-1.81,1.29-2.62a12.58,12.58,0,0,1,1.36-2.07,5.83,5.83,0,0,1,1.55-1.34,3.67,3.67,0,0,1,1.85-.48,4.28,4.28,0,0,1,3.29,1.5,12.15,12.15,0,0,1,2.25,4,30.73,30.73,0,0,1,1.42,5.71c.34,2.15.59,4.37.76,6.68s.29,4.59.33,6.87S925.25,481.86,925.25,483.76Z"/><path class="cls-18" d="M949.27,478.54q0,3.49-.24,7a44.47,44.47,0,0,0-6.76,1.43l-6.73,2a12.77,12.77,0,0,0,1.62,4.62,3.16,3.16,0,0,0,2.64,1.73,3.31,3.31,0,0,0,1.74-.6,12.57,12.57,0,0,0,1.88-1.51,22.38,22.38,0,0,0,1.79-1.95q.85-1.05,1.47-1.89l-.95,18.25a10.65,10.65,0,0,1-1.68,2.05,9.36,9.36,0,0,1-1.88,1.37,8.25,8.25,0,0,1-2,.76,8.38,8.38,0,0,1-2,.24,6.4,6.4,0,0,1-3.61-1.08,11.14,11.14,0,0,1-2.95-3,21.71,21.71,0,0,1-2.32-4.6,40.39,40.39,0,0,1-1.65-5.79,61.57,61.57,0,0,1-1-6.63q-.33-3.49-.33-7.08t.33-7.48a69.1,69.1,0,0,1,1-7.19,45.89,45.89,0,0,1,1.73-6.41,25.88,25.88,0,0,1,2.44-5.17,12.08,12.08,0,0,1,3.15-3.46,6.6,6.6,0,0,1,3.89-1.24,5.67,5.67,0,0,1,3.24,1,9.61,9.61,0,0,1,2.6,2.73,18.8,18.8,0,0,1,2,4.17,36.47,36.47,0,0,1,1.4,5.28A60.63,60.63,0,0,1,949,472Q949.27,475.24,949.27,478.54Zm-8-2.09a23.12,23.12,0,0,0-.12-2.32,12.9,12.9,0,0,0-.39-2.15,5.33,5.33,0,0,0-.7-1.59,1.33,1.33,0,0,0-1.1-.62,1.71,1.71,0,0,0-1.4.87,8.44,8.44,0,0,0-1.05,2.17,19.83,19.83,0,0,0-.71,2.83q-.29,1.53-.42,2.82l5.89-1.13Z"/><path class="cls-18" d="M983.62,507.56l-9.87,2.57-1.2-9.08H968l-1,9.08-10.15-2,7.92-53.54,11.07-1.13Zm-11.78-18.81-1.52-14-1.47,14Z"/><path class="cls-18" d="M1013.07,454.33l-.2,17.05-5.93.48-.72,37.31-8.39.88-.76-37.3-5.93.64.24-19Z"/><path class="cls-18" d="M1037.52,472.26a54.62,54.62,0,0,1-.26,5.69,29.52,29.52,0,0,1-.85,4.69,20.48,20.48,0,0,1-1.49,3.94,21.21,21.21,0,0,1-2.21,3.45l4.74,17.05-9,3.54-3.06-17.13-2.47.16-.36,16.73H1014q.11-9.18.19-18.26t.21-18.25c0-3.08,0-6.13.08-9.16s.08-6.09.16-9.17a18.29,18.29,0,0,1,2.75-1.73,14.89,14.89,0,0,1,2.71-1.06,16.32,16.32,0,0,1,2.77-.53c.93-.09,1.89-.14,2.87-.14a8.37,8.37,0,0,1,4.39,1.27,11.55,11.55,0,0,1,3.75,3.8,21.79,21.79,0,0,1,2.62,6.31A35,35,0,0,1,1037.52,472.26Zm-8.91,1.29a19.45,19.45,0,0,0-.23-3.09,10.11,10.11,0,0,0-.68-2.44,4.46,4.46,0,0,0-1.11-1.61,2.34,2.34,0,0,0-1.56-.58,3,3,0,0,0-1.51.4l-.32,15h.47a3.94,3.94,0,0,0,1.75-.44,4.63,4.63,0,0,0,1.59-1.37,7.7,7.7,0,0,0,1.15-2.37A11.76,11.76,0,0,0,1028.61,473.55Z"/><path class="cls-18" d="M1062.62,454.41q-.9,14.16-1.53,28.17t-1.22,28.2l-8.16,1.2.36-6.19a7.07,7.07,0,0,1-.92,1.61,5.62,5.62,0,0,1-1.13,1.11,4.12,4.12,0,0,1-1.23.6,3.5,3.5,0,0,1-1.22.14,4,4,0,0,1-2.54-1.07,10.32,10.32,0,0,1-2.19-2.73,22.39,22.39,0,0,1-1.79-4,41.67,41.67,0,0,1-1.35-4.78,50.78,50.78,0,0,1-.83-5.13,46.71,46.71,0,0,1-.29-5.06q0-3.63.07-7.5t.25-7.78c.12-2.6.27-5.17.47-7.72s.43-5,.72-7.32c1.62.16,3.25.31,4.88.44a41.75,41.75,0,0,0,4.87.13l-.9,7c-.3,2.35-.57,4.7-.81,7.08s-.43,4.75-.58,7.13-.21,4.8-.21,7.24c0,.56,0,1.37,0,2.41s.09,2.08.2,3.1a15.61,15.61,0,0,0,.52,2.67c.23.76.56,1.15,1,1.15s1-.44,1.35-1.31a16.48,16.48,0,0,0,1-3.52c.31-1.47.57-3.17.79-5.1s.4-3.95.56-6.05.27-4.23.37-6.38.16-4.16.2-6.05.08-3.58.1-5.08,0-2.67,0-3.5c0-.54,0-1.06,0-1.57s0-1-.06-1.57c.87.06,1.72.1,2.57.13s1.71,0,2.57,0l2,0A19.78,19.78,0,0,0,1062.62,454.41Z"/><path class="cls-18" d="M1085.7,478.54q0,3.49-.24,7a44.47,44.47,0,0,0-6.76,1.43l-6.73,2a13,13,0,0,0,1.62,4.62,3.16,3.16,0,0,0,2.64,1.73,3.31,3.31,0,0,0,1.74-.6,12.57,12.57,0,0,0,1.88-1.51,22.38,22.38,0,0,0,1.79-1.95q.85-1.05,1.47-1.89l-.95,18.25a10.65,10.65,0,0,1-1.68,2.05,9.36,9.36,0,0,1-1.88,1.37,8.25,8.25,0,0,1-2,.76,8.38,8.38,0,0,1-2,.24,6.35,6.35,0,0,1-3.6-1.08,11,11,0,0,1-3-3,22.19,22.19,0,0,1-2.32-4.6,40.39,40.39,0,0,1-1.65-5.79,59.21,59.21,0,0,1-1-6.63q-.35-3.49-.34-7.08t.34-7.48a66.54,66.54,0,0,1,1-7.19,47.31,47.31,0,0,1,1.73-6.41,25.88,25.88,0,0,1,2.44-5.17,12.08,12.08,0,0,1,3.15-3.46,6.6,6.6,0,0,1,3.89-1.24,5.67,5.67,0,0,1,3.24,1,9.61,9.61,0,0,1,2.6,2.73,18.8,18.8,0,0,1,2,4.17,36.47,36.47,0,0,1,1.4,5.28,60.63,60.63,0,0,1,.81,6.07Q1085.7,475.24,1085.7,478.54Zm-8-2.09a23.12,23.12,0,0,0-.12-2.32,12.9,12.9,0,0,0-.39-2.15,5.08,5.08,0,0,0-.7-1.59,1.31,1.31,0,0,0-1.1-.62,1.72,1.72,0,0,0-1.4.87,8.44,8.44,0,0,0-1,2.17,19.8,19.8,0,0,0-.72,2.83q-.29,1.53-.42,2.82l5.89-1.13Z"/><path class="cls-18" d="M1116,454.33l-.2,17.05-5.93.48-.72,37.31-8.39.88-.76-37.3-5.93.64.24-19Z"/><path class="cls-18" d="M1140.49,472.26a54.45,54.45,0,0,1-.27,5.69,29.52,29.52,0,0,1-.85,4.69,20.48,20.48,0,0,1-1.49,3.94,21.21,21.21,0,0,1-2.21,3.45l4.74,17.05-9,3.54-3.06-17.13-2.47.16-.36,16.73H1117q.11-9.18.19-18.26t.21-18.25c0-3.08,0-6.13.08-9.16s.08-6.09.16-9.17a18.29,18.29,0,0,1,2.75-1.73,14.89,14.89,0,0,1,2.71-1.06,16.32,16.32,0,0,1,2.77-.53c.93-.09,1.89-.14,2.87-.14a8.37,8.37,0,0,1,4.39,1.27,11.45,11.45,0,0,1,3.75,3.8,21.79,21.79,0,0,1,2.62,6.31A34.92,34.92,0,0,1,1140.49,472.26Zm-8.92,1.29a19.45,19.45,0,0,0-.23-3.09,10.61,10.61,0,0,0-.67-2.44,4.61,4.61,0,0,0-1.12-1.61,2.32,2.32,0,0,0-1.56-.58,3,3,0,0,0-1.51.4l-.32,15h.48a3.93,3.93,0,0,0,1.74-.44,4.63,4.63,0,0,0,1.59-1.37,7.7,7.7,0,0,0,1.15-2.37A11.76,11.76,0,0,0,1131.57,473.55Z"/><path class="cls-18" d="M1167,507.56l-9.87,2.57-1.19-9.08h-4.54l-1,9.08-10.15-2,7.92-53.54,11.06-1.13Zm-11.78-18.81-1.51-14-1.47,14Z"/><path class="cls-18" d="M1187.77,490.44a41.68,41.68,0,0,1-1,9.5,21.49,21.49,0,0,1-2.59,6.6,10.94,10.94,0,0,1-3.84,3.82,9.6,9.6,0,0,1-4.72,1.22,5.22,5.22,0,0,1-2.14-.52,17.49,17.49,0,0,1-2.36-1.31,25.15,25.15,0,0,1-2.3-1.69c-.73-.6-1.39-1.17-2-1.7l.88-15.76a12.21,12.21,0,0,0,3.75,3.11,8.76,8.76,0,0,0,4,1.07,8.26,8.26,0,0,0,.91-.06,2.38,2.38,0,0,0,1-.37,2.4,2.4,0,0,0,.82-.9,3.53,3.53,0,0,0,.34-1.73,3.18,3.18,0,0,0-.24-1.3,2.55,2.55,0,0,0-.61-.89,2.71,2.71,0,0,0-.86-.52,5,5,0,0,0-.93-.26,4.44,4.44,0,0,0-.86-.08h-.64a5,5,0,0,1-3.11-1.09,8.79,8.79,0,0,1-2.41-3.07,18.77,18.77,0,0,1-1.56-4.83,32.77,32.77,0,0,1-.56-6.29,34.9,34.9,0,0,1,.95-8.5,23.53,23.53,0,0,1,2.52-6.39,12.8,12.8,0,0,1,3.64-4.05,7.43,7.43,0,0,1,4.23-1.4,14,14,0,0,1,2,.14,10.14,10.14,0,0,1,2.06.5,11.3,11.3,0,0,1,2,.93,9.29,9.29,0,0,1,1.85,1.4l-.75,16.32a16,16,0,0,0-2.84-1.54,7.36,7.36,0,0,0-2.89-.63l-.67,0a6.68,6.68,0,0,0-.85.12,4.66,4.66,0,0,0-.91.31,2.66,2.66,0,0,0-.82.54,2.53,2.53,0,0,0-.57.9,3.24,3.24,0,0,0-.2,1.33,2.61,2.61,0,0,0,.33,1.37,1.83,1.83,0,0,0,.79.7,2.58,2.58,0,0,0,1.08.22,11.12,11.12,0,0,0,1.16-.06l1.08-.12a3.24,3.24,0,0,1,.81,0,5.1,5.1,0,0,1,2.87,1.37,9.45,9.45,0,0,1,2.16,3.09,18.8,18.8,0,0,1,1.35,4.61A34.38,34.38,0,0,1,1187.77,490.44Z"/><path class="cls-18" d="M1212.66,509.41l-10,1-.08-17h-4.58l-.27,17.61h-8.92l.76-56.53,9.47.89-.6,28.86h4.42l0-30.23,9.07.48Z"/><path class="cls-18" d="M1246.13,509.41l-10,1-.08-17h-4.57l-.28,17.61h-8.92l.76-56.53,9.47.89-.6,28.86h4.42l0-30.23,9.08.48Z"/><path class="cls-18" d="M1270.23,478.54q0,3.49-.24,7a44.47,44.47,0,0,0-6.76,1.43l-6.73,2a12.77,12.77,0,0,0,1.62,4.62,3.16,3.16,0,0,0,2.64,1.73,3.31,3.31,0,0,0,1.74-.6,12.57,12.57,0,0,0,1.88-1.51,22.38,22.38,0,0,0,1.79-1.95q.86-1.05,1.47-1.89l-1,18.25a10.65,10.65,0,0,1-1.68,2.05,9.36,9.36,0,0,1-1.88,1.37,8.25,8.25,0,0,1-2,.76,8.38,8.38,0,0,1-2,.24,6.4,6.4,0,0,1-3.61-1.08,11.14,11.14,0,0,1-2.95-3,21.71,21.71,0,0,1-2.32-4.6,40.39,40.39,0,0,1-1.65-5.79,61.57,61.57,0,0,1-1-6.63q-.33-3.49-.33-7.08t.33-7.48a69.1,69.1,0,0,1,1-7.19,45.89,45.89,0,0,1,1.73-6.41,25.88,25.88,0,0,1,2.44-5.17,12.08,12.08,0,0,1,3.15-3.46,6.6,6.6,0,0,1,3.89-1.24,5.67,5.67,0,0,1,3.24,1,9.61,9.61,0,0,1,2.6,2.73,18.8,18.8,0,0,1,2,4.17,36.47,36.47,0,0,1,1.4,5.28A60.63,60.63,0,0,1,1270,472Q1270.23,475.24,1270.23,478.54Zm-8-2.09a23.12,23.12,0,0,0-.12-2.32,12.9,12.9,0,0,0-.39-2.15,5.33,5.33,0,0,0-.7-1.59,1.33,1.33,0,0,0-1.1-.62,1.71,1.71,0,0,0-1.4.87,8.44,8.44,0,0,0-1,2.17,19.83,19.83,0,0,0-.71,2.83q-.29,1.53-.42,2.82l5.89-1.13Z"/><path class="cls-18" d="M1294.85,472.26a54.45,54.45,0,0,1-.27,5.69,29.52,29.52,0,0,1-.85,4.69,20.48,20.48,0,0,1-1.49,3.94A21.21,21.21,0,0,1,1290,490l4.74,17.05-9,3.54-3.06-17.13-2.47.16-.36,16.73h-8.56q.11-9.18.19-18.26t.21-18.25q0-4.62.08-9.16t.16-9.17a18.81,18.81,0,0,1,2.75-1.73,15.18,15.18,0,0,1,2.71-1.06,16.32,16.32,0,0,1,2.77-.53c.94-.09,1.89-.14,2.88-.14a8.37,8.37,0,0,1,4.38,1.27,11.45,11.45,0,0,1,3.75,3.8,21.79,21.79,0,0,1,2.62,6.31A34.92,34.92,0,0,1,1294.85,472.26Zm-8.92,1.29a19.45,19.45,0,0,0-.23-3.09A10.61,10.61,0,0,0,1285,468a4.48,4.48,0,0,0-1.12-1.61,2.32,2.32,0,0,0-1.56-.58,3.4,3.4,0,0,0-.78.1,3.51,3.51,0,0,0-.73.3l-.32,15h.48a3.93,3.93,0,0,0,1.74-.44,4.63,4.63,0,0,0,1.59-1.37,7.48,7.48,0,0,0,1.15-2.37A11.76,11.76,0,0,0,1285.93,473.55Z"/><path class="cls-18" d="M1320.82,480.22a57.61,57.61,0,0,1-.42,7.06,47.07,47.07,0,0,1-1.21,6.37,34.11,34.11,0,0,1-1.91,5.45,20.57,20.57,0,0,1-2.52,4.24,11.33,11.33,0,0,1-3.06,2.75,6.7,6.7,0,0,1-6.91.06,11.2,11.2,0,0,1-3-2.59,19.42,19.42,0,0,1-2.56-4,31.65,31.65,0,0,1-2-5.23,46.7,46.7,0,0,1-1.25-6.17,50.61,50.61,0,0,1-.45-6.87,55,55,0,0,1,.42-6.85,49.19,49.19,0,0,1,1.2-6.34,35.62,35.62,0,0,1,1.91-5.46,21.42,21.42,0,0,1,2.49-4.31,11.42,11.42,0,0,1,3-2.81,6.32,6.32,0,0,1,3.4-1,8.52,8.52,0,0,1,5.26,1.81,14.46,14.46,0,0,1,4.06,5.17,31.76,31.76,0,0,1,2.61,8.12A55.71,55.71,0,0,1,1320.82,480.22Zm-8.84,1a21.78,21.78,0,0,0-.25-3.36A13.85,13.85,0,0,0,1311,475a6.18,6.18,0,0,0-1.18-2,2.11,2.11,0,0,0-1.62-.79,2.38,2.38,0,0,0-1.67.69,5.73,5.73,0,0,0-1.27,1.87,11.64,11.64,0,0,0-.8,2.77,19,19,0,0,0-.28,3.36,23.87,23.87,0,0,0,.24,3.37,16.8,16.8,0,0,0,.71,3.06,7.07,7.07,0,0,0,1.19,2.21,2.1,2.1,0,0,0,1.64.84,2.31,2.31,0,0,0,1.68-.74,5.94,5.94,0,0,0,1.27-2,13.62,13.62,0,0,0,.79-2.91A20.07,20.07,0,0,0,1312,481.27Z"/></g></svg>
