<svg xmlns="http://www.w3.org/2000/svg" xmlns:xlink="http://www.w3.org/1999/xlink" width="1919" height="1075" viewBox="0 0 1919 1075"><defs><style>.cls-1,.cls-9{fill:none;}.cls-2{fill:#61c1ff;}.cls-3{clip-path:url(#clip-path);}.cls-4{opacity:0.73;}.cls-5{fill:#ffba74;}.cls-6{fill:#8a4600;}.cls-7{fill:#ff9e5f;}.cls-8{fill:#e6e6e6;}.cls-9{stroke:#e6e6e6;stroke-width:6px;}.cls-12,.cls-13,.cls-15,.cls-9{stroke-miterlimit:10;}.cls-10{fill:#999;}.cls-11,.cls-12{fill:#a67c52;}.cls-12,.cls-13{stroke:#754c24;}.cls-12,.cls-13,.cls-15{stroke-width:3px;}.cls-13{fill:#8c6239;}.cls-14,.cls-15{fill:#fff;}.cls-15{stroke:#fff;opacity:0.5;}.cls-16{fill:#ffd674;}.cls-17{fill:#ffc674;}.cls-18{fill:#c1272d;}.cls-19{isolation:isolate;}.cls-20{fill:#c3002b;}</style><clipPath id="clip-path"><rect class="cls-1" y="17" width="1920" height="1058"/></clipPath></defs><title>winner_screen</title><g id="UI_ELEMENTER" data-name="UI ELEMENTER"><rect class="cls-2" width="1919" height="1075"/><g class="cls-3"><g class="cls-4"><path class="cls-5" d="M1950,879.42c0,26.55-11.15,51.06-30,70.85v174.49H0V921.16c-29.09-12.71-47-30.08-47-49.2,0-39,74.54-70.67,166.5-70.67,58.21,0,109.43,12.68,139.2,31.89a138.48,138.48,0,0,1,132.8-98.57c76.32,0,138.23,61.45,138.5,137.35H723a33,33,0,0,1,41.54-31.73A69.56,69.56,0,0,1,895,872h188.37c16.59-18.26,41.41-29.86,69.15-29.86a94,94,0,0,1,61.92,22.77,117.51,117.51,0,0,0-17.2,7.09h24.43a83.48,83.48,0,0,0-7.23-7.09A144.41,144.41,0,0,1,1259,858c23.22,0,44.63,5.19,61.78,13.93h111.28a59.5,59.5,0,0,1,118.88,0h94.36c4.94-62.22,71.2-111.47,152.2-111.47C1881.72,760.49,1950,813.73,1950,879.42Z"/><path class="cls-5" d="M1221.65,872h-24.43a117.51,117.51,0,0,1,17.2-7.09A83.48,83.48,0,0,1,1221.65,872Z"/><path class="cls-5" d="M1221.65,872h-24.43a117.51,117.51,0,0,1,17.2-7.09A83.48,83.48,0,0,1,1221.65,872Z"/><path class="cls-5" d="M350.56,903.17a1.5,1.5,0,0,0,0-3,1.5,1.5,0,0,0,0,3Z"/><path class="cls-5" d="M539.44,951.09a1.5,1.5,0,0,0,0-3,1.5,1.5,0,0,0,0,3Z"/><path class="cls-5" d="M371.37,887.32a59.66,59.66,0,0,0,13.23,28.39c1.23,1.48,3.35-.65,2.12-2.13a56.84,56.84,0,0,1-12.46-27.06c-.32-1.9-3.21-1.09-2.89.8Z"/><path class="cls-5" d="M498.7,932.66a1.5,1.5,0,0,0,0-3,1.5,1.5,0,0,0,0,3Z"/><path class="cls-6" d="M196.85,934.5a1.5,1.5,0,0,0,0-3,1.5,1.5,0,0,0,0,3Z"/><path class="cls-6" d="M387.59,991.64a1.5,1.5,0,0,0,0-3,1.5,1.5,0,0,0,0,3Z"/><path class="cls-6" d="M395,886.58a1.5,1.5,0,0,0,0-3,1.5,1.5,0,0,0,0,3Z"/><path class="cls-6" d="M346.85,835a1.5,1.5,0,0,0,0-3,1.5,1.5,0,0,0,0,3Z"/><path class="cls-6" d="M645,1017.45a1.5,1.5,0,0,0,0-3,1.5,1.5,0,0,0,0,3Z"/><path class="cls-6" d="M845,910.54a1.5,1.5,0,0,0,0-3,1.5,1.5,0,0,0,0,3Z"/><path class="cls-6" d="M663.52,905a1.5,1.5,0,0,0,0-3,1.5,1.5,0,0,0,0,3Z"/><path class="cls-6" d="M437.59,1013.76a1.5,1.5,0,0,0,0-3,1.5,1.5,0,0,0,0,3Z"/><path class="cls-6" d="M258,1063.52a1.5,1.5,0,0,0,0-3,1.5,1.5,0,0,0,0,3Z"/><path class="cls-6" d="M111.67,1034a1.5,1.5,0,0,0,0-3,1.5,1.5,0,0,0,0,3Z"/><path class="cls-6" d="M102.41,894a1.5,1.5,0,0,0,0-3,1.5,1.5,0,0,0,0,3Z"/><path class="cls-6" d="M908,976.9a1.5,1.5,0,0,0,0-3,1.5,1.5,0,0,0,0,3Z"/><path class="cls-6" d="M854.26,853.41a1.5,1.5,0,0,0,0-3,1.5,1.5,0,0,0,0,3Z"/><path class="cls-6" d="M808,827.6a1.5,1.5,0,0,0,0-3,1.5,1.5,0,0,0,0,3Z"/><path class="cls-6" d="M746.85,855.25a1.5,1.5,0,0,0,0-3,1.5,1.5,0,0,0,0,3Z"/><path class="cls-6" d="M761.67,980.58a1.5,1.5,0,0,0,0-3,1.5,1.5,0,0,0,0,3Z"/><path class="cls-6" d="M1091.3,1046.94a1.5,1.5,0,0,0,0-3,1.5,1.5,0,0,0,0,3Z"/><path class="cls-6" d="M1282,951.09a1.5,1.5,0,0,0,0-3,1.5,1.5,0,0,0,0,3Z"/><path class="cls-6" d="M1341.3,1046.94a1.5,1.5,0,0,0,0-3,1.5,1.5,0,0,0,0,3Z"/><path class="cls-6" d="M1180.19,971.37a1.5,1.5,0,0,0,0-3,1.5,1.5,0,0,0,0,3Z"/><path class="cls-6" d="M1022.78,951.09a1.5,1.5,0,0,0,0-3,1.5,1.5,0,0,0,0,3Z"/><path class="cls-6" d="M1133.89,870a1.5,1.5,0,0,0,0-3,1.5,1.5,0,0,0,0,3Z"/><path class="cls-6" d="M1352.41,932.66a1.5,1.5,0,0,0,0-3,1.5,1.5,0,0,0,0,3Z"/><path class="cls-6" d="M1437.59,1008.23a1.5,1.5,0,0,0,0-3,1.5,1.5,0,0,0,0,3Z"/><path class="cls-6" d="M1530.19,897.64a1.5,1.5,0,0,0,0-3,1.5,1.5,0,0,0,0,3Z"/><path class="cls-6" d="M1502.41,838.66a1.5,1.5,0,0,0,0-3,1.5,1.5,0,0,0,0,3Z"/><path class="cls-6" d="M1426.48,875.52a1.5,1.5,0,0,0,0-3,1.5,1.5,0,0,0,0,3Z"/><path class="cls-6" d="M1570.93,975.05a1.5,1.5,0,0,0,0-3,1.5,1.5,0,0,0,0,3Z"/><path class="cls-6" d="M1422.78,908.7a1.5,1.5,0,0,0,0-3,1.5,1.5,0,0,0,0,3Z"/><path class="cls-6" d="M1369.07,901.33a1.5,1.5,0,0,0,0-3,1.5,1.5,0,0,0,0,3Z"/><path class="cls-6" d="M1261.67,866.31a1.5,1.5,0,0,0,0-3,1.5,1.5,0,0,0,0,3Z"/><path class="cls-6" d="M1196.85,1021.13a1.5,1.5,0,0,0,0-3,1.5,1.5,0,0,0,0,3Z"/><path class="cls-6" d="M1789.44,1041.41a1.5,1.5,0,0,0,0-3,1.5,1.5,0,0,0,0,3Z"/><path class="cls-6" d="M1811.67,925.29a1.5,1.5,0,0,0,0-3,1.5,1.5,0,0,0,0,3Z"/><path class="cls-6" d="M1832,840.5a1.5,1.5,0,0,0,0-3,1.5,1.5,0,0,0,0,3Z"/><path class="cls-6" d="M1817.22,796.27a1.5,1.5,0,0,0,0-3,1.5,1.5,0,0,0,0,3Z"/><path class="cls-6" d="M1715.37,822.07a1.5,1.5,0,0,0,0-3,1.5,1.5,0,0,0,0,3Z"/><path class="cls-6" d="M1678.33,964a1.5,1.5,0,0,0,0-3,1.5,1.5,0,0,0,0,3Z"/><path class="cls-6" d="M1709.81,993.48a1.5,1.5,0,0,0,0-3,1.5,1.5,0,0,0,0,3Z"/><path class="cls-6" d="M1609.81,1028.5a1.5,1.5,0,0,0,0-3,1.5,1.5,0,0,0,0,3Z"/><path class="cls-6" d="M1704.26,1037.72a1.5,1.5,0,0,0,0-3,1.5,1.5,0,0,0,0,3Z"/><path class="cls-6" d="M1548.7,1008.23a1.5,1.5,0,0,0,0-3,1.5,1.5,0,0,0,0,3Z"/><path class="cls-6" d="M591.3,986.11a1.5,1.5,0,0,0,0-3,1.5,1.5,0,0,0,0,3Z"/><path class="cls-6" d="M554.26,941.88a1.5,1.5,0,0,0,0-3,1.5,1.5,0,0,0,0,3Z"/><path class="cls-6" d="M459.81,840.5a1.5,1.5,0,0,0,0-3,1.5,1.5,0,0,0,0,3Z"/><path class="cls-6" d="M415.37,783.37a1.5,1.5,0,0,0,0-3,1.5,1.5,0,0,0,0,3Z"/><path class="cls-6" d="M9.81,835a1.5,1.5,0,0,0,0-3,1.5,1.5,0,0,0,0,3Z"/><path class="cls-6" d="M22.78,894a1.5,1.5,0,0,0,0-3,1.5,1.5,0,0,0,0,3Z"/><path class="cls-6" d="M22.78,958.47a1.5,1.5,0,0,0,0-3,1.5,1.5,0,0,0,0,3Z"/><path class="cls-6" d="M32,1056.15a1.5,1.5,0,0,0,0-3,1.5,1.5,0,0,0,0,3Z"/><path class="cls-6" d="M52.41,964a1.5,1.5,0,0,0,0-3,1.5,1.5,0,0,0,0,3Z"/><path class="cls-6" d="M222.78,971.37a1.5,1.5,0,0,0,0-3,1.5,1.5,0,0,0,0,3Z"/><path class="cls-6" d="M154.26,895.8a1.5,1.5,0,0,0,0-3,1.5,1.5,0,0,0,0,3Z"/><path class="cls-6" d="M150.56,984.27a1.5,1.5,0,0,0,0-3,1.5,1.5,0,0,0,0,3Z"/><path class="cls-6" d="M143.15,827.6a1.5,1.5,0,0,0,0-3,1.5,1.5,0,0,0,0,3Z"/><path class="cls-6" d="M54.26,823.92a1.5,1.5,0,0,0,0-3,1.5,1.5,0,0,0,0,3Z"/></g><path class="cls-7" d="M517.83,996.41a1.5,1.5,0,0,0,0-3,1.5,1.5,0,0,0,0,3Z"/><path class="cls-7" d="M590.48,1042.2a1.5,1.5,0,0,0,0-3,1.5,1.5,0,0,0,0,3Z"/><path class="cls-7" d="M790.27,988a1.5,1.5,0,0,0,0-3,1.5,1.5,0,0,0,0,3Z"/><path class="cls-6" d="M451,898.14a1.5,1.5,0,0,0,0-3,1.5,1.5,0,0,0,0,3Z"/><path class="cls-6" d="M133.31,986.17a1.5,1.5,0,0,0,0-3,1.5,1.5,0,0,0,0,3Z"/><path class="cls-6" d="M39.2,995a1.5,1.5,0,0,0,0-3,1.5,1.5,0,0,0,0,3Z"/><path class="cls-6" d="M645.07,1047.65a1.5,1.5,0,0,0,0-3,1.5,1.5,0,0,0,0,3Z"/><path class="cls-6" d="M518.6,1015.44a1.5,1.5,0,0,0,0-3,1.5,1.5,0,0,0,0,3Z"/><path class="cls-6" d="M274.49,1038.86a1.5,1.5,0,0,0,0-3,1.5,1.5,0,0,0,0,3Z"/><path class="cls-6" d="M315.66,983.24a1.5,1.5,0,0,0,0-3,1.5,1.5,0,0,0,0,3Z"/><path class="cls-6" d="M859.77,997.88a1.5,1.5,0,0,0,0-3,1.5,1.5,0,0,0,0,3Z"/><path class="cls-6" d="M765.66,1044.72a1.5,1.5,0,0,0,0-3,1.5,1.5,0,0,0,0,3Z"/><path class="cls-6" d="M730.36,1003.74a1.5,1.5,0,0,0,0-3,1.5,1.5,0,0,0,0,3Z"/><path class="cls-6" d="M653.89,956.9a1.5,1.5,0,0,0,0-3,1.5,1.5,0,0,0,0,3Z"/><path class="cls-6" d="M456.84,986.17a1.5,1.5,0,0,0,0-3,1.5,1.5,0,0,0,0,3Z"/><path class="cls-6" d="M353.9,1065.21a1.5,1.5,0,0,0,0-3,1.5,1.5,0,0,0,0,3Z"/><path class="cls-6" d="M951,1065.21a1.5,1.5,0,0,0,0-3,1.5,1.5,0,0,0,0,3Z"/><path class="cls-6" d="M1006.83,971.54a1.5,1.5,0,0,0,0-3,1.5,1.5,0,0,0,0,3Z"/><path class="cls-6" d="M1083.3,1033a1.5,1.5,0,0,0,0-3,1.5,1.5,0,0,0,0,3Z"/><path class="cls-6" d="M1030.36,1053.5a1.5,1.5,0,0,0,0-3,1.5,1.5,0,0,0,0,3Z"/><path class="cls-6" d="M939.18,1027.15a1.5,1.5,0,0,0,0-3,1.5,1.5,0,0,0,0,3Z"/><path class="cls-6" d="M795.07,1076.92a1.5,1.5,0,0,0,0-3,1.5,1.5,0,0,0,0,3Z"/><path class="cls-6" d="M1580.35,1015.44a1.5,1.5,0,0,0,0-3,1.5,1.5,0,0,0,0,3Z"/><path class="cls-6" d="M1298,1000.81a1.5,1.5,0,0,0,0-3,1.5,1.5,0,0,0,0,3Z"/><path class="cls-6" d="M1368.59,1041.79a1.5,1.5,0,0,0,0-3,1.5,1.5,0,0,0,0,3Z"/><path class="cls-6" d="M1327.41,1071.06a1.5,1.5,0,0,0,0-3,1.5,1.5,0,0,0,0,3Z"/><path class="cls-6" d="M1106.83,971.54a1.5,1.5,0,0,0,0-3,1.5,1.5,0,0,0,0,3Z"/><path class="cls-6" d="M1042.12,936.41a1.5,1.5,0,0,0,0-3,1.5,1.5,0,0,0,0,3Z"/><path class="cls-6" d="M1645.05,948.12a1.5,1.5,0,0,0,0-3,1.5,1.5,0,0,0,0,3Z"/><path class="cls-6" d="M1477.41,921.77a1.5,1.5,0,0,0,0-3,1.5,1.5,0,0,0,0,3Z"/><path class="cls-6" d="M1395.06,1024.23a1.5,1.5,0,0,0,0-3,1.5,1.5,0,0,0,0,3Z"/><path class="cls-6" d="M1527.41,992a1.5,1.5,0,0,0,0-3,1.5,1.5,0,0,0,0,3Z"/><path class="cls-6" d="M1509.76,936.41a1.5,1.5,0,0,0,0-3,1.5,1.5,0,0,0,0,3Z"/><path class="cls-6" d="M1509.76,1035.94a1.5,1.5,0,0,0,0-3,1.5,1.5,0,0,0,0,3Z"/><path class="cls-6" d="M1253.88,1041.79a1.5,1.5,0,0,0,0-3,1.5,1.5,0,0,0,0,3Z"/><path class="cls-6" d="M1809.76,1044.72a1.5,1.5,0,0,0,0-3,1.5,1.5,0,0,0,0,3Z"/><path class="cls-6" d="M1780.35,995a1.5,1.5,0,0,0,0-3,1.5,1.5,0,0,0,0,3Z"/><path class="cls-6" d="M1724.46,1000.81a1.5,1.5,0,0,0,0-3,1.5,1.5,0,0,0,0,3Z"/><path class="cls-6" d="M1598,1041.79a1.5,1.5,0,0,0,0-3,1.5,1.5,0,0,0,0,3Z"/><path class="cls-6" d="M1874.46,1000.81a1.5,1.5,0,0,0,0-3,1.5,1.5,0,0,0,0,3Z"/><path class="cls-6" d="M1795.05,942.26a1.5,1.5,0,0,0,0-3,1.5,1.5,0,0,0,0,3Z"/><path class="cls-6" d="M1595.05,1047.65a1.5,1.5,0,0,0,0-3,1.5,1.5,0,0,0,0,3Z"/><path class="cls-5" d="M-261,978.89c0,14.49,12.9,27.87,34.7,38.67v95.26H1994.63V1001.67c33.65-6.94,54.37-16.42,54.37-26.86,0-21.3-86.22-38.58-192.6-38.58-67.33,0-126.58,6.92-161,17.41-19.67-31.12-81-53.81-153.62-53.81-88.28,0-159.89,33.54-160.21,75H1158.31c0-9.9-17.08-17.93-38.17-17.93a78.71,78.71,0,0,0-9.88.61c-13.65-11.7-40.11-19.63-70.51-19.63-43.82,0-79.45,16.47-80.37,36.95H741.48c-19.19-10-47.9-16.3-80-16.3-27.71,0-52.91,4.72-71.63,12.43,7.06,1.08,13.72,2.38,19.9,3.87H581.51c2.6-1.36,5.4-2.65,8.36-3.87a343.46,343.46,0,0,0-51.57-3.74c-26.86,0-51.62,2.84-71.46,7.61H338.12c-1.5-17.22-31.72-31-68.76-31s-67.25,13.75-68.75,31H91.46C85.74,940.85,9.1,914-84.6,914-182,914-261,943-261,978.89Z"/><path class="cls-5" d="M581.51,974.81h28.26c-6.18-1.49-12.84-2.79-19.9-3.87C586.91,972.16,584.11,973.45,581.51,974.81Z"/><path class="cls-5" d="M581.51,974.81h28.26c-6.18-1.49-12.84-2.79-19.9-3.87C586.91,972.16,584.11,973.45,581.51,974.81Z"/><path class="cls-5" d="M1589.13,992.53a1.5,1.5,0,0,0,0-3,1.5,1.5,0,0,0,0,3Z"/><path class="cls-5" d="M1370.64,1018.69a1.5,1.5,0,0,0,0-3,1.5,1.5,0,0,0,0,3Z"/><path class="cls-5" d="M1561.94,982.58c-2.35,6.55-8.32,11-14.17,14.24-1.68.94-.17,3.54,1.52,2.59,6.59-3.7,12.91-8.7,15.54-16,.65-1.82-2.25-2.61-2.89-.8Z"/><path class="cls-5" d="M1417.77,1008.63a1.5,1.5,0,0,0,0-3,1.5,1.5,0,0,0,0,3Z"/><path class="cls-6" d="M1766.93,1009.64a1.5,1.5,0,0,0,0-3,1.5,1.5,0,0,0,0,3Z"/><path class="cls-6" d="M1546.29,1040.83a1.5,1.5,0,0,0,0-3,1.5,1.5,0,0,0,0,3Z"/><path class="cls-6" d="M1537.72,983.47a1.5,1.5,0,0,0,0-3,1.5,1.5,0,0,0,0,3Z"/><path class="cls-6" d="M1593.42,955.3a1.5,1.5,0,0,0,0-3,1.5,1.5,0,0,0,0,3Z"/><path class="cls-6" d="M1248.54,1054.92a1.5,1.5,0,0,0,0-3,1.5,1.5,0,0,0,0,3Z"/><path class="cls-6" d="M1017.19,996.56a1.5,1.5,0,0,0,0-3,1.5,1.5,0,0,0,0,3Z"/><path class="cls-6" d="M1227.12,993.54a1.5,1.5,0,0,0,0-3,1.5,1.5,0,0,0,0,3Z"/><path class="cls-6" d="M1488.45,1052.9a1.5,1.5,0,0,0,0-3,1.5,1.5,0,0,0,0,3Z"/><path class="cls-6" d="M1865.46,1064a1.5,1.5,0,0,0,0-3,1.5,1.5,0,0,0,0,3Z"/><path class="cls-6" d="M1876.18,987.5a1.5,1.5,0,0,0,0-3,1.5,1.5,0,0,0,0,3Z"/><path class="cls-6" d="M944.36,1032.78a1.5,1.5,0,0,0,0-3,1.5,1.5,0,0,0,0,3Z"/><path class="cls-6" d="M1006.48,965.36a1.5,1.5,0,0,0,0-3,1.5,1.5,0,0,0,0,3Z"/><path class="cls-6" d="M1060,951.28a1.5,1.5,0,0,0,0-3,1.5,1.5,0,0,0,0,3Z"/><path class="cls-6" d="M1130.72,966.37a1.5,1.5,0,0,0,0-3,1.5,1.5,0,0,0,0,3Z"/><path class="cls-6" d="M1113.59,1034.79a1.5,1.5,0,0,0,0-3,1.5,1.5,0,0,0,0,3Z"/><path class="cls-6" d="M732.29,1071a1.5,1.5,0,0,0,0-3,1.5,1.5,0,0,0,0,3Z"/><path class="cls-6" d="M511.66,1018.69a1.5,1.5,0,0,0,0-3,1.5,1.5,0,0,0,0,3Z"/><path class="cls-6" d="M443.11,1071a1.5,1.5,0,0,0,0-3,1.5,1.5,0,0,0,0,3Z"/><path class="cls-6" d="M629.47,1029.76a1.5,1.5,0,0,0,0-3,1.5,1.5,0,0,0,0,3Z"/><path class="cls-6" d="M811.55,1018.69a1.5,1.5,0,0,0,0-3,1.5,1.5,0,0,0,0,3Z"/><path class="cls-6" d="M683,974.42a1.5,1.5,0,0,0,0-3,1.5,1.5,0,0,0,0,3Z"/><path class="cls-6" d="M430.26,1008.63a1.5,1.5,0,0,0,0-3,1.5,1.5,0,0,0,0,3Z"/><path class="cls-6" d="M331.72,1049.88a1.5,1.5,0,0,0,0-3,1.5,1.5,0,0,0,0,3Z"/><path class="cls-6" d="M224.61,989.51a1.5,1.5,0,0,0,0-3,1.5,1.5,0,0,0,0,3Z"/><path class="cls-6" d="M256.75,957.31a1.5,1.5,0,0,0,0-3,1.5,1.5,0,0,0,0,3Z"/><path class="cls-6" d="M344.57,977.44a1.5,1.5,0,0,0,0-3,1.5,1.5,0,0,0,0,3Z"/><path class="cls-6" d="M177.49,1031.77a1.5,1.5,0,0,0,0-3,1.5,1.5,0,0,0,0,3Z"/><path class="cls-6" d="M348.86,995.55a1.5,1.5,0,0,0,0-3,1.5,1.5,0,0,0,0,3Z"/><path class="cls-6" d="M411,991.52a1.5,1.5,0,0,0,0-3,1.5,1.5,0,0,0,0,3Z"/><path class="cls-6" d="M535.22,972.41a1.5,1.5,0,0,0,0-3,1.5,1.5,0,0,0,0,3Z"/><path class="cls-6" d="M610.19,1056.93a1.5,1.5,0,0,0,0-3,1.5,1.5,0,0,0,0,3Z"/><path class="cls-6" d="M10.4,948.26a1.5,1.5,0,0,0,0-3,1.5,1.5,0,0,0,0,3Z"/><path class="cls-6" d="M53.25,1025.74a1.5,1.5,0,0,0,0-3,1.5,1.5,0,0,0,0,3Z"/><path class="cls-6" d="M16.83,1041.83a1.5,1.5,0,0,0,0-3,1.5,1.5,0,0,0,0,3Z"/><path class="cls-6" d="M132.5,1061a1.5,1.5,0,0,0,0-3,1.5,1.5,0,0,0,0,3Z"/><path class="cls-6" d="M23.26,1066a1.5,1.5,0,0,0,0-3,1.5,1.5,0,0,0,0,3Z"/><path class="cls-6" d="M203.19,1049.88a1.5,1.5,0,0,0,0-3,1.5,1.5,0,0,0,0,3Z"/><path class="cls-6" d="M1310.66,1037.81a1.5,1.5,0,0,0,0-3,1.5,1.5,0,0,0,0,3Z"/><path class="cls-6" d="M1353.5,1013.66a1.5,1.5,0,0,0,0-3,1.5,1.5,0,0,0,0,3Z"/><path class="cls-6" d="M1462.75,958.32a1.5,1.5,0,0,0,0-3,1.5,1.5,0,0,0,0,3Z"/><path class="cls-6" d="M1514.16,927.13a1.5,1.5,0,0,0,0-3,1.5,1.5,0,0,0,0,3Z"/><path class="cls-6" d="M1736.94,1029.76a1.5,1.5,0,0,0,0-3,1.5,1.5,0,0,0,0,3Z"/><path class="cls-6" d="M1816.2,988.51a1.5,1.5,0,0,0,0-3,1.5,1.5,0,0,0,0,3Z"/><path class="cls-6" d="M1820.48,1036.8a1.5,1.5,0,0,0,0-3,1.5,1.5,0,0,0,0,3Z"/><path class="cls-6" d="M1829.05,951.28a1.5,1.5,0,0,0,0-3,1.5,1.5,0,0,0,0,3Z"/></g><path class="cls-8" d="M184.42,178.3h18.16A51.42,51.42,0,0,1,254,229.72v0a35.85,35.85,0,0,1-35.85,35.85H168.85A35.85,35.85,0,0,1,133,229.72v0a51.42,51.42,0,0,1,51.42-51.42Z"/><rect class="cls-8" x="148.18" y="265.57" width="90.64" height="12.65" rx="6.32"/><path class="cls-9" d="M164,273.16a29.66,29.66,0,0,0-.42,11c1,6.49,3.63,8.56,2.52,12.44-1.31,4.61-5.79,4.32-6.73,8.64-1,4.61,3.79,6.29,3.58,11.6-.27,6.56-7.83,8.86-7.16,13.49.28,1.93,2,4.51,9.05,6.95"/><path class="cls-9" d="M222.38,273.16a15.36,15.36,0,0,1,.84,11c-2,6.49-7.28,8.56-5.06,12.44,2.64,4.61,11.6,4.32,13.5,8.64,2,4.61-7.61,6.29-7.17,11.6.54,6.56,15.68,8.86,14.33,13.49-.56,1.93-4,4.51-18.13,6.95"/><path class="cls-9" d="M190.34,268.94a25.35,25.35,0,0,1,.84,14.21c-2,8.41-7.28,11.09-5.06,16.12,2.64,6,11.6,5.6,13.49,11.2,2,6-7.6,8.15-7.16,15C193,334,208.12,337,206.78,343c-.56,2.5-4.06,5.86-18.13,9"/><path class="cls-9" d="M203.89,268.94a35.4,35.4,0,0,1,.25,9.38c-.6,5.55-2.2,7.32-1.53,10.64.8,3.94,3.51,3.69,4.08,7.39.62,3.94-2.3,5.38-2.16,9.91.16,5.62,4.74,7.59,4.33,11.54-.17,1.65-1.22,3.87-5.48,5.95"/><path class="cls-9" d="M175.51,268.94a31.34,31.34,0,0,1,.29,9.38c-.68,5.55-2.48,7.32-1.72,10.64.9,3.94,3.95,3.69,4.6,7.39.68,3.94-2.6,5.38-2.45,9.91.19,5.62,5.35,7.59,4.89,11.54-.19,1.65-1.38,3.87-6.18,5.95"/><circle class="cls-10" cx="158.09" cy="210.55" r="3.16"/><circle class="cls-10" cx="158.09" cy="196.64" r="3.16"/><circle class="cls-10" cx="166.52" cy="204.65" r="3.16"/><path class="cls-8" d="M100.65,519.3h8.71A24.65,24.65,0,0,1,134,543.95v0a17.19,17.19,0,0,1-17.19,17.19H93.19A17.19,17.19,0,0,1,76,543.95v0a24.65,24.65,0,0,1,24.65-24.65Z"/><rect class="cls-8" x="83.28" y="561.13" width="43.45" height="6.06" rx="3.03"/><path class="cls-9" d="M90.87,564.77a14.08,14.08,0,0,0-.2,5.25c.47,3.11,1.74,4.11,1.21,6-.63,2.21-2.78,2.07-3.23,4.14s1.82,3,1.71,5.56c-.13,3.14-3.75,4.25-3.43,6.46.14.93,1,2.17,4.34,3.34"/><path class="cls-9" d="M118.84,564.77a7.34,7.34,0,0,1,.41,5.25c-1,3.11-3.49,4.11-2.43,6,1.27,2.21,5.56,2.07,6.47,4.14s-3.65,3-3.44,5.56c.26,3.14,7.52,4.25,6.87,6.46-.26.93-1.94,2.17-8.69,3.34"/><path class="cls-9" d="M103.48,562.75a12.11,12.11,0,0,1,.41,6.81c-1,4-3.49,5.31-2.43,7.73,1.27,2.86,5.56,2.68,6.47,5.37,1,2.86-3.64,3.9-3.44,7.2.26,4.07,7.52,5.51,6.88,8.38-.27,1.2-2,2.81-8.69,4.32"/><path class="cls-9" d="M110,562.75a17.33,17.33,0,0,1,.12,4.49c-.29,2.66-1,3.51-.73,5.1.38,1.89,1.68,1.77,1.95,3.55s-1.1,2.57-1,4.75c.07,2.69,2.27,3.63,2.07,5.53-.08.79-.58,1.85-2.62,2.85"/><path class="cls-9" d="M96.38,562.75a15.22,15.22,0,0,1,.14,4.49c-.33,2.66-1.19,3.51-.83,5.1.43,1.89,1.9,1.77,2.2,3.55s-1.24,2.57-1.17,4.75c.09,2.69,2.56,3.63,2.34,5.53-.09.79-.66,1.85-3,2.85"/><circle class="cls-10" cx="88.02" cy="534.76" r="1.52"/><circle class="cls-10" cx="88.02" cy="528.09" r="1.52"/><circle class="cls-10" cx="92.07" cy="531.93" r="1.52"/><path class="cls-8" d="M62.65,632H94.35A24.65,24.65,0,0,1,119,656.65v27.78a17.19,17.19,0,0,1-17.19,17.19H55.19A17.19,17.19,0,0,1,38,684.43V656.65A24.65,24.65,0,0,1,62.65,632Z"/><rect class="cls-8" x="48.16" y="701.62" width="60.68" height="10.09" rx="3.03"/><path class="cls-9" d="M58.76,707.67a28.22,28.22,0,0,0-.28,8.74c.67,5.18,2.44,6.83,1.69,9.93-.88,3.67-3.87,3.45-4.51,6.89-.67,3.68,2.55,5,2.4,9.25-.18,5.23-5.24,7.07-4.79,10.76.19,1.54,1.35,3.6,6.06,5.55"/><path class="cls-9" d="M97.83,707.67a14.45,14.45,0,0,1,.57,8.74c-1.33,5.18-4.88,6.83-3.39,9.93,1.77,3.67,7.77,3.45,9,6.89,1.35,3.68-5.09,5-4.8,9.25.37,5.23,10.5,7.07,9.6,10.76-.38,1.54-2.72,3.6-12.14,5.55"/><path class="cls-9" d="M76.38,704.31A23.82,23.82,0,0,1,77,715.64c-1.33,6.71-4.88,8.84-3.39,12.86,1.77,4.76,7.77,4.47,9,8.93,1.35,4.77-5.09,6.51-4.8,12,.37,6.79,10.5,9.17,9.6,14-.37,2-2.72,4.67-12.14,7.19"/><path class="cls-9" d="M85.45,704.31a33.75,33.75,0,0,1,.18,7.48c-.41,4.42-1.48,5.83-1,8.48.53,3.15,2.35,3,2.73,5.9.41,3.14-1.54,4.29-1.45,7.91.11,4.48,3.18,6,2.9,9.2-.11,1.32-.82,3.08-3.67,4.75"/><path class="cls-9" d="M66.46,704.31a29.84,29.84,0,0,1,.19,7.48c-.45,4.42-1.66,5.83-1.15,8.48.6,3.15,2.64,3,3.08,5.9.46,3.14-1.74,4.29-1.64,7.91.12,4.48,3.58,6,3.27,9.2-.13,1.32-.92,3.08-4.13,4.75"/><ellipse class="cls-10" cx="54.79" cy="657.73" rx="2.12" ry="2.52"/><ellipse class="cls-10" cx="54.79" cy="646.63" rx="2.12" ry="2.52"/><ellipse class="cls-10" cx="60.44" cy="653.02" rx="2.12" ry="2.52"/><rect class="cls-11" x="103.01" y="920.25" width="45.89" height="10.77" rx="5.39" transform="translate(-501.88 233.9) rotate(-34.48)"/><line class="cls-12" x1="84.11" y1="905.24" x2="108.14" y2="922.62"/><path class="cls-11" d="M125.28,863c16.95,24.69,17.52,53.76,1.26,64.92s-43.19.21-60.15-24.49-1.75-32.18,14.51-43.35S108.32,838.29,125.28,863Z"/><line class="cls-12" x1="80.12" y1="886.96" x2="115.8" y2="918.05"/><line class="cls-13" x1="83.82" y1="868.16" x2="119" y2="915.17"/><line class="cls-13" x1="121.81" y1="878.86" x2="129.4" y2="907.54"/><line class="cls-12" x1="106.19" y1="868.58" x2="122.38" y2="913.04"/><path class="cls-11" d="M1554.28,978c17,24.69,17.52,53.76,1.26,64.92s-43.19.21-60.15-24.49-1.75-32.18,14.51-43.35S1537.32,953.29,1554.28,978Z"/><line class="cls-12" x1="1509.12" y1="1001.96" x2="1544.8" y2="1033.05"/><line class="cls-13" x1="1512.82" y1="983.16" x2="1548" y2="1030.17"/><line class="cls-13" x1="1550.81" y1="993.86" x2="1558.4" y2="1022.54"/><line class="cls-12" x1="1535.19" y1="983.58" x2="1551.38" y2="1028.04"/><rect class="cls-11" x="1534.01" y="1038.25" width="45.89" height="10.77" rx="5.39" transform="translate(-317.31 1064.71) rotate(-34.48)"/><path class="cls-14" d="M1919,51C1667.61,93.11,131.77-7.29,0,51V0H1919Z"/><circle class="cls-15" cx="38.5" cy="47.5" r="31"/><circle class="cls-15" cx="109.5" cy="30.5" r="31"/><circle class="cls-15" cx="201.5" cy="30.5" r="31"/><circle class="cls-15" cx="185.5" cy="47.5" r="31"/><circle class="cls-15" cx="110.5" cy="85.5" r="31"/><circle class="cls-15" cx="268.5" cy="47.5" r="31"/><circle class="cls-15" cx="131.5" cy="30.5" r="31"/><circle class="cls-15" cx="305.5" cy="47.5" r="31"/><circle class="cls-15" cx="1438.5" cy="47.5" r="31"/><circle class="cls-15" cx="1543.5" cy="47.5" r="31"/><circle class="cls-15" cx="1584.5" cy="78.5" r="31"/><circle class="cls-15" cx="1407.5" cy="78.5" r="31"/><circle class="cls-15" cx="1353.5" cy="47.5" r="31"/><circle class="cls-15" cx="1487.5" cy="61.5" r="31"/><circle class="cls-15" cx="1584.5" cy="47.5" r="31"/><circle class="cls-15" cx="1659.5" cy="47.5" r="31"/><circle class="cls-15" cx="1615.5" cy="47.5" r="31"/><circle class="cls-15" cx="1848.5" cy="30.5" r="31"/><circle class="cls-15" cx="1873.5" cy="54.5" r="31"/><circle class="cls-15" cx="1763.5" cy="47.5" r="31"/><circle class="cls-15" cx="1701.5" cy="61.5" r="31"/><circle class="cls-15" cx="1807.5" cy="78.5" r="31"/><circle class="cls-15" cx="510.5" cy="78.5" r="31"/><circle class="cls-15" cx="467.5" cy="47.5" r="31"/><circle class="cls-15" cx="431.5" cy="42.5" r="31"/><circle class="cls-15" cx="731.5" cy="30.5" r="31"/><circle class="cls-15" cx="786.5" cy="47.5" r="31"/><circle class="cls-15" cx="826.5" cy="30.5" r="31"/><circle class="cls-15" cx="855.5" cy="70.5" r="31"/><circle class="cls-15" cx="886.5" cy="39.5" r="31"/><circle class="cls-15" cx="934.5" cy="30.5" r="31"/><circle class="cls-15" cx="965.5" cy="61.5" r="31"/><circle class="cls-15" cx="1019.5" cy="30.5" r="31"/><circle class="cls-15" cx="1050.5" cy="39.5" r="31"/><circle class="cls-15" cx="1135.5" cy="70.5" r="31"/><circle class="cls-15" cx="1104.5" cy="61.5" r="31"/><circle class="cls-15" cx="1152.5" cy="47.5" r="31"/><circle class="cls-15" cx="1198.5" cy="61.5" r="31"/><circle class="cls-15" cx="377.5" cy="30.5" r="31"/><circle class="cls-15" cx="1260.5" cy="47.5" r="31"/><circle class="cls-15" cx="1281.5" cy="70.5" r="31"/><circle class="cls-15" cx="1322.5" cy="39.5" r="31"/><circle class="cls-15" cx="1670.5" cy="108.5" r="12"/><circle class="cls-15" cx="476.5" cy="86.5" r="9"/><circle class="cls-15" cx="1513" cy="92" r="15.5"/><ellipse class="cls-15" cx="1480.5" cy="109" rx="8" ry="12.5"/><circle class="cls-15" cx="610" cy="89" r="15.5"/><circle class="cls-15" cx="351" cy="58" r="15.5"/><circle class="cls-15" cx="907" cy="74" r="15.5"/><circle class="cls-15" cx="1889" cy="86" r="15.5"/><ellipse class="cls-15" cx="724" cy="101.5" rx="15.5" ry="22"/><circle class="cls-15" cx="1134" cy="136" r="18.5"/><circle class="cls-15" cx="58" cy="102" r="15.5"/><ellipse class="cls-15" cx="824.5" cy="93" rx="4" ry="7.5"/><circle class="cls-15" cx="561" cy="93" r="18.5"/><circle class="cls-15" cx="1764" cy="109" r="6.5"/><circle class="cls-15" cx="557.5" cy="39.5" r="31"/><circle class="cls-15" cx="592.5" cy="47.5" r="31"/><circle class="cls-15" cx="656.5" cy="39.5" r="31"/><circle class="cls-15" cx="656.5" cy="30.5" r="31"/><circle class="cls-15" cx="693.5" cy="70.5" r="31"/><circle class="cls-15" cx="507.5" cy="30.5" r="31"/><rect class="cls-16" x="633" y="190.01" width="819" height="422.99" rx="48.28"/><rect class="cls-17" x="657.81" y="237.27" width="768.67" height="321.38" rx="34.59"/><path class="cls-18" d="M779.32,276.73l-.56,23.55-16.55.66-2,51.54-23.44,1.23-2.11-51.54-16.55.88.67-26.21Z"/><path class="cls-18" d="M847.57,301.5a37.87,37.87,0,0,1-.75,7.86,23.42,23.42,0,0,1-2.36,6.47,23,23,0,0,1-4.16,5.44,37.13,37.13,0,0,1-6.17,4.78l13.22,23.55-25,4.88-8.55-23.66-6.89.23-1,23.1H782q.27-12.66.52-25.21t.59-25.22q.11-6.39.22-12.66c.07-4.18.22-8.41.44-12.66a71.32,71.32,0,0,1,15.25-3.86q3.81-.54,7.72-.73t8-.19a42.78,42.78,0,0,1,12.25,1.75,32,32,0,0,1,10.47,5.25,26.19,26.19,0,0,1,7.3,8.72A25.63,25.63,0,0,1,847.57,301.5Zm-24.88,1.78a13.53,13.53,0,0,0-.64-4.28,9.31,9.31,0,0,0-1.89-3.36,8.74,8.74,0,0,0-3.11-2.22,10.84,10.84,0,0,0-4.36-.81,16.92,16.92,0,0,0-2.16.14,15.34,15.34,0,0,0-2.06.42l-.89,20.66h1.34a20.1,20.1,0,0,0,4.86-.61,14.63,14.63,0,0,0,4.44-1.89,10.4,10.4,0,0,0,3.22-3.28A8.83,8.83,0,0,0,822.69,303.28Z"/><path class="cls-18" d="M921.44,350.26l-27.55,3.56-3.33-12.55H877.9l-2.78,12.55L846.79,351l22.11-74,30.88-1.55Zm-32.88-26-4.22-19.33-4.11,19.33Z"/><path class="cls-18" d="M979.53,326.6a30.23,30.23,0,0,1-2.64,13.14,25.08,25.08,0,0,1-7.22,9.11A30.32,30.32,0,0,1,959,354.12a49.45,49.45,0,0,1-13.2,1.7,27.25,27.25,0,0,1-6-.73c-2.16-.48-4.36-1.08-6.58-1.8s-4.36-1.5-6.41-2.33-3.88-1.62-5.47-2.36l2.44-21.77a39.34,39.34,0,0,0,10.47,4.3,45.49,45.49,0,0,0,11.3,1.47c.71,0,1.56,0,2.56-.08A12.14,12.14,0,0,0,951,332a6.3,6.3,0,0,0,2.3-1.25,3,3,0,0,0,1-2.39,2.64,2.64,0,0,0-.67-1.8,5.06,5.06,0,0,0-1.72-1.23,11.18,11.18,0,0,0-2.39-.72c-.89-.17-1.76-.28-2.61-.36s-1.65-.11-2.39-.11h-1.78a24.13,24.13,0,0,1-8.69-1.5,19.41,19.41,0,0,1-6.72-4.25,19,19,0,0,1-4.36-6.66,23.51,23.51,0,0,1-1.55-8.7A25.55,25.55,0,0,1,924,291.31a27.25,27.25,0,0,1,7-8.83,31.7,31.7,0,0,1,10.13-5.58A36.46,36.46,0,0,1,953,275c1.82,0,3.69.07,5.61.2a55.67,55.67,0,0,1,5.75.69,52.67,52.67,0,0,1,5.58,1.28,33.84,33.84,0,0,1,5.17,1.94L973,301.61a69.45,69.45,0,0,0-7.92-2.14,39.81,39.81,0,0,0-8.08-.86l-1.86,0c-.76,0-1.55.07-2.39.17a25.39,25.39,0,0,0-2.52.41,11.29,11.29,0,0,0-2.28.75,4.42,4.42,0,0,0-1.61,1.25,2.67,2.67,0,0,0-.56,1.83,2.41,2.41,0,0,0,.92,1.89,5.54,5.54,0,0,0,2.22,1,14,14,0,0,0,3,.3c1.09,0,2.18,0,3.25-.08l3-.17a21.48,21.48,0,0,1,10.27,1.86,18.63,18.63,0,0,1,6,4.28,17.93,17.93,0,0,1,3.78,6.36A24.24,24.24,0,0,1,979.53,326.6Z"/><path class="cls-18" d="M1049,352.82l-27.77,1.33-.22-23.44h-12.77l-.78,24.33H982.59L984.7,277l26.43,1.22-1.66,39.88h12.33l.11-41.76,25.32.66Z"/><path class="cls-18" d="M1142.43,352.82l-27.77,1.33-.23-23.44h-12.77l-.78,24.33H1076l2.11-78.09,26.44,1.22-1.67,39.88h12.33l.11-41.76,25.33.66Z"/><path class="cls-18" d="M1209.68,310.16a71.42,71.42,0,0,1-.66,9.67q-9.49.62-18.89,2t-18.77,2.69a13.72,13.72,0,0,0,4.53,6.39,11.67,11.67,0,0,0,7.36,2.39,16.13,16.13,0,0,0,4.86-.84,38.82,38.82,0,0,0,5.24-2.08q2.61-1.25,5-2.69t4.11-2.61l-2.66,25.21a24.8,24.8,0,0,1-4.7,2.84,32.66,32.66,0,0,1-5.24,1.88,40.12,40.12,0,0,1-5.5,1.06,46.14,46.14,0,0,1-5.44.33,32,32,0,0,1-10.06-1.5,29.7,29.7,0,0,1-8.25-4.19,31.45,31.45,0,0,1-6.47-6.36,37,37,0,0,1-4.6-8,45.71,45.71,0,0,1-2.78-9.16,50.82,50.82,0,0,1-1-9.78,57.38,57.38,0,0,1,1-10.33,51.53,51.53,0,0,1,2.86-9.94,42.85,42.85,0,0,1,4.83-8.86,34.36,34.36,0,0,1,6.8-7.13,30.34,30.34,0,0,1,8.81-4.78,32.54,32.54,0,0,1,10.85-1.72,28.33,28.33,0,0,1,9,1.36,25.21,25.21,0,0,1,7.27,3.78,26.13,26.13,0,0,1,5.56,5.74,33.6,33.6,0,0,1,3.89,7.31,44.33,44.33,0,0,1,2.27,8.38A53.58,53.58,0,0,1,1209.68,310.16Zm-22.21-2.88a15.49,15.49,0,0,0-.34-3.2,10.1,10.1,0,0,0-1.08-3,6.59,6.59,0,0,0-2-2.19,5.13,5.13,0,0,0-3-.86,6.66,6.66,0,0,0-3.92,1.19,11.75,11.75,0,0,0-2.92,3,18.31,18.31,0,0,0-2,3.92,30.92,30.92,0,0,0-1.16,3.88l16.44-1.55Z"/><path class="cls-18" d="M1278.38,301.5a37.87,37.87,0,0,1-.75,7.86,23.42,23.42,0,0,1-2.36,6.47,23,23,0,0,1-4.16,5.44,36.72,36.72,0,0,1-6.17,4.78l13.22,23.55-25,4.88-8.55-23.66-6.89.23-1,23.1h-23.88q.27-12.66.53-25.21t.58-25.22q.11-6.39.22-12.66c.08-4.18.22-8.41.45-12.66a71,71,0,0,1,15.24-3.86q3.81-.54,7.72-.73t8-.19a42.77,42.77,0,0,1,12.24,1.75,31.81,31.81,0,0,1,10.47,5.25,26.19,26.19,0,0,1,7.3,8.72A25.63,25.63,0,0,1,1278.38,301.5Zm-24.88,1.78a13.53,13.53,0,0,0-.64-4.28,9.44,9.44,0,0,0-1.88-3.36,8.82,8.82,0,0,0-3.11-2.22,10.91,10.91,0,0,0-4.36-.81,17,17,0,0,0-2.17.14,15.19,15.19,0,0,0-2,.42l-.89,20.66h1.33a20.1,20.1,0,0,0,4.86-.61,14.52,14.52,0,0,0,4.44-1.89,10.29,10.29,0,0,0,3.22-3.28A8.74,8.74,0,0,0,1253.5,303.28Z"/><path class="cls-18" d="M1350.86,312.5a40.53,40.53,0,0,1-1.16,9.74,38.41,38.41,0,0,1-3.36,8.81,36.88,36.88,0,0,1-5.34,7.52,33.82,33.82,0,0,1-7,5.86,34.2,34.2,0,0,1-18.3,5.17,34.91,34.91,0,0,1-9.52-1.28,36.18,36.18,0,0,1-8.47-3.58A34.43,34.43,0,0,1,1285.08,332a37,37,0,0,1-3.5-8.52,35.47,35.47,0,0,1-1.25-9.5,38.74,38.74,0,0,1,4.52-18.22,37.9,37.9,0,0,1,5.31-7.55,34.65,34.65,0,0,1,7-5.94,33.41,33.41,0,0,1,8.36-3.89A32.18,32.18,0,0,1,1315,277a41.51,41.51,0,0,1,14.69,2.5,31.16,31.16,0,0,1,18.61,18.36A39.91,39.91,0,0,1,1350.86,312.5Zm-24.66,1.44a15.75,15.75,0,0,0-.69-4.64,12.9,12.9,0,0,0-2-4,10.48,10.48,0,0,0-3.3-2.83,9.31,9.31,0,0,0-4.53-1.08,11,11,0,0,0-4.66.94,10.59,10.59,0,0,0-3.53,2.59,11.37,11.37,0,0,0-2.25,3.83,13.72,13.72,0,0,0-.78,4.63,16.69,16.69,0,0,0,.67,4.67,13.68,13.68,0,0,0,2,4.22,10.71,10.71,0,0,0,3.3,3.06,8.91,8.91,0,0,0,4.58,1.16,10.39,10.39,0,0,0,8.22-3.8,12.45,12.45,0,0,0,2.22-4A14.47,14.47,0,0,0,1326.2,313.94Z"/><path class="cls-18" d="M1382,272.51l-4.55,58.43h-20.55l-2.11-58.43ZM1378.3,348a11.05,11.05,0,0,1-1,4.56,12.46,12.46,0,0,1-2.52,3.69,12,12,0,0,1-3.7,2.5,11.14,11.14,0,0,1-4.5.91,11.31,11.31,0,0,1-4.55-.91,11.8,11.8,0,0,1-6.19-6.19A11.36,11.36,0,0,1,1355,348a11.85,11.85,0,0,1,3.42-8.3,12.06,12.06,0,0,1,3.69-2.53,11,11,0,0,1,4.55-.94,10.83,10.83,0,0,1,4.5.94,12.22,12.22,0,0,1,3.7,2.53,12,12,0,0,1,2.52,3.75A11.25,11.25,0,0,1,1378.3,348Z"/><path class="cls-16" d="M1177.12,690.84H861.73a28.17,28.17,0,0,1-28.09-28.09v-57.6a28.17,28.17,0,0,1,28.09-28.09h315.38a28.17,28.17,0,0,1,28.09,28.09v57.6A28.17,28.17,0,0,1,1177.12,690.84Z"/><path class="cls-17" d="M1173.5,676.22H865a20.19,20.19,0,0,1-20.12-20.12V609.91A20.19,20.19,0,0,1,865,589.79H1173.5a20.19,20.19,0,0,1,20.12,20.12V656.1A20.17,20.17,0,0,1,1173.5,676.22Z"/><g class="cls-19"><path class="cls-20" d="M900.44,615.67l-.3,12.74-8.95.36-2.28,28.47-12.68.66.06-28.47-8.95.48.36-14.17Z"/><path class="cls-20" d="M937.29,629.67a20.53,20.53,0,0,1-.4,4.25,12.81,12.81,0,0,1-1.28,3.5,12.51,12.51,0,0,1-2.25,2.94A20.24,20.24,0,0,1,930,643l7.15,12.73-13.51,2.64L919,645.53l-3.72.12-.54,12.49H901.85q.15-6.84.29-13.63t.31-13.64q.06-3.45.12-6.85t.24-6.84a42.82,42.82,0,0,1,4.15-1.3,39,39,0,0,1,4.1-.79q2.06-.29,4.17-.39c1.41-.07,2.86-.11,4.34-.11a23.31,23.31,0,0,1,6.63.95,17.31,17.31,0,0,1,5.66,2.84,14.34,14.34,0,0,1,3.95,4.71A14,14,0,0,1,937.29,629.67Zm-13.45,1a7.36,7.36,0,0,0-.35-2.31,5.15,5.15,0,0,0-1-1.82,4.69,4.69,0,0,0-1.68-1.2,5.92,5.92,0,0,0-2.36-.43,9,9,0,0,0-1.17.07,8.09,8.09,0,0,0-1.11.23l-.48,11.17h.72A11,11,0,0,0,919,636a7.83,7.83,0,0,0,2.4-1,5.58,5.58,0,0,0,1.74-1.78A4.77,4.77,0,0,0,923.84,630.63Z"/><path class="cls-20" d="M975.77,618,961.65,641l.42,17H946.63l.36-16.88-11-22.28,15.32-1.92,4.8,13,5.23-13Z"/><path class="cls-20" d="M1025.86,656,1011,658l-1.8-6.79h-6.84l-1.51,6.79-15.31-1.5,12-40,16.7-.84ZM1008.08,642l-2.28-10.45L1003.58,642Z"/><path class="cls-20" d="M1062.05,651.9a14.07,14.07,0,0,1-3.48,3.09,22.72,22.72,0,0,1-4.45,2.19,28.13,28.13,0,0,1-4.86,1.31,27.66,27.66,0,0,1-4.75.43,21.39,21.39,0,0,1-8-1.47A18.54,18.54,0,0,1,1026,647.09a20.59,20.59,0,0,1-1.5-7.93,27,27,0,0,1,.75-6.37,25.85,25.85,0,0,1,2.15-5.79,23.88,23.88,0,0,1,3.41-5,21.53,21.53,0,0,1,10.16-6.38,23.16,23.16,0,0,1,6.48-.89c.86,0,1.78,0,2.76.11a28.93,28.93,0,0,1,2.93.36,19.66,19.66,0,0,1,2.84.71,13.15,13.15,0,0,1,2.52,1.11l-.84,11.47a15.33,15.33,0,0,0-3.47-.86,28,28,0,0,0-3.5-.22,15.13,15.13,0,0,0-4.49.64,10.67,10.67,0,0,0-3.63,1.91,8.88,8.88,0,0,0-2.45,3.15,10.16,10.16,0,0,0-.9,4.39,10.85,10.85,0,0,0,.42,3,7.78,7.78,0,0,0,1.27,2.58,6.51,6.51,0,0,0,2.14,1.82,6.09,6.09,0,0,0,3,.69,9.85,9.85,0,0,0,2.36-.3,5.18,5.18,0,0,0,2.09-1l.12-2.35-7.21-.12.36-9c3-.1,6-.18,9-.25s6-.17,9-.29Z"/><path class="cls-20" d="M1102.21,656l-14.9,1.92-1.8-6.79h-6.85l-1.5,6.79-15.32-1.5,12-40,16.69-.84ZM1084.43,642l-2.28-10.45L1079.92,642Z"/><path class="cls-20" d="M1118.52,616.34l-2.11,40.9-12.67.66-1.2-40.72Z"/><path class="cls-20" d="M1158.22,643.43c0,2.26,0,4.5-.07,6.71s-.13,4.44-.23,6.68l-17.3-.3q.9-5.31,1.56-10.62a86.47,86.47,0,0,0,.66-10.7q0-.39,0-1.26c0-.59-.06-1.24-.12-2s-.14-1.48-.25-2.25a14.87,14.87,0,0,0-.45-2.12,6,6,0,0,0-.69-1.58,1.16,1.16,0,0,0-1-.61,2.58,2.58,0,0,0-1.73.6,4.72,4.72,0,0,0-1.17,1.54,9.78,9.78,0,0,0-.73,2.12,21.24,21.24,0,0,0-.41,2.34c-.09.78-.15,1.52-.18,2.21s0,1.26,0,1.7q-.16,5.31-.25,10.55t-.24,10.59l-15.31.66q.6-10.61,1.15-21.08t.89-21.09l14.18-.72-.12,4.81a19.3,19.3,0,0,1,1.81-1.92,11.9,11.9,0,0,1,2.09-1.55,11,11,0,0,1,2.36-1,9,9,0,0,1,2.63-.38,10.9,10.9,0,0,1,4.47.85,10.15,10.15,0,0,1,3.3,2.28,12.82,12.82,0,0,1,2.32,3.41,23.08,23.08,0,0,1,1.5,4.19,36.67,36.67,0,0,1,.87,4.64c.2,1.61.33,3.19.4,4.76s.11,3.07.11,4.53Z"/><path class="cls-20" d="M1175.76,614l-2.46,31.6h-11.12L1161,614Zm-2,40.85a6,6,0,0,1-.51,2.46,6.65,6.65,0,0,1-1.37,2,6.42,6.42,0,0,1-2,1.35,6,6,0,0,1-2.43.5,6.11,6.11,0,0,1-2.46-.5,6.33,6.33,0,0,1-3.35-3.35,6.11,6.11,0,0,1-.5-2.46,6.44,6.44,0,0,1,1.85-4.49,6.65,6.65,0,0,1,2-1.37,6,6,0,0,1,2.46-.51,5.88,5.88,0,0,1,2.43.51,6.65,6.65,0,0,1,2,1.37,6.43,6.43,0,0,1,1.37,2A6.09,6.09,0,0,1,1173.78,654.84Z"/></g><path class="cls-18" d="M758.71,377.64l-9,26.71.27,19.69H740l.23-19.55-7-25.8,9.81-2.23,3.08,15,3.35-15Z"/><path class="cls-18" d="M780.54,398.09a44.8,44.8,0,0,1-.4,6.11,38.24,38.24,0,0,1-1.16,5.51,28,28,0,0,1-1.85,4.71,17.24,17.24,0,0,1-2.45,3.67,10.74,10.74,0,0,1-2.95,2.39,7.2,7.2,0,0,1-6.69,0,10.59,10.59,0,0,1-2.94-2.25,16.63,16.63,0,0,1-2.47-3.47,25.45,25.45,0,0,1-1.89-4.52,36.06,36.06,0,0,1-1.21-5.34,39.58,39.58,0,0,1-.43-5.95,42.8,42.8,0,0,1,.4-5.93,37.33,37.33,0,0,1,1.17-5.48,29.27,29.27,0,0,1,1.83-4.73,18.24,18.24,0,0,1,2.42-3.72,10.74,10.74,0,0,1,2.9-2.44,6.64,6.64,0,0,1,3.29-.87,8.87,8.87,0,0,1,5.09,1.57,12.91,12.91,0,0,1,3.93,4.47,25.73,25.73,0,0,1,2.52,7A43.32,43.32,0,0,1,780.54,398.09ZM772,399a17.32,17.32,0,0,0-.24-2.91,11.33,11.33,0,0,0-.71-2.5,5.36,5.36,0,0,0-1.14-1.77,2.15,2.15,0,0,0-1.57-.68,2.45,2.45,0,0,0-1.62.59,4.86,4.86,0,0,0-1.22,1.62,9.39,9.39,0,0,0-.78,2.4,15,15,0,0,0-.27,2.9,19.15,19.15,0,0,0,.23,2.92,13.64,13.64,0,0,0,.69,2.65,6,6,0,0,0,1.15,1.91,2.1,2.1,0,0,0,1.59.73,2.45,2.45,0,0,0,1.63-.64,5.28,5.28,0,0,0,1.22-1.74,11.16,11.16,0,0,0,.77-2.52A16,16,0,0,0,772,399Z"/><path class="cls-18" d="M804.84,375.76Q804,388,803.36,400.13t-1.18,24.4l-7.89,1,.35-5.36a6.48,6.48,0,0,1-.9,1.4,4.8,4.8,0,0,1-1.09.95,4.13,4.13,0,0,1-2.37.65,4.16,4.16,0,0,1-2.46-.93,9.26,9.26,0,0,1-2.12-2.36,19,19,0,0,1-1.73-3.44,32.28,32.28,0,0,1-1.3-4.14,40.41,40.41,0,0,1-.81-4.44,37,37,0,0,1-.28-4.38c0-2.09,0-4.25.07-6.49s.13-4.48.24-6.73.27-4.47.45-6.68.42-4.31.71-6.33q2.34.21,4.71.39a46.54,46.54,0,0,0,4.72.1q-.45,3-.88,6.07t-.78,6.12c-.23,2.06-.41,4.11-.55,6.18s-.22,4.15-.22,6.26c0,.48,0,1.18,0,2.08s.1,1.8.2,2.68a12.36,12.36,0,0,0,.5,2.32q.35,1,1,1c.49,0,.92-.38,1.31-1.13a14.19,14.19,0,0,0,1-3.05c.29-1.27.55-2.75.76-4.41s.39-3.42.54-5.24.26-3.66.35-5.51.16-3.6.2-5.24.08-3.1.1-4.4,0-2.3,0-3c0-.47,0-.92,0-1.36s0-.89-.06-1.36c.84.05,1.66.09,2.49.11s1.64,0,2.48,0h1.93C803.53,375.88,804.18,375.83,804.84,375.76Z"/><path class="cls-18" d="M836.54,423.34l-9.62.84-.08-14.68h-4.43l-.27,15.24h-8.62l.73-48.91,9.16.77-.57,25h4.27l0-26.15,8.78.41Z"/><path class="cls-18" d="M862.65,421.75,853.1,424l-1.16-7.86h-4.39l-1,7.86-9.82-1.74,7.66-46.33,10.71-1Zm-11.4-16.28-1.46-12.11-1.43,12.11Z"/><path class="cls-18" d="M884.55,376l-7,47L868,424l-8.66-45.42,9.12-1.53,3.7,26.43,3.58-28.52Z"/><path class="cls-18" d="M905.65,396.63q0,3-.23,6.06a46.32,46.32,0,0,0-6.55,1.23l-6.5,1.69a10.17,10.17,0,0,0,1.57,4,3.09,3.09,0,0,0,2.55,1.49,3.42,3.42,0,0,0,1.68-.52,11.58,11.58,0,0,0,1.82-1.3,23,23,0,0,0,1.73-1.69c.55-.6,1-1.15,1.43-1.63l-.93,15.79a9.92,9.92,0,0,1-1.62,1.77,8.68,8.68,0,0,1-1.82,1.18,8.85,8.85,0,0,1-3.79.87,6.64,6.64,0,0,1-3.49-.94,10.17,10.17,0,0,1-2.86-2.62,18.46,18.46,0,0,1-2.24-4,32.57,32.57,0,0,1-1.6-5,49.05,49.05,0,0,1-1-5.74,56.48,56.48,0,0,1-.33-6.12,63.57,63.57,0,0,1,.33-6.47,54.4,54.4,0,0,1,1-6.23,36.09,36.09,0,0,1,1.68-5.55,21.83,21.83,0,0,1,2.35-4.47,11,11,0,0,1,3.06-3,6.87,6.87,0,0,1,3.76-1.08,6,6,0,0,1,3.13.86,8.62,8.62,0,0,1,2.52,2.36,15.65,15.65,0,0,1,1.92,3.6,28.54,28.54,0,0,1,1.35,4.57,45.74,45.74,0,0,1,.79,5.26C905.56,392.86,905.65,394.73,905.65,396.63Zm-7.7-1.8a17.15,17.15,0,0,0-.12-2,9.83,9.83,0,0,0-.37-1.87,4.28,4.28,0,0,0-.68-1.37,1.31,1.31,0,0,0-1.06-.54,1.69,1.69,0,0,0-1.36.75,6.92,6.92,0,0,0-1,1.88,16.43,16.43,0,0,0-.69,2.45c-.18.88-.32,1.69-.41,2.43l5.7-1Z"/><path class="cls-18" d="M937,392.67a28.89,28.89,0,0,1-.56,6,19.13,19.13,0,0,1-1.53,4.57,12.72,12.72,0,0,1-2.28,3.31,13,13,0,0,1-2.8,2.19,12,12,0,0,1-3.09,1.25,14.48,14.48,0,0,1-3.14.44v14.81h-9q0-4,0-7.72t0-7.46q0-3.71,0-7.46c0-2.5,0-5.09,0-7.75q0-4.24,0-8.49t.09-8.56a23.11,23.11,0,0,1,4.93-2,19.56,19.56,0,0,1,5.08-.66,10.51,10.51,0,0,1,3,.43,9.94,9.94,0,0,1,2.84,1.38,12.81,12.81,0,0,1,2.52,2.34,14.38,14.38,0,0,1,2,3.36,22,22,0,0,1,1.34,4.45A29.68,29.68,0,0,1,937,392.67Zm-8.55,1.18a6.86,6.86,0,0,0-.76-3.53,2.24,2.24,0,0,0-2-1.27,3.15,3.15,0,0,0-.84.12,5.32,5.32,0,0,0-.82.3l-.23,10.15a1.91,1.91,0,0,0,.52.07h.52a2.5,2.5,0,0,0,1.34-.41,3.88,3.88,0,0,0,1.14-1.2,6.8,6.8,0,0,0,.8-1.85A8.7,8.7,0,0,0,928.48,393.85Z"/><path class="cls-18" d="M948.17,375.76l-1.34,47.38-8.13.76-.77-47.16Z"/><path class="cls-18" d="M968.1,377.23l-.7,14.67a4.43,4.43,0,0,0-1.09-.38,5.77,5.77,0,0,0-1.1-.1,5.7,5.7,0,0,0-2.61.62,6.19,6.19,0,0,0-2.19,1.92,9.81,9.81,0,0,0-1.52,3.25,16.77,16.77,0,0,0-.57,4.64,15.37,15.37,0,0,0,.32,3.39,7.81,7.81,0,0,0,.9,2.4,4.08,4.08,0,0,0,1.42,1.44,3.59,3.59,0,0,0,1.86.49,4.3,4.3,0,0,0,1.47-.26,7.83,7.83,0,0,0,1.5-.71,10.16,10.16,0,0,0,1.44-1.05,13.86,13.86,0,0,0,1.29-1.25l-.31,16.35a10.56,10.56,0,0,1-1.61,1.23,13.31,13.31,0,0,1-1.79.94,9.74,9.74,0,0,1-1.82.61,7.8,7.8,0,0,1-1.75.21,7.62,7.62,0,0,1-5-1.84,15.28,15.28,0,0,1-3.85-5,30.5,30.5,0,0,1-2.5-7.39,43.53,43.53,0,0,1-.88-9,60.45,60.45,0,0,1,.89-10.65,33.92,33.92,0,0,1,2.64-8.57,16.13,16.13,0,0,1,4.31-5.7,9.15,9.15,0,0,1,5.9-2.07,9.78,9.78,0,0,1,2.7.38A7.14,7.14,0,0,1,968.1,377.23Z"/><path class="cls-18" d="M993.6,379.8l-8.51,18.29L992.91,422,984,424.88l-5.85-14.33-.31,13.63-8,.56.62-49.81,9,.9-.7,14.33,5.59-14.53Z"/><path class="cls-18" d="M1013.64,396.63c0,2-.07,4-.23,6.06a46.45,46.45,0,0,0-6.54,1.23l-6.51,1.69a10.32,10.32,0,0,0,1.57,4,3.09,3.09,0,0,0,2.55,1.49,3.42,3.42,0,0,0,1.68-.52,11.58,11.58,0,0,0,1.82-1.3,23.08,23.08,0,0,0,1.74-1.69c.55-.6,1-1.15,1.42-1.63l-.92,15.79a10,10,0,0,1-1.63,1.77,8.43,8.43,0,0,1-1.82,1.18,8.66,8.66,0,0,1-1.91.66,8.81,8.81,0,0,1-1.88.21,6.69,6.69,0,0,1-3.49-.94,10.17,10.17,0,0,1-2.86-2.62,18.46,18.46,0,0,1-2.24-4,32.57,32.57,0,0,1-1.6-5,49.05,49.05,0,0,1-1-5.74,56.48,56.48,0,0,1-.33-6.12,63.57,63.57,0,0,1,.33-6.47,54.4,54.4,0,0,1,1-6.23,37.24,37.24,0,0,1,1.68-5.55,21.36,21.36,0,0,1,2.36-4.47,10.8,10.8,0,0,1,3-3,6.87,6.87,0,0,1,3.76-1.08,5.94,5.94,0,0,1,3.13.86,8.62,8.62,0,0,1,2.52,2.36,16.06,16.06,0,0,1,1.93,3.6,29.61,29.61,0,0,1,1.34,4.57,43.66,43.66,0,0,1,.79,5.26C1013.56,392.86,1013.64,394.73,1013.64,396.63Zm-7.7-1.8a19.61,19.61,0,0,0-.11-2,10.64,10.64,0,0,0-.38-1.87,4.28,4.28,0,0,0-.68-1.37,1.3,1.3,0,0,0-1.06-.54,1.71,1.71,0,0,0-1.36.75,6.92,6.92,0,0,0-1,1.88,16.43,16.43,0,0,0-.69,2.45c-.18.88-.32,1.69-.41,2.43l5.7-1Z"/><path class="cls-18" d="M1036.7,397.12a49.86,49.86,0,0,1-.69,8.73,33.14,33.14,0,0,1-1.93,6.83,20.39,20.39,0,0,1-3,5.07,16.67,16.67,0,0,1-3.75,3.42,15.29,15.29,0,0,1-4.34,2,18.27,18.27,0,0,1-4.73.62c-.6,0-1.19,0-1.77-.08s-1.17-.15-1.77-.26l.54-45.29a15.66,15.66,0,0,1,4.36-1.72,20,20,0,0,1,4.45-.51,9.71,9.71,0,0,1,5.07,1.39,12.11,12.11,0,0,1,4,4.09,22.09,22.09,0,0,1,2.61,6.65A39.85,39.85,0,0,1,1036.7,397.12Zm-13.09,13.36a4.76,4.76,0,0,0,2.11-1.27,8.76,8.76,0,0,0,1.65-2.37,13.51,13.51,0,0,0,1.07-3.2,18.52,18.52,0,0,0,.37-3.81,28.58,28.58,0,0,0-.23-3.7,11.76,11.76,0,0,0-.75-3,5.3,5.3,0,0,0-1.37-2,3.31,3.31,0,0,0-2.08-.82Z"/><path class="cls-18" d="M1068.54,375.76q-.86,12.25-1.48,24.37t-1.17,24.4l-7.9,1,.35-5.36a6.45,6.45,0,0,1-.89,1.4,5,5,0,0,1-1.09.95,3.89,3.89,0,0,1-1.19.52,3.81,3.81,0,0,1-1.18.13,4.16,4.16,0,0,1-2.46-.93,9.26,9.26,0,0,1-2.12-2.36,19,19,0,0,1-1.73-3.44,30.78,30.78,0,0,1-1.3-4.14,36.18,36.18,0,0,1-.81-4.44,34.94,34.94,0,0,1-.28-4.38q0-3.13.07-6.49c0-2.23.12-4.48.24-6.73s.26-4.47.45-6.68.42-4.31.7-6.33c1.57.14,3.14.27,4.72.39a46.54,46.54,0,0,0,4.72.1q-.45,3-.88,6.07t-.78,6.12c-.23,2.06-.42,4.11-.56,6.18s-.21,4.15-.21,6.26c0,.48,0,1.18,0,2.08a26.19,26.19,0,0,0,.2,2.68,12.36,12.36,0,0,0,.5,2.32c.23.66.54,1,1,1s.93-.38,1.31-1.13a13.17,13.17,0,0,0,1-3.05,43,43,0,0,0,.76-4.41c.21-1.67.39-3.42.54-5.24s.27-3.66.36-5.51.16-3.6.2-5.24.08-3.1.1-4.4,0-2.3,0-3c0-.47,0-.92,0-1.36s0-.89-.06-1.36c.83.05,1.66.09,2.48.11s1.65,0,2.49,0h1.93C1067.24,375.88,1067.89,375.83,1068.54,375.76Z"/><path class="cls-18" d="M1092.12,392.67a28.93,28.93,0,0,1-.55,6,20.06,20.06,0,0,1-1.53,4.57,12.51,12.51,0,0,1-2.29,3.31,12.74,12.74,0,0,1-2.8,2.19,11.73,11.73,0,0,1-3.09,1.25,14.39,14.39,0,0,1-3.13.44v14.81h-9q0-4,0-7.72t0-7.46c0-2.47,0-5,0-7.46s0-5.09,0-7.75q0-4.24,0-8.49t.1-8.56a22.9,22.9,0,0,1,4.93-2,19.5,19.5,0,0,1,5.08-.66,10.39,10.39,0,0,1,3,.43,9.69,9.69,0,0,1,2.84,1.38,12.28,12.28,0,0,1,2.52,2.34,14.07,14.07,0,0,1,2,3.36,21.42,21.42,0,0,1,1.33,4.45A28.86,28.86,0,0,1,1092.12,392.67Zm-8.54,1.18a7,7,0,0,0-.76-3.53,2.26,2.26,0,0,0-2-1.27,3.08,3.08,0,0,0-.83.12,5.32,5.32,0,0,0-.82.3l-.23,10.15a1.91,1.91,0,0,0,.52.07h.52a2.44,2.44,0,0,0,1.33-.41,3.9,3.9,0,0,0,1.15-1.2,7.12,7.12,0,0,0,.8-1.85A8.7,8.7,0,0,0,1083.58,393.85Z"/><path class="cls-18" d="M1122.41,396.63q0,3-.24,6.06a46.45,46.45,0,0,0-6.54,1.23l-6.51,1.69a10.48,10.48,0,0,0,1.57,4,3.09,3.09,0,0,0,2.55,1.49,3.42,3.42,0,0,0,1.69-.52,12.07,12.07,0,0,0,1.82-1.3,23,23,0,0,0,1.73-1.69c.55-.6,1-1.15,1.42-1.63l-.92,15.79a9.6,9.6,0,0,1-1.63,1.77,8.43,8.43,0,0,1-1.82,1.18,8.77,8.77,0,0,1-3.79.87,6.63,6.63,0,0,1-3.48-.94,9.91,9.91,0,0,1-2.86-2.62,18,18,0,0,1-2.24-4,30.52,30.52,0,0,1-1.6-5,47,47,0,0,1-1-5.74,59.15,59.15,0,0,1-.32-6.12q0-3.24.32-6.47a52.28,52.28,0,0,1,1-6.23,37.24,37.24,0,0,1,1.67-5.55,21.36,21.36,0,0,1,2.36-4.47,10.93,10.93,0,0,1,3.05-3,6.89,6.89,0,0,1,3.76-1.08,5.92,5.92,0,0,1,3.13.86,8.5,8.5,0,0,1,2.52,2.36,16.06,16.06,0,0,1,1.93,3.6,30.75,30.75,0,0,1,1.35,4.57,48,48,0,0,1,.79,5.26C1122.32,392.86,1122.41,394.73,1122.41,396.63Zm-7.7-1.8a17.15,17.15,0,0,0-.12-2,9.8,9.8,0,0,0-.38-1.87,4.28,4.28,0,0,0-.68-1.37,1.29,1.29,0,0,0-1.06-.54,1.69,1.69,0,0,0-1.35.75,6.93,6.93,0,0,0-1,1.88,16.43,16.43,0,0,0-.69,2.45c-.18.88-.31,1.69-.4,2.43l5.7-1Z"/><path class="cls-18" d="M1147.55,407.14q0,3.93,0,7.77t-.15,7.74l-11.08-.35q.57-6.15,1-12.29t.42-12.4c0-.3,0-.79,0-1.46s0-1.44-.08-2.28-.09-1.72-.16-2.61-.17-1.71-.29-2.45a10.72,10.72,0,0,0-.44-1.83c-.17-.47-.38-.71-.63-.71a1.3,1.3,0,0,0-1.1.69,6.29,6.29,0,0,0-.76,1.8,20.18,20.18,0,0,0-.47,2.45c-.11.9-.2,1.81-.26,2.71s-.09,1.76-.11,2.56,0,1.45,0,2q-.1,6.17-.15,12.23t-.16,12.26l-9.82.76q.39-12.27.75-24.41t.56-24.42l9.09-.83-.08,5.56a21.07,21.07,0,0,1,1.17-2.22,10,10,0,0,1,1.33-1.8,6.37,6.37,0,0,1,1.52-1.18,3.44,3.44,0,0,1,1.68-.43,4.49,4.49,0,0,1,2.87,1,8.38,8.38,0,0,1,2.12,2.64,18.64,18.64,0,0,1,1.48,3.95,42,42,0,0,1,1,4.85c.24,1.72.43,3.51.56,5.38s.21,3.7.26,5.51.07,3.56.07,5.25Z"/><path class="cls-18" d="M1173.15,398.09a44.77,44.77,0,0,1-.41,6.11,36.94,36.94,0,0,1-1.16,5.51,27.18,27.18,0,0,1-1.85,4.71,17.22,17.22,0,0,1-2.44,3.67,10.78,10.78,0,0,1-3,2.39,7.16,7.16,0,0,1-3.39.85,7.24,7.24,0,0,1-3.3-.8,10.69,10.69,0,0,1-2.93-2.25,16.65,16.65,0,0,1-2.48-3.47,26.2,26.2,0,0,1-1.88-4.52,36,36,0,0,1-1.22-5.34,40.94,40.94,0,0,1-.43-5.95,44.4,44.4,0,0,1,.4-5.93,37.33,37.33,0,0,1,1.17-5.48,29.28,29.28,0,0,1,1.84-4.73,18.22,18.22,0,0,1,2.41-3.72,10.9,10.9,0,0,1,2.9-2.44,6.67,6.67,0,0,1,3.29-.87,8.87,8.87,0,0,1,5.09,1.57,12.72,12.72,0,0,1,3.93,4.47,25.08,25.08,0,0,1,2.52,7A43.29,43.29,0,0,1,1173.15,398.09Zm-8.55.91a17.32,17.32,0,0,0-.24-2.91,11.34,11.34,0,0,0-.7-2.5,5.37,5.37,0,0,0-1.15-1.77,2.13,2.13,0,0,0-1.57-.68,2.41,2.41,0,0,0-1.61.59,4.75,4.75,0,0,0-1.23,1.62,9.39,9.39,0,0,0-.78,2.4,15.8,15.8,0,0,0-.26,2.9,18,18,0,0,0,.23,2.92,12.35,12.35,0,0,0,.69,2.65,6.16,6.16,0,0,0,1.14,1.91,2.12,2.12,0,0,0,1.59.73,2.41,2.41,0,0,0,1.63-.64,5.14,5.14,0,0,0,1.22-1.74,10.67,10.67,0,0,0,.77-2.52A16,16,0,0,0,1164.6,399Z"/><path class="cls-18" d="M1197.44,375.76q-.87,12.25-1.48,24.37t-1.17,24.4l-7.9,1,.35-5.36a6.48,6.48,0,0,1-.9,1.4,5,5,0,0,1-1.08.95,3.94,3.94,0,0,1-1.2.52,3.72,3.72,0,0,1-1.17.13,4.19,4.19,0,0,1-2.47-.93,9.23,9.23,0,0,1-2.11-2.36,19.7,19.7,0,0,1-1.74-3.44,32.27,32.27,0,0,1-1.29-4.14,36.18,36.18,0,0,1-.81-4.44,34.94,34.94,0,0,1-.28-4.38q0-3.13.06-6.49c0-2.23.13-4.48.25-6.73s.26-4.47.45-6.68.42-4.31.7-6.33c1.57.14,3.14.27,4.72.39a46.4,46.4,0,0,0,4.71.1l-.87,6.07q-.43,3-.78,6.12c-.23,2.06-.42,4.11-.56,6.18s-.21,4.15-.21,6.26c0,.48,0,1.18,0,2.08a26.19,26.19,0,0,0,.2,2.68,11.61,11.61,0,0,0,.5,2.32c.22.66.54,1,.95,1s.93-.38,1.31-1.13a13.17,13.17,0,0,0,1-3.05,43,43,0,0,0,.76-4.41c.21-1.67.39-3.42.54-5.24s.27-3.66.36-5.51.15-3.6.2-5.24.08-3.1.09-4.4,0-2.3,0-3c0-.47,0-.92,0-1.36s0-.89-.05-1.36c.83.05,1.66.09,2.48.11s1.65,0,2.48,0h1.94C1196.14,375.88,1196.79,375.83,1197.44,375.76Z"/><path class="cls-18" d="M1221.58,417a14.27,14.27,0,0,1-2.23,3.58,14.61,14.61,0,0,1-2.85,2.54,12.45,12.45,0,0,1-3.12,1.51,10,10,0,0,1-3,.5,8.52,8.52,0,0,1-5.14-1.7,14.38,14.38,0,0,1-4-4.75,27,27,0,0,1-2.67-7.25,41.26,41.26,0,0,1-1-9.18,55.31,55.31,0,0,1,.48-7.37,46.91,46.91,0,0,1,1.38-6.72,33.72,33.72,0,0,1,2.18-5.74,20.79,20.79,0,0,1,2.93-4.48,12.34,12.34,0,0,1,3.59-2.91,8.82,8.82,0,0,1,4.15-1,14.1,14.1,0,0,1,1.77.12,10.48,10.48,0,0,1,1.87.42,8.17,8.17,0,0,1,1.82.81,7.66,7.66,0,0,1,1.62,1.29l-.54,13.29a6.66,6.66,0,0,0-2.22-1,10.37,10.37,0,0,0-2.25-.26,5.77,5.77,0,0,0-2.87.75,6.88,6.88,0,0,0-2.33,2.21,11.71,11.71,0,0,0-1.57,3.65,19.83,19.83,0,0,0-.58,5.08,22.16,22.16,0,0,0,.27,3.5,12.87,12.87,0,0,0,.82,3,6.12,6.12,0,0,0,1.37,2.1,2.62,2.62,0,0,0,1.89.8,3.56,3.56,0,0,0,1.51-.35,3.12,3.12,0,0,0,1.34-1.18l.08-2.71-4.62-.14.23-10.44q2.87-.17,5.74-.29t5.77-.33Z"/><path class="cls-18" d="M1245.89,423.34l-9.62.84-.08-14.68h-4.43l-.26,15.24h-8.63l.73-48.91,9.17.77-.58,25h4.27l0-26.15,8.78.41Z"/><path class="cls-18" d="M1275.81,375.7l-.19,14.74-5.74.42-.69,32.28-8.13.76-.73-32.28-5.73.56.23-16.42Z"/><path class="cls-18" d="M1299.47,391.21a43,43,0,0,1-.26,4.92,24.35,24.35,0,0,1-.82,4.05,16.56,16.56,0,0,1-1.44,3.41,18.87,18.87,0,0,1-2.14,3l4.58,14.75-8.66,3.06-3-14.82-2.38.14-.35,14.47h-8.28q.11-7.94.18-15.79t.21-15.79c0-2.67,0-5.31.07-7.93s.08-5.26.16-7.93a19.42,19.42,0,0,1,2.65-1.5,16.15,16.15,0,0,1,2.63-.92,17.24,17.24,0,0,1,2.68-.45c.9-.08,1.83-.12,2.78-.12a8.86,8.86,0,0,1,4.24,1.09,10.71,10.71,0,0,1,3.63,3.29,17.72,17.72,0,0,1,2.53,5.46A27.15,27.15,0,0,1,1299.47,391.21Zm-8.63,1.11a14.83,14.83,0,0,0-.22-2.68,8.11,8.11,0,0,0-.65-2.1,3.87,3.87,0,0,0-1.08-1.39,2.36,2.36,0,0,0-1.51-.51,3.08,3.08,0,0,0-.75.09,3.55,3.55,0,0,0-.71.26l-.31,12.94h.46a4.17,4.17,0,0,0,1.68-.38,4.33,4.33,0,0,0,1.54-1.19,6.14,6.14,0,0,0,1.12-2.05A9.12,9.12,0,0,0,1290.84,392.32Z"/><path class="cls-18" d="M1325.07,421.75l-9.55,2.22-1.15-7.86H1310l-1,7.86-9.81-1.74,7.66-46.33,10.7-1Zm-11.4-16.28-1.46-12.11-1.42,12.11Z"/><path class="cls-18" d="M1345.21,406.93a32.35,32.35,0,0,1-.92,8.22,17.63,17.63,0,0,1-2.5,5.71,9.81,9.81,0,0,1-8.29,4.36,5.62,5.62,0,0,1-2.07-.45,17.21,17.21,0,0,1-2.28-1.13,25.75,25.75,0,0,1-2.22-1.46c-.72-.52-1.35-1-1.9-1.48l.85-13.63a11.43,11.43,0,0,0,3.63,2.69,9.15,9.15,0,0,0,3.91.92,7.67,7.67,0,0,0,.89-.05,2.49,2.49,0,0,0,1-.31,2.21,2.21,0,0,0,.8-.78,2.83,2.83,0,0,0,.33-1.5,2.59,2.59,0,0,0-.23-1.13,2.3,2.3,0,0,0-.6-.76,2.69,2.69,0,0,0-.83-.46,5.35,5.35,0,0,0-.9-.22,5,5,0,0,0-.83-.07h-.62a5.23,5.23,0,0,1-3-.94,7.94,7.94,0,0,1-2.33-2.66,15,15,0,0,1-1.51-4.18,25.25,25.25,0,0,1-.54-5.44,27.11,27.11,0,0,1,.92-7.35,19,19,0,0,1,2.44-5.54,11.65,11.65,0,0,1,3.51-3.49,7.75,7.75,0,0,1,4.1-1.22,16.45,16.45,0,0,1,2,.12,11.84,11.84,0,0,1,2,.44,11.56,11.56,0,0,1,1.93.8,9.07,9.07,0,0,1,1.8,1.22l-.74,14.12a15.45,15.45,0,0,0-2.74-1.34,7.94,7.94,0,0,0-2.8-.54l-.65,0a5,5,0,0,0-.82.1,6.23,6.23,0,0,0-.88.26,2.85,2.85,0,0,0-.79.47,2.17,2.17,0,0,0-.56.78,2.75,2.75,0,0,0-.19,1.15,2,2,0,0,0,.32,1.18,1.65,1.65,0,0,0,.77.61,2.68,2.68,0,0,0,1,.19,10.38,10.38,0,0,0,1.12-.05l1-.1a3.62,3.62,0,0,1,.79,0,5.25,5.25,0,0,1,2.77,1.18,8.28,8.28,0,0,1,2.09,2.68,15,15,0,0,1,1.31,4A26.78,26.78,0,0,1,1345.21,406.93Z"/><path class="cls-18" d="M1369.29,423.34l-9.63.84-.08-14.68h-4.42l-.27,15.24h-8.63l.74-48.91,9.16.77-.58,25h4.27l0-26.15,8.78.41Z"/><path class="cls-18" d="M755.37,461.17l-.2,14.75-5.73.42-.7,32.27-8.12.77-.73-32.28-5.74.56.23-16.42Z"/><path class="cls-18" d="M779.89,483.57a46.45,46.45,0,0,1-.4,6.11,37.19,37.19,0,0,1-1.17,5.51,27.18,27.18,0,0,1-1.85,4.71,17.22,17.22,0,0,1-2.44,3.67,10.56,10.56,0,0,1-3,2.38,7,7,0,0,1-3.38.86,7.25,7.25,0,0,1-3.31-.8,11.1,11.1,0,0,1-2.93-2.25,16.47,16.47,0,0,1-2.48-3.48,25.56,25.56,0,0,1-1.88-4.52,35.76,35.76,0,0,1-1.22-5.34,40.7,40.7,0,0,1-.43-5.94,42.79,42.79,0,0,1,.41-5.93,37.06,37.06,0,0,1,1.16-5.48,28.92,28.92,0,0,1,1.84-4.73,17.83,17.83,0,0,1,2.42-3.72,10.53,10.53,0,0,1,2.89-2.44,6.67,6.67,0,0,1,3.29-.87,8.85,8.85,0,0,1,5.1,1.57,12.79,12.79,0,0,1,3.92,4.47,24.85,24.85,0,0,1,2.52,7A43.29,43.29,0,0,1,779.89,483.57Zm-8.55.91a17.32,17.32,0,0,0-.24-2.91,11.19,11.19,0,0,0-.7-2.5,5.53,5.53,0,0,0-1.15-1.78,2.14,2.14,0,0,0-1.56-.67,2.42,2.42,0,0,0-1.62.59,4.78,4.78,0,0,0-1.22,1.61,9.66,9.66,0,0,0-.78,2.4,15.13,15.13,0,0,0-.27,2.91,18,18,0,0,0,.23,2.92,12.25,12.25,0,0,0,.69,2.64,5.94,5.94,0,0,0,1.15,1.92,2.12,2.12,0,0,0,1.58.73,2.38,2.38,0,0,0,1.63-.65A5.14,5.14,0,0,0,770.3,490a10.67,10.67,0,0,0,.77-2.52A15.79,15.79,0,0,0,771.34,484.48Z"/><path class="cls-18" d="M811.34,497.83a18.66,18.66,0,0,1-.58,5,12.29,12.29,0,0,1-1.57,3.54,9.42,9.42,0,0,1-2.26,2.39,12,12,0,0,1-2.67,1.44,12.19,12.19,0,0,1-2.78.7,22.35,22.35,0,0,1-2.61.17,19.18,19.18,0,0,1-2.47-.16,14.13,14.13,0,0,1-2.55-.54,13.77,13.77,0,0,1-2.51-1,11.9,11.9,0,0,1-2.33-1.62l0-44.8a17.71,17.71,0,0,1,2.29-1.44,17.08,17.08,0,0,1,5-1.74,13.75,13.75,0,0,1,2.43-.23,12.51,12.51,0,0,1,2.76.32,9.55,9.55,0,0,1,2.68,1,10.45,10.45,0,0,1,2.41,1.9,11.17,11.17,0,0,1,2,2.86,17,17,0,0,1,1.3,4,25.36,25.36,0,0,1,.48,5.22,21,21,0,0,1-.31,3.65,14.13,14.13,0,0,1-.89,3.06,8.56,8.56,0,0,1-1.4,2.31,5.2,5.2,0,0,1-1.87,1.41,7.3,7.3,0,0,1,2.28,1.74,10.38,10.38,0,0,1,1.75,2.78,17,17,0,0,1,1.12,3.69A23.48,23.48,0,0,1,811.34,497.83Zm-12.51-8.48a3.08,3.08,0,0,0-1.08.2l-.07,7.93.56.2a2.15,2.15,0,0,0,.55.08,3,3,0,0,0,.89-.15,2.18,2.18,0,0,0,.9-.63,3.64,3.64,0,0,0,.71-1.27,6.75,6.75,0,0,0,.28-2.12,7.17,7.17,0,0,0-.28-2.16,4,4,0,0,0-.69-1.3,2.07,2.07,0,0,0-.88-.63A3,3,0,0,0,798.83,489.35ZM801.57,478a5.36,5.36,0,0,0-.24-1.72,4,4,0,0,0-.56-1.17,2.26,2.26,0,0,0-.74-.66,1.5,1.5,0,0,0-.7-.21,1.52,1.52,0,0,0-.75.21,5.3,5.3,0,0,0-.71.49l-.12,7.72a5.68,5.68,0,0,0,1.1-.14,3.07,3.07,0,0,0,1.26-.61,3.56,3.56,0,0,0,1-1.39A6.21,6.21,0,0,0,801.57,478Z"/><path class="cls-18" d="M833.48,482.11q0,3-.23,6.05a47.68,47.68,0,0,0-6.54,1.24q-3.26.86-6.51,1.68a10.26,10.26,0,0,0,1.57,4,3.08,3.08,0,0,0,2.55,1.5,3.42,3.42,0,0,0,1.68-.52,11,11,0,0,0,1.82-1.31,19.56,19.56,0,0,0,1.73-1.68c.56-.61,1-1.15,1.43-1.64l-.92,15.79a10.06,10.06,0,0,1-1.63,1.78,9.1,9.1,0,0,1-1.82,1.18,8.66,8.66,0,0,1-1.91.66,8.81,8.81,0,0,1-1.88.21,6.67,6.67,0,0,1-3.49-.94,10.21,10.21,0,0,1-2.86-2.63,18.14,18.14,0,0,1-2.24-4,32.35,32.35,0,0,1-1.6-5,48.7,48.7,0,0,1-1-5.74,56.21,56.21,0,0,1-.33-6.12,63.86,63.86,0,0,1,.33-6.47,54.58,54.58,0,0,1,1-6.22,36.53,36.53,0,0,1,1.68-5.55,21.36,21.36,0,0,1,2.36-4.47,10.8,10.8,0,0,1,3-3,6.87,6.87,0,0,1,3.76-1.08,6,6,0,0,1,3.13.85,8.79,8.79,0,0,1,2.52,2.37,15.65,15.65,0,0,1,1.92,3.6,28.23,28.23,0,0,1,1.35,4.57,43.79,43.79,0,0,1,.79,5.25C833.4,478.34,833.48,480.21,833.48,482.11Zm-7.7-1.81a19.76,19.76,0,0,0-.11-2,10.71,10.71,0,0,0-.38-1.86,4.28,4.28,0,0,0-.68-1.37,1.3,1.3,0,0,0-1.06-.54,1.71,1.71,0,0,0-1.36.75,7,7,0,0,0-1,1.87,16.92,16.92,0,0,0-.69,2.46c-.18.88-.32,1.69-.41,2.43l5.7-1Z"/><path class="cls-18" d="M853.1,462.7l-.7,14.68a4.43,4.43,0,0,0-1.09-.38,5.78,5.78,0,0,0-1.1-.11,5.71,5.71,0,0,0-2.61.63,6.26,6.26,0,0,0-2.19,1.91,10,10,0,0,0-1.52,3.25,16.85,16.85,0,0,0-.57,4.65,15.37,15.37,0,0,0,.32,3.39,7.81,7.81,0,0,0,.9,2.4,4,4,0,0,0,1.43,1.44,3.53,3.53,0,0,0,1.85.49,4.56,4.56,0,0,0,1.47-.26,8.48,8.48,0,0,0,1.5-.71,11,11,0,0,0,1.44-1.05,13.86,13.86,0,0,0,1.29-1.25l-.31,16.35a11.24,11.24,0,0,1-1.61,1.23,15.2,15.2,0,0,1-1.78.94,10.08,10.08,0,0,1-1.83.61,7.8,7.8,0,0,1-1.75.21,7.63,7.63,0,0,1-5-1.85,15.13,15.13,0,0,1-3.85-5,30.22,30.22,0,0,1-2.49-7.39,42.93,42.93,0,0,1-.89-9,59.37,59.37,0,0,1,.9-10.64,33.52,33.52,0,0,1,2.63-8.57,16.17,16.17,0,0,1,4.31-5.71,9.15,9.15,0,0,1,5.9-2.07,9.79,9.79,0,0,1,2.7.39A7.11,7.11,0,0,1,853.1,462.7Z"/><path class="cls-18" d="M878.41,483.57a44.8,44.8,0,0,1-.4,6.11,37.19,37.19,0,0,1-1.17,5.51A27.18,27.18,0,0,1,875,499.9a17.22,17.22,0,0,1-2.44,3.67,10.56,10.56,0,0,1-3,2.38,7,7,0,0,1-3.38.86,7.18,7.18,0,0,1-3.3-.8,11,11,0,0,1-2.94-2.25,16.09,16.09,0,0,1-2.47-3.48,24.84,24.84,0,0,1-1.89-4.52,35.77,35.77,0,0,1-1.21-5.34,39.33,39.33,0,0,1-.44-5.94,42.79,42.79,0,0,1,.41-5.93,38.39,38.39,0,0,1,1.16-5.48,28.92,28.92,0,0,1,1.84-4.73,17.83,17.83,0,0,1,2.42-3.72,10.53,10.53,0,0,1,2.89-2.44,6.67,6.67,0,0,1,3.3-.87,8.82,8.82,0,0,1,5.09,1.57,12.79,12.79,0,0,1,3.92,4.47,25.16,25.16,0,0,1,2.53,7A44,44,0,0,1,878.41,483.57Zm-8.55.91a17.32,17.32,0,0,0-.24-2.91,11.19,11.19,0,0,0-.7-2.5,5.69,5.69,0,0,0-1.14-1.78,2.18,2.18,0,0,0-1.57-.67,2.42,2.42,0,0,0-1.62.59,4.78,4.78,0,0,0-1.22,1.61,9.66,9.66,0,0,0-.78,2.4,15.13,15.13,0,0,0-.27,2.91,19.15,19.15,0,0,0,.23,2.92,12.25,12.25,0,0,0,.69,2.64,5.94,5.94,0,0,0,1.15,1.92,2.12,2.12,0,0,0,1.59.73,2.37,2.37,0,0,0,1.62-.65,5.14,5.14,0,0,0,1.22-1.74,10.22,10.22,0,0,0,.77-2.52A15.79,15.79,0,0,0,869.86,484.48Z"/><path class="cls-18" d="M913.06,486.63q0,5-.17,9.91c-.12,3.3-.25,6.6-.41,9.92l-9.89.83q.43-6,.8-12.12t.35-12.15c0-.26,0-.71,0-1.34s0-1.37-.06-2.18-.08-1.65-.14-2.52-.13-1.67-.23-2.4a10.89,10.89,0,0,0-.35-1.79c-.15-.46-.31-.7-.5-.7-.45,0-.81.31-1.06.93a8.8,8.8,0,0,0-.57,2.2,22.75,22.75,0,0,0-.22,2.63c0,.89,0,1.62,0,2.17,0,1,0,2,0,2.93s0,2,0,3q0,5.38-.15,10.74c-.1,3.57-.21,7.16-.36,10.75l-9.12.63q.45-6.06.78-12.09t.34-12.12c0-.26,0-.72,0-1.39s0-1.43-.07-2.26-.08-1.71-.14-2.61-.15-1.73-.24-2.49a13.38,13.38,0,0,0-.36-1.86c-.14-.49-.32-.73-.52-.73s-.59.23-.81.68a7.25,7.25,0,0,0-.53,1.76c-.13.72-.24,1.51-.31,2.38s-.12,1.72-.15,2.55-.05,1.61-.06,2.32,0,1.23,0,1.58l-.42,25.39h-9.7q.3-5.88.62-11.79t.56-11.81q.24-5.9.4-11.81t.15-11.82l9.16-.7,0,4c.29-.65.61-1.31,1-2a13.51,13.51,0,0,1,1.14-1.77,6.42,6.42,0,0,1,1.29-1.27,2.39,2.39,0,0,1,1.42-.49,5.21,5.21,0,0,1,1.69.26,3.57,3.57,0,0,1,1.36.89,5.7,5.7,0,0,1,1.07,1.72,16.51,16.51,0,0,1,.81,2.77c.41-.82.82-1.57,1.24-2.26a10,10,0,0,1,1.32-1.8,5.61,5.61,0,0,1,1.5-1.16,3.81,3.81,0,0,1,1.79-.42,4.33,4.33,0,0,1,3.17,1.31,10.23,10.23,0,0,1,2.19,3.46,24.62,24.62,0,0,1,1.37,4.94c.32,1.85.57,3.78.74,5.77s.27,4,.31,5.95S913.06,485,913.06,486.63Z"/><path class="cls-18" d="M936.3,482.11q0,3-.23,6.05a47.82,47.82,0,0,0-6.55,1.24q-3.25.86-6.51,1.68a10.42,10.42,0,0,0,1.57,4,3.08,3.08,0,0,0,2.55,1.5,3.42,3.42,0,0,0,1.69-.52,11.49,11.49,0,0,0,1.82-1.31,21,21,0,0,0,1.73-1.68c.55-.61,1-1.15,1.42-1.64l-.92,15.79a9.36,9.36,0,0,1-1.63,1.78,8.74,8.74,0,0,1-5.61,2.05,6.63,6.63,0,0,1-3.48-.94,10,10,0,0,1-2.86-2.63,18.14,18.14,0,0,1-2.24-4,30.33,30.33,0,0,1-1.6-5,44.89,44.89,0,0,1-1-5.74,56.21,56.21,0,0,1-.33-6.12,63.86,63.86,0,0,1,.33-6.47,50.48,50.48,0,0,1,1-6.22,36.54,36.54,0,0,1,1.67-5.55,21.84,21.84,0,0,1,2.36-4.47,11.07,11.07,0,0,1,3-3,6.89,6.89,0,0,1,3.76-1.08,6,6,0,0,1,3.13.85,8.55,8.55,0,0,1,2.52,2.37,16.06,16.06,0,0,1,1.93,3.6,30.4,30.4,0,0,1,1.35,4.57,48.22,48.22,0,0,1,.79,5.25C936.21,478.34,936.3,480.21,936.3,482.11Zm-7.7-1.81a17.28,17.28,0,0,0-.12-2,10.74,10.74,0,0,0-.37-1.86,4.5,4.5,0,0,0-.69-1.37,1.29,1.29,0,0,0-1.06-.54,1.69,1.69,0,0,0-1.35.75,6.73,6.73,0,0,0-1,1.87,15.74,15.74,0,0,0-.7,2.46c-.18.88-.31,1.69-.4,2.43l5.7-1Z"/><path class="cls-18" d="M969.52,507.22,960,509.45l-1.15-7.86h-4.39l-1,7.86-9.82-1.74,7.66-46.33,10.7-1ZM958.13,491l-1.47-12.11L955.24,491Z"/><path class="cls-18" d="M998,461.17l-.19,14.75-5.74.42-.69,32.27-8.12.77-.74-32.28-5.73.56.23-16.42Z"/><path class="cls-18" d="M1021.67,476.69a43.29,43.29,0,0,1-.26,4.92,23.38,23.38,0,0,1-.82,4.05,16.8,16.8,0,0,1-1.44,3.41,17.67,17.67,0,0,1-2.14,3l4.58,14.75-8.66,3.06-3-14.82-2.39.14-.35,14.47H999q.09-7.94.18-15.79t.2-15.79c0-2.67,0-5.31.08-7.93s.07-5.27.15-7.93a18,18,0,0,1,2.66-1.5,16.05,16.05,0,0,1,2.62-.92,17.44,17.44,0,0,1,2.68-.45c.91-.08,1.83-.12,2.78-.12a8.9,8.9,0,0,1,4.25,1.09,10.9,10.9,0,0,1,3.63,3.29,18,18,0,0,1,2.53,5.46A27.55,27.55,0,0,1,1021.67,476.69Zm-8.62,1.11a14.71,14.71,0,0,0-.23-2.68,7.75,7.75,0,0,0-.65-2.1,3.91,3.91,0,0,0-1.08-1.4,2.41,2.41,0,0,0-1.51-.5,3.08,3.08,0,0,0-.75.09,3.2,3.2,0,0,0-.71.26l-.31,12.94h.46A4.07,4.07,0,0,0,1010,484a4.27,4.27,0,0,0,1.54-1.18,6.42,6.42,0,0,0,1.11-2A9.11,9.11,0,0,0,1013.05,477.8Z"/><path class="cls-18" d="M1045.94,461.24q-.86,12.24-1.48,24.37T1043.29,510l-7.89,1.05.34-5.36a6.14,6.14,0,0,1-.89,1.39,4.82,4.82,0,0,1-1.09,1,4.15,4.15,0,0,1-1.19.52,3.51,3.51,0,0,1-1.18.12,4.14,4.14,0,0,1-2.46-.92,9.43,9.43,0,0,1-2.12-2.36,19.13,19.13,0,0,1-1.73-3.45,30.78,30.78,0,0,1-1.3-4.14,37.63,37.63,0,0,1-.81-4.43,35.06,35.06,0,0,1-.28-4.38q0-3.13.07-6.49t.24-6.73c.11-2.25.26-4.47.45-6.68s.42-4.31.7-6.33c1.57.14,3.14.27,4.72.39a46.54,46.54,0,0,0,4.72.1q-.45,3-.88,6.07t-.78,6.12q-.35,3.07-.56,6.17t-.21,6.26c0,.49,0,1.19,0,2.09a26.19,26.19,0,0,0,.2,2.68,12.07,12.07,0,0,0,.5,2.31c.23.66.54,1,.95,1s.93-.37,1.31-1.13a12.9,12.9,0,0,0,1-3,43.18,43.18,0,0,0,.76-4.42c.22-1.67.39-3.41.54-5.23s.27-3.66.36-5.51.16-3.6.2-5.24.08-3.1.1-4.4,0-2.31,0-3c0-.47,0-.92,0-1.36s0-.89-.06-1.36c.83.05,1.66.08,2.48.11s1.65,0,2.49,0c.64,0,1.28,0,1.93,0S1045.29,461.31,1045.94,461.24Z"/><path class="cls-18" d="M1068.27,482.11c0,2-.07,4-.23,6.05a48,48,0,0,0-6.54,1.24q-3.26.86-6.51,1.68a10.42,10.42,0,0,0,1.57,4,3.08,3.08,0,0,0,2.55,1.5,3.45,3.45,0,0,0,1.69-.52,11,11,0,0,0,1.81-1.31,19.67,19.67,0,0,0,1.74-1.68c.55-.61,1-1.15,1.42-1.64l-.92,15.79a9.7,9.7,0,0,1-1.63,1.78,8.74,8.74,0,0,1-5.61,2.05,6.63,6.63,0,0,1-3.48-.94,10,10,0,0,1-2.86-2.63,18.16,18.16,0,0,1-2.25-4,31.31,31.31,0,0,1-1.59-5,46.69,46.69,0,0,1-1-5.74,58.85,58.85,0,0,1-.32-6.12q0-3.22.32-6.47a52.43,52.43,0,0,1,1-6.22,36.54,36.54,0,0,1,1.67-5.55,21.36,21.36,0,0,1,2.36-4.47,10.93,10.93,0,0,1,3-3,6.89,6.89,0,0,1,3.76-1.08,6,6,0,0,1,3.13.85,8.79,8.79,0,0,1,2.52,2.37,16.06,16.06,0,0,1,1.93,3.6,30.4,30.4,0,0,1,1.35,4.57,45.94,45.94,0,0,1,.78,5.25C1068.19,478.34,1068.27,480.21,1068.27,482.11Zm-7.7-1.81a17.23,17.23,0,0,0-.11-2,9.86,9.86,0,0,0-.38-1.86,4.28,4.28,0,0,0-.68-1.37,1.3,1.3,0,0,0-1.06-.54,1.72,1.72,0,0,0-1.36.75,7.29,7.29,0,0,0-1,1.87,16.92,16.92,0,0,0-.69,2.46c-.18.88-.31,1.69-.4,2.43l5.69-1Z"/><path class="cls-18" d="M1097.61,461.17l-.19,14.75-5.74.42-.69,32.27-8.12.77-.74-32.28-5.73.56.23-16.42Z"/><path class="cls-18" d="M1121.27,476.69a43.29,43.29,0,0,1-.26,4.92,23.38,23.38,0,0,1-.82,4.05,16.8,16.8,0,0,1-1.44,3.41,17.67,17.67,0,0,1-2.14,3l4.58,14.75-8.66,3.06-3-14.82-2.39.14-.35,14.47h-8.28q.1-7.94.19-15.79t.2-15.79q0-4,.08-7.93c0-2.62.07-5.27.15-7.93a18,18,0,0,1,2.66-1.5,16.05,16.05,0,0,1,2.62-.92,17.44,17.44,0,0,1,2.68-.45c.91-.08,1.83-.12,2.78-.12a8.93,8.93,0,0,1,4.25,1.09,10.9,10.9,0,0,1,3.63,3.29,18,18,0,0,1,2.53,5.46A27.55,27.55,0,0,1,1121.27,476.69Zm-8.62,1.11a14.71,14.71,0,0,0-.23-2.68,7.75,7.75,0,0,0-.65-2.1,3.91,3.91,0,0,0-1.08-1.4,2.41,2.41,0,0,0-1.51-.5,3.08,3.08,0,0,0-.75.09,3.2,3.2,0,0,0-.71.26l-.31,12.94h.46a4.11,4.11,0,0,0,1.69-.39,4.27,4.27,0,0,0,1.54-1.18,6.42,6.42,0,0,0,1.11-2A9.11,9.11,0,0,0,1112.65,477.8Z"/><path class="cls-18" d="M1146.87,507.22l-9.55,2.23-1.15-7.86h-4.39l-1,7.86-9.82-1.74,7.66-46.33,10.7-1ZM1135.48,491,1134,478.84,1132.59,491Z"/><path class="cls-18" d="M1167,492.41a32.4,32.4,0,0,1-.92,8.22,17.63,17.63,0,0,1-2.5,5.71,10.16,10.16,0,0,1-3.72,3.3,10,10,0,0,1-4.57,1.06,5.62,5.62,0,0,1-2.07-.45,17.21,17.21,0,0,1-2.28-1.13,25.75,25.75,0,0,1-2.22-1.46c-.71-.52-1.35-1-1.9-1.48l.85-13.64a11.32,11.32,0,0,0,3.63,2.7,9.19,9.19,0,0,0,3.92.92,7.51,7.51,0,0,0,.88-.05,2.49,2.49,0,0,0,1-.31,2.24,2.24,0,0,0,.8-.79,2.77,2.77,0,0,0,.33-1.49,2.59,2.59,0,0,0-.23-1.13,2.32,2.32,0,0,0-.6-.77,2.88,2.88,0,0,0-.83-.45,5.13,5.13,0,0,0-.9-.22,5,5,0,0,0-.83-.07h-.61a5.24,5.24,0,0,1-3-.94,8,8,0,0,1-2.33-2.66,15.34,15.34,0,0,1-1.51-4.18,25.32,25.32,0,0,1-.54-5.44,27.19,27.19,0,0,1,.92-7.36,19.17,19.17,0,0,1,2.44-5.53,11.45,11.45,0,0,1,3.52-3.49,7.72,7.72,0,0,1,4.1-1.22,16.41,16.41,0,0,1,1.94.12,10.75,10.75,0,0,1,2,.44,12,12,0,0,1,1.94.8,9.39,9.39,0,0,1,1.79,1.21l-.73,14.12a16.59,16.59,0,0,0-2.75-1.33,7.89,7.89,0,0,0-2.8-.54h-.64a6.31,6.31,0,0,0-.83.11,5.14,5.14,0,0,0-.88.26,3,3,0,0,0-.79.47,2.15,2.15,0,0,0-.55.78,2.6,2.6,0,0,0-.2,1.15,2.15,2.15,0,0,0,.32,1.18,1.77,1.77,0,0,0,.77.61,2.71,2.71,0,0,0,1,.19c.38,0,.75,0,1.13-.05l1-.1a3.61,3.61,0,0,1,.79,0,5.2,5.2,0,0,1,2.77,1.18,8.44,8.44,0,0,1,2.09,2.68,15.36,15.36,0,0,1,1.31,4A26.74,26.74,0,0,1,1167,492.41Z"/><path class="cls-18" d="M1191.09,508.82l-9.63.84-.07-14.68H1177l-.27,15.23h-8.62l.73-48.9,9.16.77-.58,25h4.28l0-26.16,8.77.42Z"/><path class="cls-18" d="M1223.47,508.82l-9.63.84-.07-14.68h-4.43l-.27,15.23h-8.63l.74-48.9,9.16.77-.58,25H1214l0-26.16,8.78.42Z"/><path class="cls-18" d="M1246.78,482.11q0,3-.23,6.05a47.82,47.82,0,0,0-6.55,1.24c-2.17.57-4.33,1.13-6.5,1.68a10.11,10.11,0,0,0,1.57,4,3.08,3.08,0,0,0,2.55,1.5,3.42,3.42,0,0,0,1.68-.52,11,11,0,0,0,1.82-1.31,21,21,0,0,0,1.73-1.68c.55-.61,1-1.15,1.43-1.64l-.93,15.79a9.66,9.66,0,0,1-1.62,1.78,9.1,9.1,0,0,1-1.82,1.18,8.85,8.85,0,0,1-3.79.87,6.64,6.64,0,0,1-3.49-.94,10.21,10.21,0,0,1-2.86-2.63,18.14,18.14,0,0,1-2.24-4,32.35,32.35,0,0,1-1.6-5,48.7,48.7,0,0,1-1-5.74,56.21,56.21,0,0,1-.33-6.12,63.86,63.86,0,0,1,.33-6.47,54.58,54.58,0,0,1,1-6.22,35.43,35.43,0,0,1,1.68-5.55,21.83,21.83,0,0,1,2.35-4.47,11.07,11.07,0,0,1,3-3,6.9,6.9,0,0,1,3.77-1.08,6.05,6.05,0,0,1,3.13.85,8.79,8.79,0,0,1,2.52,2.37,15.65,15.65,0,0,1,1.92,3.6,28.23,28.23,0,0,1,1.35,4.57,45.9,45.9,0,0,1,.79,5.25C1246.69,478.34,1246.78,480.21,1246.78,482.11Zm-7.7-1.81a17.28,17.28,0,0,0-.12-2,9.88,9.88,0,0,0-.37-1.86,4.28,4.28,0,0,0-.68-1.37,1.31,1.31,0,0,0-1.06-.54,1.69,1.69,0,0,0-1.36.75,7,7,0,0,0-1,1.87,16.92,16.92,0,0,0-.69,2.46c-.18.88-.32,1.69-.41,2.43l5.7-1Z"/><path class="cls-18" d="M1270.59,476.69a43.29,43.29,0,0,1-.26,4.92,22.48,22.48,0,0,1-.82,4.05,16.8,16.8,0,0,1-1.44,3.41,17.67,17.67,0,0,1-2.14,3l4.58,14.75-8.66,3.06-3-14.82-2.39.14-.35,14.47h-8.27q.09-7.94.18-15.79t.2-15.79c0-2.67,0-5.31.08-7.93s.08-5.27.15-7.93a18.5,18.5,0,0,1,2.66-1.5,15.83,15.83,0,0,1,2.63-.92,17.31,17.31,0,0,1,2.67-.45c.91-.08,1.83-.12,2.78-.12a8.9,8.9,0,0,1,4.25,1.09,10.71,10.71,0,0,1,3.63,3.29,18,18,0,0,1,2.53,5.46A27.55,27.55,0,0,1,1270.59,476.69ZM1262,477.8a15.71,15.71,0,0,0-.22-2.68,8.11,8.11,0,0,0-.66-2.1,3.91,3.91,0,0,0-1.08-1.4,2.41,2.41,0,0,0-1.51-.5,3.27,3.27,0,0,0-1.46.35l-.31,12.94h.46a4,4,0,0,0,1.69-.39,4.27,4.27,0,0,0,1.54-1.18,6.23,6.23,0,0,0,1.11-2A9.11,9.11,0,0,0,1262,477.8Z"/><path class="cls-18" d="M1295.71,483.57a44.8,44.8,0,0,1-.4,6.11,37.19,37.19,0,0,1-1.17,5.51,27.17,27.17,0,0,1-1.84,4.71,17.24,17.24,0,0,1-2.45,3.67,10.52,10.52,0,0,1-2.95,2.38,7.16,7.16,0,0,1-6.69.06,11,11,0,0,1-2.94-2.25,16.44,16.44,0,0,1-2.47-3.48,24.84,24.84,0,0,1-1.89-4.52,35.77,35.77,0,0,1-1.21-5.34,39.35,39.35,0,0,1-.43-5.94,42.8,42.8,0,0,1,.4-5.93,38.39,38.39,0,0,1,1.16-5.48,28.92,28.92,0,0,1,1.84-4.73,18.24,18.24,0,0,1,2.42-3.72,10.57,10.57,0,0,1,2.9-2.44,6.64,6.64,0,0,1,3.29-.87,8.8,8.8,0,0,1,5.09,1.57,12.91,12.91,0,0,1,3.93,4.47,25.49,25.49,0,0,1,2.52,7A43.32,43.32,0,0,1,1295.71,483.57Zm-8.54.91a17.32,17.32,0,0,0-.24-2.91,11.73,11.73,0,0,0-.71-2.5,5.51,5.51,0,0,0-1.14-1.78,2.18,2.18,0,0,0-1.57-.67,2.45,2.45,0,0,0-1.62.59,4.92,4.92,0,0,0-1.22,1.61,9.66,9.66,0,0,0-.78,2.4,15.13,15.13,0,0,0-.27,2.91,19.15,19.15,0,0,0,.23,2.92,12.86,12.86,0,0,0,.69,2.64,5.94,5.94,0,0,0,1.15,1.92,2.14,2.14,0,0,0,1.59.73,2.37,2.37,0,0,0,1.62-.65,5.16,5.16,0,0,0,1.23-1.74,11.16,11.16,0,0,0,.77-2.52A15.79,15.79,0,0,0,1287.17,484.48Z"/><path class="cls-18" d="M1306.49,458.53l-1.58,36.59h-7.12l-.73-36.59Zm-1.27,47.3a12.25,12.25,0,0,1-.32,2.85A9.27,9.27,0,0,1,1304,511a5.06,5.06,0,0,1-1.28,1.56,2.52,2.52,0,0,1-1.56.58,2.55,2.55,0,0,1-1.58-.58,5.06,5.06,0,0,1-1.28-1.56,9.27,9.27,0,0,1-.86-2.32,11.74,11.74,0,0,1-.32-2.85,12,12,0,0,1,.32-2.85,9.36,9.36,0,0,1,.86-2.35,5.27,5.27,0,0,1,1.28-1.58,2.5,2.5,0,0,1,1.58-.59,2.47,2.47,0,0,1,1.56.59,5.27,5.27,0,0,1,1.28,1.58,9.36,9.36,0,0,1,.88,2.35A12.51,12.51,0,0,1,1305.22,505.83Z"/></g></svg>
